<svg width="40" height="40" viewBox="0 0 40 40" fill="none" xmlns="http://www.w3.org/2000/svg">
<path d="M20.8255 22.6602C19.3311 22.6533 17.8465 22.4192 16.4225 21.9659C14.1472 21.2047 12.4573 19.2785 11.9986 16.9236C11.4967 14.506 12.4114 11.9496 14.5077 9.91029C14.7327 9.69122 14.9664 9.48138 15.2089 9.28075C17.3554 7.48378 20.2491 6.85929 22.9456 7.61115C25.5561 8.44436 27.3599 10.8301 27.4501 13.5688C27.5479 15.1453 27.0341 16.6988 26.0155 17.9061C25.23 18.8956 23.9572 19.363 22.718 19.117C22.2112 19.0119 21.769 18.7049 21.4933 18.2669C21.2459 17.8414 21.1824 17.3335 21.3175 16.8602C21.9005 14.6565 22.4933 11.3075 22.4991 11.2736C22.5405 11.039 22.704 10.8443 22.9278 10.7628C23.1517 10.6814 23.402 10.7256 23.5845 10.8787C23.767 11.0319 23.8539 11.2708 23.8125 11.5054C23.7877 11.6447 23.2041 14.9435 22.6067 17.201C22.5641 17.3261 22.5748 17.4633 22.6363 17.5802C22.7285 17.7078 22.8676 17.7935 23.023 17.8185C23.7816 17.9451 24.5479 17.6408 25.0129 17.0282C25.8039 16.0819 26.2002 14.8675 26.1196 13.6369C26.0544 11.4569 24.6249 9.5536 22.5493 8.88355C20.2838 8.26042 17.8567 8.79276 16.0599 10.3069C15.8457 10.4847 15.6374 10.6708 15.4375 10.8655C14.4011 11.8736 12.7461 13.9655 13.3038 16.6522C13.6785 18.5291 15.0191 20.0674 16.8272 20.6952C19.9539 21.6926 24.4467 21.8126 26.8139 18.8693C27.0464 18.5892 27.4607 18.5475 27.7445 18.7756C28.0282 19.0037 28.0765 19.4172 27.8529 19.7046C26.1025 21.8814 23.4387 22.6602 20.8255 22.6602Z" fill="#295DC2"/>
<path d="M18.5432 19.204C17.8385 19.2161 17.1512 18.985 16.5969 18.5497C15.3173 17.5256 15.2821 15.7466 15.6409 14.5351C15.7617 14.1316 15.9239 13.7417 16.1249 13.3716C16.6252 12.3623 17.425 11.5323 18.415 10.995C19.6479 10.3552 21.1542 10.5978 22.1239 11.5923C22.605 12.1195 22.9674 12.7438 23.1866 13.4231C23.3027 13.7677 23.1211 14.1419 22.7785 14.2639C22.4359 14.3859 22.0587 14.2108 21.9307 13.8703C21.7727 13.3685 21.51 12.906 21.1599 12.5132C20.5946 11.935 19.7137 11.8035 19.0041 12.1913C18.2616 12.61 17.6649 13.2457 17.2941 14.0132C17.1382 14.3007 17.0123 14.6036 16.9184 14.9169C16.6593 15.7932 16.7163 16.9369 17.4311 17.5093C18.2127 18.1369 19.5311 17.8716 20.2729 17.2317C20.8258 16.734 21.3008 16.1561 21.6821 15.5175C21.8056 15.3105 22.0311 15.1864 22.2719 15.1927C22.5128 15.199 22.7315 15.3347 22.8441 15.5478C22.9566 15.7609 22.9454 16.018 22.8147 16.2205C22.3631 16.9731 21.8008 17.6534 21.1467 18.2387C20.4178 18.8538 19.497 19.1952 18.5432 19.204Z" fill="#295DC2"/>
<path d="M38 39.9998H2C0.895933 39.9986 0.00121247 39.1038 0 37.9998V13.3331C1.048e-05 13.0746 0.149478 12.8394 0.383522 12.7296C0.617566 12.6198 0.893988 12.6552 1.0928 12.8204L17.4509 26.4154C18.931 27.6378 21.0705 27.6374 22.5501 26.4145L38.9067 12.8204C39.1055 12.6549 39.3821 12.6192 39.6164 12.7291C39.8506 12.8389 40.0002 13.0744 40 13.3331V37.9998C39.9988 39.1038 39.1041 39.9986 38 39.9998ZM1.33333 14.754V37.9998C1.33381 38.3678 1.63201 38.666 2 38.6664H38C38.3681 38.6661 38.6663 38.3678 38.6667 37.9998V14.754L23.4014 27.4406C21.4276 29.0718 18.5738 29.0722 16.5996 27.4416L1.33333 14.754Z" fill="#295DC2"/>
<path d="M0.667319 13.9997C0.376939 14 0.119789 13.8123 0.0315632 13.5356C-0.0566629 13.259 0.0443312 12.957 0.281253 12.7891L6.28125 8.53578C6.58165 8.32759 6.99367 8.40007 7.20497 8.69829C7.41628 8.99651 7.34807 9.40927 7.05205 9.62365L1.05205 13.877C0.939703 13.9569 0.80521 13.9998 0.667319 13.9997Z" fill="#295DC2"/>
<path d="M39.3326 13.9997C39.1948 13.9998 39.0603 13.9569 38.9479 13.877L32.9479 9.62365C32.6519 9.40927 32.5837 8.99651 32.795 8.69829C33.0063 8.40007 33.4183 8.32759 33.7187 8.53578L39.7187 12.7891C39.9556 12.957 40.0566 13.259 39.9684 13.5356C39.8802 13.8123 39.623 14 39.3326 13.9997Z" fill="#295DC2"/>
<path d="M26.1596 4.66656C26.0216 4.66663 25.8869 4.62373 25.7744 4.54382L22.5878 2.28382C21.1085 1.03381 18.9469 1.02079 17.4527 2.25289L14.226 4.54389C14.0317 4.6817 13.7786 4.70537 13.5621 4.60598C13.3456 4.50659 13.1985 4.29924 13.1764 4.06205C13.1542 3.82485 13.2602 3.59383 13.4546 3.45602L16.6412 1.19602C18.6103 -0.414 21.4446 -0.401194 23.3991 1.22656L26.5458 3.45576C26.7829 3.62361 26.884 3.92569 26.7957 4.20248C26.7074 4.47926 26.4501 4.667 26.1596 4.66656Z" fill="#295DC2"/>
<path d="M1.10002 39.6403C0.819067 39.6406 0.568113 39.4646 0.472536 39.2004C0.376958 38.9362 0.457273 38.6405 0.673355 38.4609L15.8867 25.8209C16.0695 25.6655 16.3217 25.6203 16.5472 25.7025C16.7726 25.7848 16.9364 25.9819 16.976 26.2186C17.0157 26.4552 16.9251 26.6949 16.7389 26.8462L1.52556 39.4862C1.40611 39.5858 1.25553 39.6403 1.10002 39.6403Z" fill="#295DC2"/>
<path d="M38.8991 39.6402C38.7437 39.6403 38.5932 39.5858 38.474 39.4862L23.2606 26.8462C23.0744 26.6949 22.9838 26.4552 23.0235 26.2186C23.0631 25.9819 23.2269 25.7848 23.4524 25.7025C23.6778 25.6203 23.93 25.6655 24.1128 25.8209L39.3258 38.4609C39.5418 38.6405 39.6222 38.9362 39.5266 39.2004C39.431 39.4646 39.18 39.6405 38.8991 39.6402Z" fill="#295DC2"/>
<path d="M33.3333 18.9868C32.9651 18.9868 32.6667 18.6883 32.6667 18.3201V4.67198C32.6647 4.68598 32.638 4.66711 32.5933 4.66678H7.40667C7.3772 4.66497 7.34828 4.67533 7.32667 4.69545L7.33333 18.3201C7.33333 18.6883 7.03486 18.9868 6.66667 18.9868C6.29848 18.9868 6 18.6883 6 18.3201V4.66678C6.02151 3.91071 6.65053 3.31448 7.40667 3.33345H32.5933C33.3494 3.31456 33.9784 3.91074 34 4.66678V18.3201C34 18.6883 33.7015 18.9868 33.3333 18.9868Z" fill="#295DC2"/>
</svg>
