<svg width="106" height="101" viewBox="0 0 106 101" fill="none" xmlns="http://www.w3.org/2000/svg">
<path fill-rule="evenodd" clip-rule="evenodd" d="M30.1856 63.1988H8.47936C3.81685 63.1988 0 59.401 0 54.7618V8.43704C0 3.79781 3.81685 0 8.47936 0H82.9756C87.6383 0 91.4549 3.79781 91.4549 8.43704V21.007H100.972C103.734 21.007 106 23.2617 106 26.028V95.9791C106 98.7453 103.734 101 100.972 101H65.6984C62.9305 101 60.666 98.7447 60.666 95.9791V83.0735H15.8226C14.8785 83.0735 14.113 82.3121 14.113 81.3724V76.7827C14.113 73.4406 17.3878 70.4978 21.5945 70.4978H30.1856V63.1988ZM88.0356 21.007V8.43704C88.0356 5.66843 85.7581 3.40229 82.9756 3.40229H8.47936C5.69707 3.40229 3.41935 5.66843 3.41935 8.43704V54.7618C3.41935 57.5302 5.69707 59.7965 8.47936 59.7965H37.2195V51.8554H7.36807C6.42369 51.8554 5.65839 51.0939 5.65839 50.1542V8.27055C5.65839 6.81351 6.8479 5.6359 8.31202 5.6359H83.1489C84.5993 5.6359 85.7967 6.81054 85.7967 8.27055V21.007H88.0356ZM37.2195 63.1988H33.605V70.4978H37.2195V63.1988ZM60.666 79.6712V76.5303H41.059C39.3583 76.5303 37.9117 75.4265 37.4088 73.9001H21.5945C19.451 73.9001 17.5323 75.0796 17.5323 76.7827V79.6712H60.666ZM64.0853 76.5303V95.9791C64.0853 96.8681 64.8087 97.5977 65.6984 97.5977H100.972C101.859 97.5977 102.581 96.8675 102.581 95.9791V26.028C102.581 25.1395 101.859 24.4093 100.972 24.4093H96.9176L95.3241 27.4021C94.6896 28.5939 93.4452 29.3392 92.0899 29.3392H74.5761C73.2208 29.3392 71.9763 28.5939 71.3418 27.4021L69.7484 24.4093H65.6984C64.8087 24.4093 64.0853 25.1389 64.0853 26.028V33.19C66.8871 35.6307 68.663 39.2125 68.663 43.1868V46.3522H69.5666C71.684 46.3522 73.4012 48.0697 73.4012 50.1679V72.7148C73.4012 74.8217 71.684 76.5303 69.5666 76.5303H64.0853ZM93.0481 24.4093H73.6181L74.3635 25.8096C74.4052 25.8878 74.487 25.9369 74.5761 25.9369H92.0899C92.179 25.9369 92.2608 25.8878 92.3025 25.8096L93.0481 24.4093ZM60.666 31.0195V26.028C60.666 23.2623 62.9305 21.007 65.6984 21.007H82.3774V9.03819H9.07775V48.4531H37.6311C38.2647 47.2102 39.5636 46.3522 41.059 46.3522H59.9139V43.1868C59.9139 40.6721 57.8367 38.6037 55.3128 38.6037C52.7889 38.6037 50.7116 40.6721 50.7116 43.1868C50.7116 44.1264 49.9461 44.8879 49.0019 44.8879H43.6671C42.7229 44.8879 41.9574 44.1264 41.9574 43.1868C41.9574 35.8787 47.968 29.8983 55.3128 29.8983C57.2139 29.8983 59.0253 30.2989 60.666 31.0195ZM63.3333 46.3522H65.2436V43.1868C65.2436 37.7499 60.7769 33.3006 55.3128 33.3006C50.431 33.3006 46.3417 36.8517 45.5251 41.4856H47.4777C48.2697 37.9094 51.4995 35.2014 55.3128 35.2014C59.7111 35.2014 63.3333 38.8042 63.3333 43.1868V46.3522ZM79.986 61.7054C79.3188 61.0416 79.3188 59.9637 79.986 59.2998C80.6532 58.6359 81.7367 58.6359 82.4039 59.2998L85.8053 62.6842L92.8107 55.714C93.4779 55.0501 94.5612 55.0501 95.2284 55.714C95.8956 56.3779 95.8956 57.456 95.2284 58.1199L87.0143 66.293C86.3466 66.9573 85.2642 66.9573 84.5963 66.293L79.986 61.7054ZM78.9533 93.2479C78.0096 93.2479 77.2437 92.4855 77.2437 91.5467C77.2437 90.6077 78.0096 89.8456 78.9533 89.8456H87.7173C88.6609 89.8456 89.427 90.6077 89.427 91.5467C89.427 92.4855 88.6609 93.2479 87.7173 93.2479H78.9533ZM27.4687 28.5089L38.0175 17.9033L38.0209 17.8999C39.8767 16.0441 42.9054 16.035 44.7707 17.8816C46.6355 19.7275 46.6471 22.7307 44.7918 24.5958L44.791 24.5967C40.1413 29.2652 35.5265 33.9619 30.8556 38.6094C28.9908 40.4649 25.9632 40.4649 24.0983 38.6094L16.3554 30.8983C14.4917 29.0437 14.4891 26.042 16.3524 24.1775C16.3537 24.1765 16.3548 24.1752 16.3561 24.1741C18.2209 22.3192 21.2481 22.3195 23.1127 24.1746L27.4687 28.5089ZM25.9623 31.8216L20.6948 26.5804C20.1652 26.0535 19.3057 26.0528 18.7752 26.5785C18.2457 27.1101 18.2427 27.9645 18.7733 28.4925L26.5162 36.2038C27.0465 36.7313 27.9075 36.7313 28.4377 36.2038C33.1049 31.5599 37.7157 26.8673 42.3615 22.2025C42.889 21.6722 42.8894 20.8184 42.3592 20.2936C41.8302 19.7701 40.9718 19.7733 40.4454 20.2989L28.9925 31.8138C28.5924 32.2159 28.0477 32.443 27.479 32.4445C26.9103 32.4457 26.3645 32.2216 25.9623 31.8216ZM41.059 49.7545C40.8286 49.7545 40.6388 49.9395 40.6388 50.1679V72.7148C40.6388 72.9441 40.8286 73.128 41.059 73.128H69.5666C69.7959 73.128 69.9818 72.943 69.9818 72.7148V50.1679C69.9818 49.9405 69.7959 49.7545 69.5666 49.7545H41.059ZM55.3128 51.6946C58.5443 51.6946 61.1639 54.3061 61.1639 57.5215C61.1639 59.2588 60.4053 60.8151 59.1967 61.8815V67.3233C59.1967 69.4529 57.4441 71.1878 55.3128 71.1878C53.1727 71.1878 51.4288 69.4529 51.4288 67.3233V61.8817C50.219 60.8153 49.4567 59.2586 49.4567 57.5215C49.4567 54.3067 52.0817 51.6946 55.3128 51.6946ZM55.3128 55.0969C53.9683 55.0969 52.876 56.1839 52.876 57.5215C52.876 58.3954 53.3402 59.1593 54.0358 59.5862C54.5406 59.8959 54.8482 60.444 54.8482 61.0341V67.3233C54.8482 67.578 55.0567 67.7855 55.3128 67.7855C55.5677 67.7855 55.7774 67.578 55.7774 67.3233V61.0341C55.7774 60.444 56.0847 59.8959 56.5897 59.5862C57.2849 59.1595 57.7446 58.395 57.7446 57.5215C57.7446 56.1844 56.6566 55.0969 55.3128 55.0969Z" fill="#0DB564"/>
</svg>
