<svg width="283" height="201" viewBox="0 0 283 201" fill="none" xmlns="http://www.w3.org/2000/svg">
<path d="M42.6519 136.528H2.76388V116.368L41.0679 63.664H73.3239V116.656H87.1479V136.672H73.3239V160H42.6519V136.528ZM42.6519 116.656V88.144L23.9319 116.656H42.6519ZM141.546 161.152C132.906 161.152 125.13 159.04 118.218 154.816C111.402 150.496 106.026 144.592 102.09 137.104C98.2501 129.52 96.3301 120.928 96.3301 111.328C96.3301 101.824 98.2501 93.328 102.09 85.84C106.026 78.256 111.402 72.352 118.218 68.128C125.13 63.808 132.906 61.648 141.546 61.648C150.09 61.648 157.77 63.808 164.586 68.128C171.498 72.352 176.874 78.256 180.714 85.84C184.65 93.424 186.618 101.92 186.618 111.328C186.618 120.832 184.698 129.376 180.858 136.96C177.018 144.544 171.642 150.496 164.73 154.816C157.914 159.04 150.186 161.152 141.546 161.152ZM141.546 137.248C144.426 137.248 147.018 136.144 149.322 133.936C151.722 131.632 153.594 128.512 154.938 124.576C156.282 120.64 156.954 116.224 156.954 111.328C156.954 103.744 155.514 97.552 152.634 92.752C149.754 87.952 146.058 85.552 141.546 85.552C136.842 85.552 133.05 87.952 130.17 92.752C127.386 97.456 125.994 103.648 125.994 111.328C125.994 118.912 127.434 125.152 130.314 130.048C133.29 134.848 137.034 137.248 141.546 137.248ZM233.902 136.528H194.014V116.368L232.318 63.664H264.574V116.656H278.398V136.672H264.574V160H233.902V136.528ZM233.902 116.656V88.144L215.182 116.656H233.902Z" fill="#295DC2"/>
<line x1="176.428" y1="54.0621" x2="102.428" y2="177.062" stroke="white" stroke-width="8"/>
</svg>
