<svg width="275" height="201" viewBox="0 0 275 201" fill="none" xmlns="http://www.w3.org/2000/svg">
<path d="M33.7986 161.872C29.3826 161.872 24.9186 161.392 20.4066 160.432C15.8946 159.568 11.2386 158.08 6.43863 155.968L11.0466 133.936C14.2146 135.472 17.6706 136.672 21.4146 137.536C25.1586 138.304 28.6626 138.688 31.9266 138.688C37.1106 138.688 40.9026 137.728 43.3026 135.808C45.7026 133.792 46.9026 131.056 46.9026 127.6C46.9026 124.528 45.9426 122.128 44.0226 120.4C42.1026 118.672 39.6066 117.808 36.5346 117.808C31.4466 117.808 26.9346 119.776 22.9986 123.712L7.44663 117.088L12.1986 60.928H68.7906L66.6306 82.528H33.7986L32.0706 100.384C34.3746 98.56 36.8706 97.264 39.5586 96.496C42.3426 95.728 44.9826 95.344 47.4786 95.344C54.0066 95.344 59.2866 96.736 63.3186 99.52C67.4466 102.304 70.4706 105.952 72.3906 110.464C74.3106 114.976 75.2706 119.824 75.2706 125.008C75.2706 133.36 73.5426 140.272 70.0866 145.744C66.6306 151.216 61.7826 155.296 55.5426 157.984C49.3986 160.576 42.1506 161.872 33.7986 161.872ZM128.101 161.152C119.365 161.152 111.589 158.992 104.773 154.672C97.9566 150.256 92.5806 144.208 88.6446 136.528C84.8046 128.752 82.8846 119.872 82.8846 109.888C82.8846 100 84.8046 91.216 88.6446 83.536C92.5806 75.856 97.9566 69.808 104.773 65.392C111.589 60.976 119.365 58.768 128.101 58.768C134.629 58.768 140.629 60.064 146.101 62.656C151.573 65.152 156.325 68.704 160.357 73.312C164.389 77.824 167.509 83.2 169.717 89.44C172.021 95.68 173.173 102.496 173.173 109.888C173.173 119.776 171.205 128.608 167.269 136.384C163.429 144.064 158.101 150.112 151.285 154.528C144.565 158.944 136.837 161.152 128.101 161.152ZM128.101 136.528C132.901 136.528 136.645 134.176 139.333 129.472C142.117 124.768 143.509 118.24 143.509 109.888C143.509 101.728 142.117 95.296 139.333 90.592C136.645 85.792 132.901 83.392 128.101 83.392C123.205 83.392 119.365 85.744 116.581 90.448C113.893 95.152 112.549 101.632 112.549 109.888C112.549 118.048 113.941 124.528 116.725 129.328C119.605 134.128 123.397 136.528 128.101 136.528ZM225.835 161.152C217.099 161.152 209.323 158.992 202.507 154.672C195.691 150.256 190.315 144.208 186.379 136.528C182.539 128.752 180.619 119.872 180.619 109.888C180.619 100 182.539 91.216 186.379 83.536C190.315 75.856 195.691 69.808 202.507 65.392C209.323 60.976 217.099 58.768 225.835 58.768C232.363 58.768 238.363 60.064 243.835 62.656C249.307 65.152 254.059 68.704 258.091 73.312C262.123 77.824 265.243 83.2 267.451 89.44C269.755 95.68 270.907 102.496 270.907 109.888C270.907 119.776 268.939 128.608 265.003 136.384C261.163 144.064 255.835 150.112 249.019 154.528C242.299 158.944 234.571 161.152 225.835 161.152ZM225.835 136.528C230.635 136.528 234.379 134.176 237.067 129.472C239.851 124.768 241.243 118.24 241.243 109.888C241.243 101.728 239.851 95.296 237.067 90.592C234.379 85.792 230.635 83.392 225.835 83.392C220.939 83.392 217.099 85.744 214.315 90.448C211.627 95.152 210.283 101.632 210.283 109.888C210.283 118.048 211.675 124.528 214.459 129.328C217.339 134.128 221.131 136.528 225.835 136.528Z" fill="#295DC2"/>
<line x1="164.428" y1="54.0621" x2="90.4275" y2="177.062" stroke="white" stroke-width="8"/>
<line x1="263.428" y1="54.0621" x2="189.428" y2="177.062" stroke="white" stroke-width="8"/>
</svg>
