<svg width="22" height="22" viewBox="0 0 22 22" fill="none" xmlns="http://www.w3.org/2000/svg">
<path d="M0.785742 17.5577C1.22005 17.5577 1.57148 17.2063 1.57148 16.772V15.9864V4.32597C1.57148 3.89282 1.92369 3.54023 2.35722 3.54023H14.8033C15.2376 3.54023 15.589 3.18841 15.589 2.75449C15.589 2.32057 15.2376 1.96875 14.8033 1.96875H2.35722C1.05738 1.96875 0 3.02613 0 4.32597V16.772C0 17.2063 0.351435 17.5577 0.785742 17.5577Z" fill="#CCCCCC"/>
<path d="M22 4.32043C22 3.45129 21.5219 2.69902 20.82 2.29028L21.769 1.34129C22.076 1.03436 22.076 0.537128 21.769 0.230198C21.4621 -0.0767326 20.9649 -0.0767326 20.6579 0.230198L0.230198 20.6576C-0.0767326 20.9645 -0.0767326 21.4617 0.230198 21.7687C0.383663 21.9221 0.584702 21.9988 0.785742 21.9988C0.986781 21.9988 1.18782 21.9221 1.34129 21.7687L3.07472 20.0353H19.6428C20.9426 20.0353 22 18.9779 22 17.678V4.32043ZM20.4285 17.678C20.4285 18.1116 20.0763 18.4638 19.6428 18.4638H4.64621L10.3936 12.7165L12.4077 15.561C12.545 15.7559 12.7637 15.8787 13.0016 15.8932C13.2371 15.9032 13.4719 15.8134 13.6315 15.6377L16.0317 12.9851L18.3775 16.2293C18.5309 16.4419 18.7711 16.5547 19.0151 16.5547C19.1747 16.5547 19.3358 16.5063 19.4747 16.4058C19.8262 16.1511 19.9052 15.66 19.6512 15.3085L16.7361 11.2774C16.5973 11.0852 16.3786 10.9659 16.1415 10.9532C15.909 10.9436 15.6749 11.0353 15.5161 11.2114L13.1297 13.8552L11.5218 11.5883L13.5964 9.51374C14.0657 9.97576 14.7053 10.2526 15.3918 10.2526C16.7998 10.2526 17.9454 9.10701 17.9454 7.69896C17.9454 7.01125 17.6679 6.37274 17.2041 5.90615L19.5756 3.53469H19.6428C20.0763 3.53469 20.4285 3.88727 20.4285 4.32043V17.678ZM16.0856 7.02458C16.2609 7.2027 16.374 7.43783 16.374 7.69896C16.374 8.2407 15.9335 8.68114 15.3918 8.68114C15.1311 8.68114 14.8948 8.5694 14.7144 8.39579L16.0856 7.02458Z" fill="#CCCCCC"/>
<path d="M8.10555 7.35938C7.84696 7.36284 7.60602 7.49367 7.46253 7.7089L4.87741 11.5824C4.6662 11.8989 4.72783 12.3036 4.98661 12.5632C5.02301 12.5997 5.05078 12.6426 5.09533 12.6723C5.22885 12.7614 5.38078 12.8043 5.5304 12.8043C5.78439 12.8043 6.033 12.6816 6.18493 12.4544L8.15159 9.50713C8.41939 9.7262 8.80842 9.75114 9.10461 9.54051C9.45835 9.28997 9.54275 8.79965 9.29184 8.44553L9.2141 8.33576L8.75778 7.69125C8.60815 7.47985 8.36414 7.35823 8.10555 7.35938Z" fill="#CCCCCC"/>
</svg>
