<svg width="145" height="98" viewBox="0 0 145 98" fill="none" xmlns="http://www.w3.org/2000/svg">
<path fill-rule="evenodd" clip-rule="evenodd" d="M133.115 7.13115H11.8852C9.25963 7.13115 7.13115 9.25963 7.13115 11.8852V85.5738C7.13115 88.1994 9.25963 90.3279 11.8852 90.3279H133.115C135.74 90.3279 137.869 88.1994 137.869 85.5738V11.8852C137.869 9.25963 135.74 7.13115 133.115 7.13115ZM11.8852 0C5.32121 0 0 5.32121 0 11.8852V85.5738C0 92.1378 5.32121 97.459 11.8852 97.459H133.115C139.679 97.459 145 92.1378 145 85.5738V11.8852C145 5.32121 139.679 0 133.115 0H11.8852Z" fill="#AFC6F3"/>
<path d="M4.75391 19.0157C4.75391 17.7029 5.81815 16.6387 7.13096 16.6387H137.869C139.181 16.6387 140.246 17.7029 140.246 19.0157V30.901C140.246 32.2138 139.181 33.278 137.869 33.278H7.13095C5.81815 33.278 4.75391 32.2138 4.75391 30.901V19.0157Z" fill="#AFC6F3"/>
<path d="M76.0664 42.7872C76.0664 41.4744 77.1306 40.4102 78.4435 40.4102C79.7563 40.4102 80.8205 41.4744 80.8205 42.7872V59.4266C80.8205 60.7394 79.7563 61.8036 78.4435 61.8036C77.1306 61.8036 76.0664 60.7394 76.0664 59.4266V42.7872Z" fill="#AFC6F3"/>
<path d="M83.1953 42.7872C83.1953 41.4744 84.2596 40.4102 85.5724 40.4102C86.8852 40.4102 87.9494 41.4744 87.9494 42.7872V59.4266C87.9494 60.7394 86.8852 61.8036 85.5724 61.8036C84.2596 61.8036 83.1953 60.7394 83.1953 59.4266V42.7872Z" fill="#AFC6F3"/>
<path d="M90.3281 42.7872C90.3281 41.4744 91.3924 40.4102 92.7052 40.4102H97.4593C98.7721 40.4102 99.8363 41.4744 99.8363 42.7872V59.4266C99.8363 60.7394 98.7721 61.8036 97.4593 61.8036H92.7052C91.3924 61.8036 90.3281 60.7394 90.3281 59.4266V42.7872Z" fill="#AFC6F3"/>
<path d="M102.215 41.5987C102.215 40.9423 102.747 40.4102 103.403 40.4102C104.06 40.4102 104.592 40.9423 104.592 41.5987V60.6151C104.592 61.2715 104.06 61.8036 103.403 61.8036C102.747 61.8036 102.215 61.2715 102.215 60.6151V41.5987Z" fill="#AFC6F3"/>
<path d="M106.969 41.5987C106.969 40.9423 107.501 40.4102 108.157 40.4102C108.814 40.4102 109.346 40.9423 109.346 41.5987V60.6151C109.346 61.2715 108.814 61.8036 108.157 61.8036C107.501 61.8036 106.969 61.2715 106.969 60.6151V41.5987Z" fill="#AFC6F3"/>
<path d="M128.359 41.5987C128.359 40.9423 128.891 40.4102 129.548 40.4102C130.204 40.4102 130.736 40.9423 130.736 41.5987V60.6151C130.736 61.2715 130.204 61.8036 129.548 61.8036C128.891 61.8036 128.359 61.2715 128.359 60.6151V41.5987Z" fill="#AFC6F3"/>
<path d="M111.723 42.7872C111.723 41.4744 112.787 40.4102 114.1 40.4102C115.413 40.4102 116.477 41.4744 116.477 42.7872V59.4266C116.477 60.7394 115.413 61.8036 114.1 61.8036C112.787 61.8036 111.723 60.7394 111.723 59.4266V42.7872Z" fill="#AFC6F3"/>
<path d="M118.852 42.7872C118.852 41.4744 119.916 40.4102 121.229 40.4102H123.606C124.918 40.4102 125.983 41.4744 125.983 42.7872V59.4266C125.983 60.7394 124.918 61.8036 123.606 61.8036H121.229C119.916 61.8036 118.852 60.7394 118.852 59.4266V42.7872Z" fill="#AFC6F3"/>
<path d="M14.2617 42.7872C14.2617 41.4744 15.326 40.4102 16.6388 40.4102H64.1797C65.4926 40.4102 66.5568 41.4744 66.5568 42.7872V45.1643C66.5568 46.4771 65.4926 47.5413 64.1797 47.5413H16.6388C15.326 47.5413 14.2617 46.4771 14.2617 45.1643V42.7872Z" fill="#AFC6F3"/>
<path d="M14.2617 57.0479C14.2617 55.7351 15.326 54.6709 16.6388 54.6709H64.1797C65.4926 54.6709 66.5568 55.7351 66.5568 57.0479V59.425C66.5568 60.7378 65.4926 61.802 64.1797 61.802H16.6388C15.326 61.802 14.2617 60.7378 14.2617 59.425V57.0479Z" fill="#AFC6F3"/>
</svg>
