<svg width="145" height="97" viewBox="0 0 145 97" fill="none" xmlns="http://www.w3.org/2000/svg">
<path fill-rule="evenodd" clip-rule="evenodd" d="M133.115 7.09756H11.8852C9.25963 7.09756 7.13115 9.21602 7.13115 11.8293V85.1707C7.13115 87.784 9.25963 89.9024 11.8852 89.9024H133.115C135.74 89.9024 137.869 87.784 137.869 85.1707V11.8293C137.869 9.21602 135.74 7.09756 133.115 7.09756ZM11.8852 0C5.32121 0 0 5.29614 0 11.8293V85.1707C0 91.7039 5.32121 97 11.8852 97H133.115C139.679 97 145 91.7039 145 85.1707V11.8293C145 5.29614 139.679 0 133.115 0H11.8852Z" fill="#AFC6F3"/>
<path d="M73.6875 42.5856C73.6875 41.279 74.7517 40.2197 76.0645 40.2197H111.72C113.033 40.2197 114.097 41.279 114.097 42.5856V44.9514C114.097 46.2581 113.033 47.3173 111.72 47.3173H76.0645C74.7517 47.3173 73.6875 46.2581 73.6875 44.9514V42.5856Z" fill="#AFC6F3"/>
<path d="M19.0156 21.2916C19.0156 19.985 20.0799 18.9258 21.3927 18.9258H123.606C124.919 18.9258 125.983 19.985 125.983 21.2916V23.6575C125.983 24.9641 124.919 26.0233 123.606 26.0233H21.3927C20.0799 26.0233 19.0156 24.9641 19.0156 23.6575V21.2916Z" fill="#AFC6F3"/>
<path d="M73.6875 56.7799C73.6875 55.4733 74.7517 54.4141 76.0645 54.4141H123.606C124.918 54.4141 125.983 55.4733 125.983 56.7799V59.1458C125.983 60.4524 124.918 61.5116 123.606 61.5116H76.0645C74.7517 61.5116 73.6875 60.4524 73.6875 59.1458V56.7799Z" fill="#AFC6F3"/>
<path d="M73.6875 70.9772C73.6875 69.6706 74.7517 68.6113 76.0645 68.6113H123.606C124.918 68.6113 125.983 69.6706 125.983 70.9772V73.343C125.983 74.6497 124.918 75.7089 123.606 75.7089H76.0645C74.7517 75.7089 73.6875 74.6497 73.6875 73.343V70.9772Z" fill="#AFC6F3"/>
<path fill-rule="evenodd" clip-rule="evenodd" d="M40.4103 53.198C44.4612 53.198 47.7452 49.9296 47.7452 45.8977C47.7452 41.8658 44.4612 38.5973 40.4103 38.5973C36.3593 38.5973 33.0754 41.8658 33.0754 45.8977C33.0754 49.9296 36.3593 53.198 40.4103 53.198ZM40.4103 58.6733C47.4994 58.6733 53.2463 52.9535 53.2463 45.8977C53.2463 38.8419 47.4994 33.1221 40.4103 33.1221C33.3211 33.1221 27.5742 38.8419 27.5742 45.8977C27.5742 52.9535 33.3211 58.6733 40.4103 58.6733Z" fill="#AFC6F3"/>
<path fill-rule="evenodd" clip-rule="evenodd" d="M26.7513 73.13H54.0668C55.2952 73.13 56.0891 72.5142 56.362 72.0929C56.4145 72.0118 56.4381 71.9554 56.4483 71.9239C56.4281 71.8763 56.3792 71.7865 56.2685 71.6531C52.4135 67.0022 46.7299 64.0967 40.4091 64.0967C34.0883 64.0967 28.4047 67.0022 24.5496 71.6531C24.439 71.7865 24.3901 71.8763 24.3698 71.9238C24.38 71.9554 24.4036 72.0118 24.4561 72.0929C24.729 72.5142 25.5229 73.13 26.7513 73.13ZM24.3626 71.8936C24.3627 71.8936 24.3632 71.8959 24.3635 71.9006C24.3626 71.8959 24.3624 71.8936 24.3626 71.8936ZM24.3618 71.9445C24.3601 71.9577 24.3578 71.9643 24.3571 71.9643C24.3564 71.9644 24.3573 71.9578 24.3618 71.9445ZM56.461 71.9643C56.4603 71.9643 56.458 71.9577 56.4563 71.9445C56.4609 71.9578 56.4617 71.9644 56.461 71.9643ZM56.4546 71.9006C56.455 71.896 56.4554 71.8937 56.4556 71.8936C56.4557 71.8936 56.4556 71.8959 56.4546 71.9006ZM26.7513 78.5499C20.88 78.5499 16.678 72.7229 20.4545 68.1669C25.2693 62.3582 32.4227 58.6768 40.4091 58.6768C48.3954 58.6768 55.5488 62.3582 60.3637 68.1669C64.1401 72.7229 59.9382 78.5499 54.0668 78.5499H26.7513Z" fill="#AFC6F3"/>
</svg>
