<svg width="40" height="40" viewBox="0 0 40 40" fill="none" xmlns="http://www.w3.org/2000/svg">
<path d="M22.6723 28.1818C22.2634 28.2199 21.8529 28.1277 21.4996 27.9181C21.2414 27.6531 21.1177 27.2853 21.1632 26.9181C21.1728 26.6125 21.2093 26.3083 21.2723 26.0091C21.3333 25.6658 21.4121 25.326 21.5086 24.9909L22.5814 21.2999C22.692 20.9356 22.7651 20.561 22.7996 20.1817C22.7996 19.7727 22.8541 19.4908 22.8541 19.3272C22.8769 18.5981 22.5656 17.8984 22.0086 17.4272C21.3236 16.9013 20.4704 16.6428 19.6086 16.6999C18.9911 16.7092 18.3782 16.8103 17.7904 16.9999C17.148 17.1999 16.4722 17.4393 15.7632 17.7181L15.4541 18.9181C15.6632 18.8454 15.9178 18.7636 16.2086 18.6727C16.4861 18.5905 16.7738 18.5476 17.0632 18.5454C17.4691 18.5014 17.8777 18.6011 18.2177 18.8272C18.4486 19.1028 18.557 19.4607 18.5177 19.8181C18.5167 20.1239 18.4832 20.4286 18.4177 20.7272C18.354 21.0454 18.2722 21.3817 18.1722 21.7363L17.0904 25.4453C17.0032 25.7901 16.9335 26.139 16.8814 26.4908C16.8389 26.792 16.8176 27.0957 16.8177 27.3999C16.8132 28.134 17.1489 28.8288 17.7268 29.2817C18.4224 29.8158 19.2877 30.0806 20.1631 30.0271C20.7795 30.0398 21.3938 29.9507 21.9813 29.7635C22.4964 29.5877 23.1843 29.3362 24.045 29.0089L24.3359 27.8635C24.1028 27.9602 23.8627 28.0392 23.6177 28.0998C23.3079 28.1706 22.9897 28.1981 22.6723 28.1818Z" fill="#295DC2"/>
<path d="M23.8092 10.6819C23.3145 10.2275 22.6626 9.98307 21.991 10.0001C21.3199 9.98495 20.6686 10.2292 20.1728 10.6819C19.2641 11.4655 19.1626 12.8374 19.9463 13.7463C20.0161 13.8273 20.0918 13.903 20.1728 13.9728C21.2081 14.8989 22.7739 14.8989 23.8092 13.9728C24.7179 13.1815 24.8131 11.8034 24.0218 10.8946C23.956 10.8189 23.8849 10.7478 23.8092 10.6819Z" fill="#295DC2"/>
<path d="M20 0C8.9543 0 0 8.9543 0 20C0 31.0457 8.9543 40 20 40C31.0457 40 40 31.0457 40 20C40 8.9543 31.0457 0 20 0ZM20 38.1818C9.95844 38.1818 1.8182 30.0416 1.8182 20C1.8182 9.95844 9.95844 1.8182 20 1.8182C30.0416 1.8182 38.1818 9.95844 38.1818 20C38.1818 30.0416 30.0416 38.1818 20 38.1818Z" fill="#295DC2"/>
</svg>
