<svg width="70" height="61" viewBox="0 0 70 61" fill="none" xmlns="http://www.w3.org/2000/svg">
<mask id="mask0_1244_12727" style="mask-type:luminance" maskUnits="userSpaceOnUse" x="30" y="33" width="10" height="9">
<path d="M35.0045 33.9258L39.0955 41.0365H30.9067L35.0045 33.9258Z" fill="white"/>
</mask>
<g mask="url(#mask0_1244_12727)">
<path d="M39.0955 33.9258H30.9067V41.0365H39.0955V33.9258Z" fill="url(#paint0_linear_1244_12727)"/>
</g>
<mask id="mask1_1244_12727" style="mask-type:luminance" maskUnits="userSpaceOnUse" x="35" y="33" width="5" height="9">
<path d="M35.0039 33.9258L39.095 41.0365H35.0039V33.9258Z" fill="white"/>
</mask>
<g mask="url(#mask1_1244_12727)">
<path d="M39.1016 33.9258H35.0039V41.0365H39.1016V33.9258Z" fill="url(#paint1_linear_1244_12727)"/>
</g>
<mask id="mask2_1244_12727" style="mask-type:luminance" maskUnits="userSpaceOnUse" x="13" y="45" width="23" height="16">
<path d="M13.8566 60.7516L35.0038 48.5836V45.7578H28.6377L20.2361 49.6796L13.4043 57.16L13.8566 60.7516Z" fill="white"/>
</mask>
<g mask="url(#mask2_1244_12727)">
<path d="M34.9972 45.7578H13.4043V60.745H34.9972V45.7578Z" fill="url(#paint2_linear_1244_12727)"/>
</g>
<mask id="mask3_1244_12727" style="mask-type:luminance" maskUnits="userSpaceOnUse" x="16" y="45" width="20" height="11">
<path d="M16.6104 55.9716L35.0036 45.7578H28.6374L20.2358 49.6796L16.6104 55.9716Z" fill="white"/>
</mask>
<g mask="url(#mask3_1244_12727)">
<path d="M34.9969 45.7578H16.6104V55.965H34.9969V45.7578Z" fill="url(#paint3_linear_1244_12727)"/>
</g>
<mask id="mask4_1244_12727" style="mask-type:luminance" maskUnits="userSpaceOnUse" x="35" y="45" width="22" height="16">
<path d="M56.1445 60.7516L35.0039 48.5836V45.7578H41.3634L49.765 49.6796L56.5968 57.16L56.1445 60.7516Z" fill="white"/>
</mask>
<g mask="url(#mask4_1244_12727)">
<path d="M56.5968 45.7578H35.0039V60.745H56.5968V45.7578Z" fill="url(#paint4_linear_1244_12727)"/>
</g>
<mask id="mask5_1244_12727" style="mask-type:luminance" maskUnits="userSpaceOnUse" x="35" y="45" width="19" height="11">
<path d="M53.3905 55.9716L35.0039 45.7578H41.3634L49.765 49.6796L53.3905 55.9716Z" fill="white"/>
</mask>
<g mask="url(#mask5_1244_12727)">
<path d="M53.3905 45.7578H35.0039V55.965H53.3905V45.7578Z" fill="url(#paint5_linear_1244_12727)"/>
</g>
<mask id="mask6_1244_12727" style="mask-type:luminance" maskUnits="userSpaceOnUse" x="0" y="0" width="36" height="61">
<path d="M35.0036 24.0522L13.8564 60.7477H0L35.0036 0V24.0522Z" fill="white"/>
</mask>
<g mask="url(#mask6_1244_12727)">
<path d="M35.0036 0H0V60.7477H35.0036V0Z" fill="url(#paint6_linear_1244_12727)"/>
</g>
<mask id="mask7_1244_12727" style="mask-type:luminance" maskUnits="userSpaceOnUse" x="35" y="0" width="35" height="61">
<path d="M35.0029 24.0522L56.1435 60.7477H69.9999L35.0029 0V24.0522Z" fill="white"/>
</mask>
<g mask="url(#mask7_1244_12727)">
<path d="M70.0066 0H35.0029V60.7477H70.0066V0Z" fill="#295DC2"/>
</g>
<defs>
<linearGradient id="paint0_linear_1244_12727" x1="38.0378" y1="39.3991" x2="29.143" y2="33.6869" gradientUnits="userSpaceOnUse">
<stop stop-color="#000003"/>
<stop offset="1" stop-color="#868685"/>
</linearGradient>
<linearGradient id="paint1_linear_1244_12727" x1="35.1636" y1="37.4778" x2="39.4475" y2="37.4778" gradientUnits="userSpaceOnUse">
<stop stop-color="#000003"/>
<stop offset="1" stop-color="#868685"/>
</linearGradient>
<linearGradient id="paint2_linear_1244_12727" x1="32.8951" y1="57.6485" x2="9.41319" y2="45.5951" gradientUnits="userSpaceOnUse">
<stop stop-color="#000003"/>
<stop offset="1" stop-color="#868685"/>
</linearGradient>
<linearGradient id="paint3_linear_1244_12727" x1="17.3421" y1="50.868" x2="36.5868" y2="50.868" gradientUnits="userSpaceOnUse">
<stop stop-color="#000003"/>
<stop offset="1" stop-color="#868685"/>
</linearGradient>
<linearGradient id="paint4_linear_1244_12727" x1="55.732" y1="53.258" x2="33.1347" y2="53.258" gradientUnits="userSpaceOnUse">
<stop stop-color="#000003"/>
<stop offset="1" stop-color="#868685"/>
</linearGradient>
<linearGradient id="paint5_linear_1244_12727" x1="36.341" y1="54.0437" x2="56.3607" y2="45.8242" gradientUnits="userSpaceOnUse">
<stop stop-color="#000003"/>
<stop offset="1" stop-color="#868685"/>
</linearGradient>
<linearGradient id="paint6_linear_1244_12727" x1="1.3903" y1="30.3706" x2="38.0171" y2="30.3706" gradientUnits="userSpaceOnUse">
<stop stop-color="#000003"/>
<stop offset="1" stop-color="#868685"/>
</linearGradient>
</defs>
</svg>
