<svg width="89" height="77" viewBox="0 0 89 77" fill="none" xmlns="http://www.w3.org/2000/svg">
    <mask id="mask0_9714_27318" style="mask-type:luminance" maskUnits="userSpaceOnUse" x="38" y="42" width="12" height="10">
        <path d="M44.0643 42.7026L49.2143 51.6538H38.9059L44.0643 42.7026Z" fill="white"/>
    </mask>
    <g mask="url(#mask0_9714_27318)">
        <path d="M49.2143 42.7026H38.9059V51.6538H49.2143V42.7026Z" fill="url(#paint0_linear_9714_27318)"/>
    </g>
    <mask id="mask1_9714_27318" style="mask-type:luminance" maskUnits="userSpaceOnUse" x="44" y="42" width="6" height="10">
        <path d="M44.0633 42.7026L49.2133 51.6538H44.0633V42.7026Z" fill="white"/>
    </mask>
    <g mask="url(#mask1_9714_27318)">
        <path d="M49.2216 42.7026H44.0633V51.6538H49.2216V42.7026Z" fill="url(#paint1_linear_9714_27318)"/>
    </g>
    <mask id="mask2_9714_27318" style="mask-type:luminance" maskUnits="userSpaceOnUse" x="16" y="57" width="29" height="20">
        <path d="M17.4431 76.4714L44.0639 61.1539V57.5967H36.0501L25.4738 62.5335L16.8737 71.9501L17.4431 76.4714Z" fill="white"/>
    </mask>
    <g mask="url(#mask2_9714_27318)">
        <path d="M44.0555 57.5967H16.8737V76.4631H44.0555V57.5967Z" fill="url(#paint2_linear_9714_27318)"/>
    </g>
    <mask id="mask3_9714_27318" style="mask-type:luminance" maskUnits="userSpaceOnUse" x="20" y="57" width="25" height="14">
        <path d="M20.9101 70.4541L44.0641 57.5967H36.0502L25.4739 62.5335L20.9101 70.4541Z" fill="white"/>
    </mask>
    <g mask="url(#mask3_9714_27318)">
        <path d="M44.0557 57.5967H20.9101V70.4458H44.0557V57.5967Z" fill="url(#paint3_linear_9714_27318)"/>
    </g>
    <mask id="mask4_9714_27318" style="mask-type:luminance" maskUnits="userSpaceOnUse" x="44" y="57" width="28" height="20">
        <path d="M70.6757 76.4714L44.0633 61.1539V57.5967H52.0688L62.6451 62.5335L71.2451 71.9501L70.6757 76.4714Z" fill="white"/>
    </mask>
    <g mask="url(#mask4_9714_27318)">
        <path d="M71.2451 57.5967H44.0633V76.4631H71.2451V57.5967Z" fill="url(#paint4_linear_9714_27318)"/>
    </g>
    <mask id="mask5_9714_27318" style="mask-type:luminance" maskUnits="userSpaceOnUse" x="44" y="57" width="24" height="14">
        <path d="M67.2089 70.4541L44.0633 57.5967H52.0688L62.6451 62.5335L67.2089 70.4541Z" fill="white"/>
    </mask>
    <g mask="url(#mask5_9714_27318)">
        <path d="M67.2089 57.5967H44.0633V70.4458H67.2089V57.5967Z" fill="url(#paint5_linear_9714_27318)"/>
    </g>
    <mask id="mask6_9714_27318" style="mask-type:luminance" maskUnits="userSpaceOnUse" x="0" y="0" width="45" height="77">
        <path d="M44.0637 30.2776L17.4429 76.4712H0L44.0637 0V30.2776Z" fill="white"/>
    </mask>
    <g mask="url(#mask6_9714_27318)">
        <path d="M44.0637 0H0V76.4712H44.0637V0Z" fill="url(#paint6_linear_9714_27318)"/>
    </g>
    <mask id="mask7_9714_27318" style="mask-type:luminance" maskUnits="userSpaceOnUse" x="44" y="0" width="45" height="77">
        <path d="M44.063 30.2776L70.6754 76.4712H88.1184L44.063 0V30.2776Z" fill="white"/>
    </mask>
    <g mask="url(#mask7_9714_27318)">
        <path d="M88.1267 0H44.063V76.4712H88.1267V0Z" fill="#295DC2"/>
    </g>
    <defs>
        <linearGradient id="paint0_linear_9714_27318" x1="47.8828" y1="49.5926" x2="36.6856" y2="42.4019" gradientUnits="userSpaceOnUse">
            <stop stop-color="#000003"/>
            <stop offset="1" stop-color="#868685"/>
        </linearGradient>
        <linearGradient id="paint1_linear_9714_27318" x1="44.2643" y1="47.1741" x2="49.6571" y2="47.1741" gradientUnits="userSpaceOnUse">
            <stop stop-color="#000003"/>
            <stop offset="1" stop-color="#868685"/>
        </linearGradient>
        <linearGradient id="paint2_linear_9714_27318" x1="41.4094" y1="72.5651" x2="11.8496" y2="57.3918" gradientUnits="userSpaceOnUse">
            <stop stop-color="#000003"/>
            <stop offset="1" stop-color="#868685"/>
        </linearGradient>
        <linearGradient id="paint3_linear_9714_27318" x1="21.8312" y1="64.0295" x2="46.0571" y2="64.0295" gradientUnits="userSpaceOnUse">
            <stop stop-color="#000003"/>
            <stop offset="1" stop-color="#868685"/>
        </linearGradient>
        <linearGradient id="paint4_linear_9714_27318" x1="70.1565" y1="67.0382" x2="41.7102" y2="67.0382" gradientUnits="userSpaceOnUse">
            <stop stop-color="#000003"/>
            <stop offset="1" stop-color="#868685"/>
        </linearGradient>
        <linearGradient id="paint5_linear_9714_27318" x1="45.7465" y1="68.0272" x2="70.9479" y2="57.6803" gradientUnits="userSpaceOnUse">
            <stop stop-color="#000003"/>
            <stop offset="1" stop-color="#868685"/>
        </linearGradient>
        <linearGradient id="paint6_linear_9714_27318" x1="1.75015" y1="38.2314" x2="47.8571" y2="38.2314" gradientUnits="userSpaceOnUse">
            <stop stop-color="#000003"/>
            <stop offset="1" stop-color="#868685"/>
        </linearGradient>
    </defs>
</svg>
