<svg width="13" height="15" viewBox="0 0 13 15" fill="none" xmlns="http://www.w3.org/2000/svg">
<path fill-rule="evenodd" clip-rule="evenodd" d="M11.9354 5.59498L3.46538 0.341333C2.76739 -0.090839 1.88661 -0.114719 1.16724 0.281659C0.446799 0.678038 -9.53674e-07 1.43103 -9.53674e-07 2.24765V12.7524C-9.53674e-07 13.569 0.446799 14.322 1.16724 14.7183C1.88661 15.1147 2.76739 15.0908 3.46538 14.6587L11.9354 9.40502C12.5981 8.99538 13 8.2742 13 7.5C13 6.7258 12.5981 6.00462 11.9354 5.59498ZM11.1348 6.86633C11.355 7.00287 11.4886 7.24282 11.4886 7.5C11.4886 7.75718 11.355 7.99713 11.1348 8.13367L2.66371 13.386C2.43175 13.5305 2.13888 13.5385 1.89944 13.4059C1.66001 13.2746 1.51143 13.0241 1.51143 12.7524V2.24765C1.51143 1.97588 1.66001 1.72535 1.89944 1.59411C2.13888 1.46154 2.43175 1.46948 2.66371 1.61397L11.1348 6.86633Z" fill="white"/>
</svg>
