<svg width="40" height="40" viewBox="0 0 40 40" fill="none" xmlns="http://www.w3.org/2000/svg">
<circle cx="20" cy="20" r="20" fill="#E5EDFD"/>
<path d="M25 17C25 15.6739 24.4732 14.4021 23.5355 13.4645C22.5979 12.5268 21.3261 12 20 12C18.6739 12 17.4021 12.5268 16.4645 13.4645C15.5268 14.4021 15 15.6739 15 17C15 17.2652 15.1054 17.5196 15.2929 17.7071C15.4804 17.8946 15.7348 18 16 18C16.2652 18 16.5196 17.8946 16.7071 17.7071C16.8946 17.5196 17 17.2652 17 17C17 16.4067 17.1759 15.8266 17.5056 15.3333C17.8352 14.8399 18.3038 14.4554 18.8519 14.2284C19.4001 14.0013 20.0033 13.9419 20.5853 14.0576C21.1672 14.1734 21.7018 14.4591 22.1213 14.8787C22.5409 15.2982 22.8266 15.8328 22.9424 16.4147C23.0581 16.9967 22.9987 17.5999 22.7716 18.1481C22.5446 18.6962 22.1601 19.1648 21.6667 19.4944C21.1734 19.8241 20.5933 20 20 20C19.7348 20 19.4804 20.1054 19.2929 20.2929C19.1054 20.4804 19 20.7348 19 21V23C19 23.2652 19.1054 23.5196 19.2929 23.7071C19.4804 23.8946 19.7348 24 20 24C20.2652 24 20.5196 23.8946 20.7071 23.7071C20.8946 23.5196 21 23.2652 21 23V21.9C22.1294 21.6695 23.1444 21.0558 23.8733 20.1629C24.6022 19.27 25.0002 18.1527 25 17Z" fill="#AFC6F3"/>
<path d="M20 28C20.5523 28 21 27.5523 21 27C21 26.4477 20.5523 26 20 26C19.4477 26 19 26.4477 19 27C19 27.5523 19.4477 28 20 28Z" fill="#AFC6F3"/>
</svg>
