<svg width="50" height="40" viewBox="0 0 50 40" fill="none" xmlns="http://www.w3.org/2000/svg">
<path d="M26.5625 22.6686V37.8132C26.5625 38.6758 25.8629 39.375 25 39.375C24.1371 39.375 23.4375 38.6758 23.4375 37.8132V22.6685L19.2558 26.8486C18.9507 27.1535 18.5508 27.3061 18.151 27.3061C17.7512 27.3061 17.3513 27.1535 17.0462 26.8486C16.4359 26.2387 16.4359 25.2497 17.0462 24.6399L23.8952 17.7937C24.1882 17.5007 24.5856 17.3362 25 17.3362C25.4144 17.3362 25.8118 17.5007 26.1048 17.7937L32.9539 24.6399C33.5642 25.2497 33.5642 26.2387 32.9539 26.8486C32.3438 27.4585 31.3544 27.4585 30.7442 26.8486L26.5625 22.6686ZM47.5378 16.3532C46.1551 14.6526 44.2884 13.3964 42.216 12.7576C40.56 9.03399 36.8417 6.58661 32.7126 6.58661C32.4428 6.58661 32.1725 6.59715 31.9028 6.61814C30.8596 4.81355 29.4031 3.27691 27.6414 2.13199C25.4952 0.737279 23.0023 0 20.4323 0C13.2232 0 7.34102 5.78793 7.19141 12.9588C5.30498 13.6606 3.62207 14.8803 2.36504 16.4745C0.839942 18.4088 0 20.8214 0 23.2678C0 29.3291 4.9334 34.2604 10.9974 34.2604H17.9873C18.8502 34.2604 19.5498 33.5612 19.5498 32.6986C19.5498 31.836 18.8502 31.1368 17.9873 31.1368H10.9974C6.65654 31.1368 3.125 27.6067 3.125 23.2678C3.125 19.6839 5.65957 16.4673 9.15166 15.6194C9.89385 15.4392 10.397 14.7491 10.3412 13.9877C10.3229 13.7368 10.3135 13.4847 10.3135 13.238C10.3135 7.66095 14.8527 3.12365 20.4323 3.12365C24.3498 3.12365 27.9517 5.41856 29.6082 8.97025C29.9112 9.61967 30.6175 9.97929 31.3213 9.8436C31.7786 9.75516 32.2468 9.71026 32.7127 9.71026C35.801 9.71026 38.5606 11.667 39.5798 14.5794C39.7579 15.0886 40.1864 15.4699 40.7131 15.5878C44.2836 16.3873 46.875 19.6171 46.875 23.2678C46.875 27.6067 43.3435 31.1368 39.0026 31.1368H32.0127C31.1498 31.1368 30.4502 31.836 30.4502 32.6986C30.4502 33.5612 31.1498 34.2604 32.0127 34.2604H39.0026C45.0666 34.2604 50 29.329 50 23.2678C50 20.7617 49.1256 18.3062 47.5378 16.3532Z" fill="#AFC6F3"/>
</svg>
