<svg width="51" height="48" viewBox="0 0 51 48" fill="none" xmlns="http://www.w3.org/2000/svg">
<g clip-path="url(#clip0_2106_71)">
<path d="M48.5147 28.0116C46.8245 25.5264 44.5378 23.5384 41.854 22.3454C43.842 20.6552 45.2345 18.3684 45.5323 15.7839C45.9302 13.1001 45.2345 10.4155 43.6435 8.228C42.0525 6.04054 39.6666 4.54975 36.9828 4.05252C34.299 3.55529 31.6143 4.05252 29.3276 5.44404C28.4333 4.05252 27.1401 2.76026 25.6493 1.86506C24.1586 0.870598 22.3691 0.274101 20.5796 0.0755729C18.7901 -0.122956 16.9013 0.0755729 15.2111 0.572805C13.5209 1.07004 11.8307 2.06359 10.5384 3.25658C9.24615 4.44958 8.15242 5.94036 7.45666 7.63059C6.7609 9.32081 6.4622 11.1103 6.56237 12.8005C6.66164 14.59 7.15887 16.2802 8.05316 17.8703C8.84818 19.3611 9.94191 20.6542 11.3334 21.6478C8.05316 23.0393 5.16994 25.326 3.18101 28.3085C1.09373 31.3921 0 34.8718 0 38.5501C0 40.0408 0.596496 42.2283 3.57898 44.0178C6.85925 46.0058 12.6257 47.1988 18.8884 47.1988C25.1512 47.1988 30.3211 46.1051 33.7016 44.2163H34.6961C37.1813 44.2163 45.433 43.9185 49.2105 40.4388C49.807 39.9416 50.205 39.4443 50.5028 38.7486C50.8006 38.0528 51 37.3571 51 36.6613C51 33.5796 50.205 30.5971 48.5147 28.0126V28.0116ZM32.3101 40.8359C29.3276 42.6254 24.2578 43.5196 18.9886 43.5196C13.7194 43.5196 8.55039 42.6254 5.56791 40.8359C4.27565 40.0408 3.57989 39.2449 3.57989 38.3506C3.57989 34.8709 4.77288 31.4914 7.0596 28.8067C9.34633 26.1229 12.4281 24.3334 15.9078 23.6367C17.8958 24.134 19.984 24.134 21.8728 23.6367C25.3525 24.3325 28.5335 26.122 30.7209 28.8067C33.0077 31.4905 34.2007 34.8709 34.2007 38.3506C34.2007 39.2449 33.6042 40.0408 32.3119 40.8359H32.3101ZM26.9416 15.386C26.2458 16.9769 25.2514 18.1699 23.7606 19.1635C22.2698 20.1579 20.5796 20.6542 18.8894 20.6542C17.1991 20.6542 14.3159 19.76 12.6266 18.169C10.9364 16.578 10.0421 14.3915 10.0421 12.1048C10.0421 9.81805 10.5393 8.72432 11.5329 7.3328C12.5273 5.94127 13.9189 4.84755 15.5098 4.15178C17.1008 3.55529 18.8903 3.35676 20.5796 3.65455C22.2698 3.95234 23.8599 4.84755 25.0529 6.04054C26.2458 7.23353 27.1401 8.72432 27.4388 10.4145C27.8368 12.1048 27.6374 13.795 26.9416 15.385V15.386ZM27.5381 21.9474C27.2403 21.7489 26.9416 21.6496 26.5436 21.4502C26.6429 21.4502 26.7422 21.3509 26.8414 21.2517C27.04 21.4502 27.2394 21.7489 27.5372 21.9474H27.5381ZM30.8421 8.70975C32.0351 7.91472 33.4038 7.53223 34.8946 7.53223C36.3854 7.53223 37.2806 7.83003 38.3743 8.42652C39.468 9.02302 40.3623 9.81805 40.9588 10.8125C41.5553 11.807 41.9533 13 42.0525 14.193C42.0525 15.386 41.854 16.5789 41.2575 17.5734C40.7603 18.6671 39.866 19.5614 38.8715 20.1579C37.8771 20.8537 36.6841 21.2517 35.4911 21.3509C34.2981 21.4502 33.0058 21.3509 31.9121 20.7544C30.8184 20.2572 29.9241 19.5614 29.2283 18.6671C30.2228 17.1764 30.9186 15.5854 31.1171 13.7959C31.4149 12.1057 31.3393 10.4 30.8421 8.71066V8.70975ZM31.6143 24.7314C31.8128 24.7314 32.1115 24.6321 32.3101 24.5328C33.2044 24.7314 34.0003 24.8306 34.8946 24.8306C35.7889 24.8306 36.5848 24.7314 37.3798 24.5328C40.2631 25.1293 42.8476 26.6201 44.6371 28.8076C46.5258 30.995 47.5203 33.7781 47.5203 36.562C47.5203 36.7606 47.3218 37.3571 47.2225 37.4563L46.9247 37.7541C45.4339 39.1456 41.8549 40.2394 37.48 40.5381C37.7778 39.8423 37.9772 39.0473 37.9772 38.3506C37.9772 35.7661 37.3808 33.0814 36.287 30.6954C35.1933 28.4087 33.7025 26.3214 31.7136 24.6312L31.6143 24.7305V24.7314Z" fill="#295DC2"/>
</g>
<defs>
<clipPath id="clip0_2106_71">
<rect width="51" height="47.1988" fill="white"/>
</clipPath>
</defs>
</svg>
