<svg width="45" height="47" viewBox="0 0 45 47" fill="none" xmlns="http://www.w3.org/2000/svg">
<g clip-path="url(#clip0_2106_76)">
<path fill-rule="evenodd" clip-rule="evenodd" d="M22.499 -0.000976562C16.2921 -0.000976562 11.2417 5.09246 11.2417 11.3516C11.2417 12.7604 11.4885 14.113 11.9802 15.3686C12.3046 16.2019 13.2361 16.6133 14.0616 16.2986V16.3027L14.0815 16.2948C14.9138 15.9638 15.325 15.0141 14.996 14.1741C14.6552 13.3006 14.4827 12.3533 14.4827 11.3536C14.4827 6.89576 18.0784 3.26925 22.499 3.26925C26.9196 3.26925 30.5152 6.89576 30.5152 11.3536C30.5152 12.3552 30.337 13.3277 29.9825 14.242L29.9825 14.2421C29.6575 15.084 30.0725 16.0298 30.9048 16.3588L30.9049 16.3589C31.0987 16.4332 31.2945 16.4705 31.4924 16.4705C32.1406 16.4705 32.7536 16.0749 33.0023 15.4286C33.5036 14.1324 33.7563 12.7624 33.7563 11.3536C33.7582 5.09245 28.7059 -0.000976562 22.499 -0.000976562Z" fill="#295DC2"/>
<path d="M24.5756 8.37449L21.4278 11.5477L20.4224 10.5346C19.7936 9.90188 18.7786 9.90188 18.1518 10.5346C17.523 11.1673 17.523 12.192 18.1518 12.8247L20.2924 14.9848C20.6049 15.3011 21.0163 15.4603 21.4278 15.4603C21.8392 15.4603 22.2506 15.3011 22.5631 14.9848L26.8463 10.6646C27.4751 10.0339 27.4751 9.00718 26.8463 8.37449C26.2175 7.74179 25.2025 7.74179 24.5756 8.37449Z" fill="#295DC2" stroke="#295DC2" stroke-width="0.15" stroke-miterlimit="10"/>
<path d="M43.3794 19.4544C42.4906 19.4544 41.7725 20.1803 41.7725 21.075V22.4083H39.7988C39.1797 22.4083 38.58 22.2919 38.0094 22.0609L33.4817 20.2346C31.5836 19.47 29.4895 19.4583 27.5837 20.2094L23.2287 21.9212L17.1639 19.9571C15.3881 19.3826 13.4571 19.4525 11.7259 20.1492L6.9944 22.059C6.42188 22.2899 5.81831 22.4064 5.20116 22.4064H3.22742V21.073C3.22742 20.1783 2.50935 19.4525 1.62048 19.4525C0.731625 19.4525 0.0135498 20.1803 0.0135498 21.073V38.8914C0.0135498 39.7861 0.731625 40.5119 1.62048 40.5119C2.50935 40.5119 3.22742 39.7861 3.22742 38.8914V38.6042H4.29871C5.33507 38.6042 6.35978 38.9496 7.19042 39.5784L13.1369 44.0752C15.6618 45.985 18.7301 46.9864 21.8294 46.9864C23.2171 46.9864 24.6105 46.7846 25.9632 46.377L31.5118 44.6982C32.7849 44.312 33.8077 43.396 34.3996 42.216L37.8134 39.5959C38.6479 38.9554 39.6823 38.6042 40.7303 38.6042H41.7764V38.8914C41.7764 39.7861 42.4945 40.5119 43.3833 40.5119C44.2722 40.5119 44.9903 39.7861 44.9903 38.8914V21.073C44.9903 20.1783 44.2722 19.4525 43.3833 19.4525L43.3794 19.4544ZM31.6438 40.5663C31.4749 41.069 31.0887 41.4416 30.5861 41.593L25.0375 43.2717C21.6315 44.3042 17.9053 43.6327 15.0601 41.4823L9.11369 36.9855C7.73188 35.9414 6.02015 35.365 4.29483 35.365H3.22354V25.6455H5.19727C6.22587 25.6455 7.22923 25.4515 8.18408 25.0652L12.9156 23.1555C13.9539 22.7344 15.1125 22.6936 16.178 23.0391L18.4778 23.7824L16.8864 24.4073C15.6715 24.9507 14.7574 25.9464 14.3091 27.2079C13.8627 28.4694 13.9403 29.824 14.5361 31.0215C15.8655 33.6998 18.9921 35.0098 21.8159 34.0627L26.7026 32.4189L31.4342 39.101C31.7369 39.5319 31.8165 40.0656 31.6457 40.5643L31.6438 40.5663ZM40.7265 35.365C38.9798 35.365 37.2564 35.9511 35.8649 37.0185L34.5025 38.0627C34.3725 37.7716 34.2327 37.4824 34.0445 37.2184L28.624 29.564C28.2145 28.9856 27.4809 28.7469 26.8094 28.9682L20.797 30.9905C19.4831 31.4349 18.0256 30.8216 17.4084 29.5737C17.2105 29.1758 17.1833 28.7236 17.3327 28.3044C17.4841 27.8833 17.7869 27.5533 18.1226 27.3981L28.7482 23.2234C29.8913 22.777 31.1469 22.7829 32.2862 23.239L36.812 25.0652C37.7629 25.4495 38.7663 25.6436 39.7949 25.6436H41.7686V35.363H40.7226L40.7265 35.365Z" fill="#295DC2" stroke="#295DC2" stroke-width="0.15" stroke-miterlimit="10"/>
</g>
<defs>
<clipPath id="clip0_2106_76">
<rect width="45" height="47" fill="white"/>
</clipPath>
</defs>
</svg>
