<svg width="39" height="49" viewBox="0 0 39 49" fill="none" xmlns="http://www.w3.org/2000/svg">
<g clip-path="url(#clip0_2106_63)">
<path fill-rule="evenodd" clip-rule="evenodd" d="M38 13.1L26.6 1.1C26.3 0.7 25.8 0.5 25.3 0.5H7.3C3.6 0.5 0.5 3.6 0.5 7.3V41.6C0.5 45.4 3.6 48.4 7.3 48.4H31.7C35.4 48.4 38.5 45.3 38.5 41.6V14.4C38.5 13.9 38.3 13.4 38 13.1ZM27.2 7.1L32.3 12.5H29.1C28.1 12.5 27.2 11.7 27.2 10.6V7.1ZM34.7 41.6C34.7 43.3 33.4 44.8 31.7 44.8H7.3C5.6 44.8 4.2 43.4 4.2 41.7V7.3C4.2 5.6 5.6 4.2 7.3 4.2H23.4V10.5C23.4 13.6 25.9 16.2 29 16.2H34.7V41.6Z" fill="#295DC2"/>
<path d="M30.5 38.9C30.5 39.9 29.7 40.8 28.6 40.8H10.3C9.30002 40.8 8.40002 40 8.40002 38.9C8.40002 37.8 9.20002 37 10.3 37H28.6C29.6 37 30.5 37.8 30.5 38.9Z" fill="#295DC2"/>
<path d="M27.9 24.9C27.9 25.4 27.7 25.9 27.3 26.3C26.9 26.6 26.5 26.8 26 26.8C25.5 26.8 25 26.6 24.7 26.2L21.4 22.6V32.9C21.4 33.9 20.6 34.8 19.5 34.8C18.4 34.8 17.6 34 17.6 32.9V22.6L14.3 26.2C13.6 26.9 12.4 27 11.7 26.2C11 25.5 10.9 24.3 11.6 23.6L18.1 16.5C18.4 16.1 18.9 15.9 19.5 15.9C20.1 15.9 20.5 16.1 20.9 16.5L27.4 23.6C27.7 24 27.9 24.4 27.9 24.9Z" fill="#295DC2"/>
</g>
<defs>
<clipPath id="clip0_2106_63">
<rect width="39" height="49" fill="white"/>
</clipPath>
</defs>
</svg>
