<svg width="66" height="47" viewBox="0 0 66 47" fill="none" xmlns="http://www.w3.org/2000/svg">
<g clip-path="url(#clip0_2106_84)">
<path d="M9.83161 19.8319C8.7442 19.8319 7.85547 20.7185 7.85547 21.8059C7.85547 22.8933 8.74206 23.7799 9.83161 23.7799C10.9212 23.7799 11.8077 22.8933 11.8077 21.8059C11.8077 20.7185 10.9212 19.8319 9.83161 19.8319Z" fill="#295DC2"/>
<path d="M47.6794 10.7865C47.3546 10.7865 47.032 10.795 46.7116 10.8121C45.528 8.55186 43.3255 4.35391 43.3255 4.35391C41.892 1.62791 39.2172 0 36.175 0H15.3241C12.2841 0 9.6115 1.62577 8.17586 4.34964C7.332 5.94977 2.63627 14.6918 2.17055 15.5698C0.794727 17.029 0.00640909 18.9923 0.00427273 21.1628L0 34.6326C0 37.3265 2.19405 39.5185 4.888 39.5185H10.8185C13.5146 39.5185 15.7065 37.3265 15.7065 34.6326V31.6203H29.7617C31.082 40.3153 38.6126 46.9979 47.6772 46.9979C57.669 46.9979 65.7979 38.8754 65.7979 28.8922C65.7979 18.909 57.669 10.7865 47.6772 10.7865H47.6794ZM11.5876 6.14632C12.3567 4.68932 13.7176 3.85186 15.3263 3.85186H36.1772C37.7859 3.85186 39.1489 4.68932 39.9158 6.14845C39.9158 6.14845 41.7467 9.63073 42.7145 11.4787C42.1312 11.6453 41.5608 11.8397 41.0032 12.0619C34.6817 10.8442 27.3497 10.5494 25.7731 10.5494C19.1568 10.5494 12.8652 11.295 8.178 12.5896C8.507 11.985 10.7438 7.74645 11.5876 6.14845V6.14632ZM11.8547 34.6326C11.8547 35.1923 11.3804 35.6645 10.8207 35.6645H4.89014C4.33041 35.6645 3.85614 35.1923 3.85614 34.6326V30.4923C5.05891 31.2272 6.43473 31.6203 7.86396 31.6203H11.8547V34.6326ZM7.86182 27.7685C6.83423 27.7685 5.85364 27.354 5.10377 26.6041C4.29623 25.7966 3.854 24.7113 3.854 23.5491L3.85827 21.1671C3.86041 19.364 4.81323 17.8942 6.40268 17.2383C10.7117 15.4609 17.9519 14.3991 25.771 14.3991C27.4822 14.3991 31.6139 14.6085 35.8888 15.1532C34.3314 16.4885 33.0025 18.0843 31.9707 19.8703H17.734C16.67 19.8703 15.807 20.7334 15.807 21.7973C15.807 22.8612 16.67 23.7243 17.734 23.7243H30.3107C29.924 25.019 29.6784 26.3713 29.5929 27.7685H7.86182ZM47.6794 43.1481C39.8133 43.1481 33.4149 36.754 33.4149 28.8943C33.4149 21.0346 39.8133 14.6405 47.6794 14.6405C55.5455 14.6405 61.9439 21.0346 61.9439 28.8943C61.9439 36.754 55.5455 43.1481 47.6794 43.1481Z" fill="#295DC2"/>
<path d="M50.1298 21.7033C50.1298 22.7672 49.2667 23.6303 48.2028 23.6303C47.1388 23.6303 46.2758 22.7672 46.2758 21.7033C46.2758 20.6394 47.1388 19.7763 48.2028 19.7763C49.2667 19.7763 50.1298 20.6394 50.1298 21.7033Z" fill="#295DC2"/>
<path d="M52.1871 33.6456C52.1871 34.7095 51.3241 35.5705 50.2601 35.5705H46.1348C45.0709 35.5705 44.21 34.7095 44.21 33.6456C44.21 32.5817 45.0709 31.7186 46.1348 31.7186H46.2737V28.7555C45.3038 28.6572 44.5454 27.8368 44.5454 26.8391C44.5454 25.7752 45.4085 24.9121 46.4724 24.9121H48.2028C49.2667 24.9121 50.1298 25.7752 50.1298 26.8391V31.7186H50.2601C51.3241 31.7186 52.1871 32.5817 52.1871 33.6456Z" fill="#295DC2"/>
</g>
<defs>
<clipPath id="clip0_2106_84">
<rect width="65.8" height="47" fill="white"/>
</clipPath>
</defs>
</svg>
