<svg width="35" height="47" viewBox="0 0 35 47" fill="none" xmlns="http://www.w3.org/2000/svg">
<g clip-path="url(#clip0_2106_90)">
<path d="M30.4311 6.06954H29.2153V4.76871C29.2153 2.14357 27.1626 0 24.6464 0H4.56889C2.05265 0 0 2.14357 0 4.76871V36.1618C0 38.7957 2.05265 40.9305 4.56889 40.9305H5.78474V42.2313C5.78474 44.8564 7.83739 47 10.3536 47H30.4311C32.9503 47 35 44.8564 35 42.2313V10.8382C35 8.2043 32.9474 6.06954 30.4311 6.06954ZM4.56889 37.4332C3.90703 37.4332 3.37346 36.8665 3.37346 36.1618V4.76871C3.37346 4.06398 3.90703 3.49725 4.56889 3.49725H24.6464C25.3082 3.49725 25.8418 4.06398 25.8418 4.76871V36.1618C25.8418 36.8665 25.3082 37.4332 24.6464 37.4332H4.56889ZM31.6265 42.2313C31.6265 42.936 31.093 43.5027 30.4311 43.5027H10.3536C9.69177 43.5027 9.1582 42.936 9.1582 42.2313V40.9305H24.6464C27.1655 40.9305 29.2153 38.7957 29.2153 36.1618V9.56679H30.4311C31.093 9.56679 31.6265 10.1335 31.6265 10.8382V42.2313Z" fill="#295DC2"/>
<path d="M23.5201 8.76871H23.5111V12.0885C23.5111 13.0691 22.7404 13.8698 21.7808 13.8698C21.112 13.8698 20.5302 13.4799 20.2394 12.9102L17.4084 15.8611C16.7487 16.5508 15.5971 16.5508 14.9373 15.8611L12.7062 13.5399L9.49738 16.8807C9.1765 17.2195 8.73867 17.4115 8.26784 17.4115C7.79702 17.4115 7.36818 17.2225 7.03831 16.8807C6.36956 16.1909 6.36956 15.0604 7.03831 14.3706L11.4796 9.74935C12.1304 9.0596 13.291 9.0596 13.9387 9.74935L16.1699 12.0705L17.8103 10.3611C17.2495 10.0702 16.8596 9.46145 16.8596 8.77171C16.8596 7.78208 17.6393 6.98138 18.599 6.98138H21.7778C22.7374 6.98138 23.5171 7.78208 23.5171 8.77171L23.5201 8.76871Z" fill="#295DC2"/>
<path d="M23.5082 22.6085C23.5082 23.5892 22.7375 24.3899 21.7778 24.3899H8.27088C7.31124 24.3899 6.54053 23.5892 6.54053 22.6085C6.54053 21.6279 7.31124 20.8182 8.27088 20.8182H21.7808C22.7405 20.8182 23.5112 21.6189 23.5112 22.6085H23.5082Z" fill="#295DC2"/>
<path d="M23.5082 27.7486C23.5082 28.7382 22.7375 29.5389 21.7778 29.5389H8.27088C7.31124 29.5389 6.54053 28.7382 6.54053 27.7486C6.54053 26.759 7.31124 25.9673 8.27088 25.9673H21.7808C22.7405 25.9673 23.5112 26.768 23.5112 27.7486H23.5082Z" fill="#295DC2"/>
<path d="M19.5197 32.8887C19.5197 33.8783 18.74 34.679 17.7893 34.679H8.27088C7.31124 34.679 6.54053 33.8783 6.54053 32.8887C6.54053 31.899 7.31124 31.1073 8.27088 31.1073H17.7893C18.74 31.1073 19.5197 31.908 19.5197 32.8887Z" fill="#295DC2"/>
</g>
<defs>
<clipPath id="clip0_2106_90">
<rect width="35" height="47" fill="white"/>
</clipPath>
</defs>
</svg>
