<svg width="38" height="49" viewBox="0 0 38 49" fill="none" xmlns="http://www.w3.org/2000/svg">
<g clip-path="url(#clip0_2106_96)">
<path d="M35.4696 4.5603C34.4568 3.54175 33.1084 2.96882 31.6732 2.96882H29.5956V2.74312C29.5956 1.31369 28.4439 0.144684 27.0203 0.144684H10.2201C8.79648 0.144684 7.63326 1.31369 7.63326 2.74312V2.96882H5.55566C2.59263 2.96882 0.185164 5.39944 0.185164 8.39141L0.144653 43.4212C0.144653 44.868 0.706009 46.2395 1.71876 47.2581C2.73152 48.2824 4.07993 48.8553 5.51515 48.8553H31.6327C34.5957 48.8553 37.0089 46.4247 37.0089 43.4327L37.0437 8.40298C37.0437 6.95619 36.4881 5.58463 35.4696 4.5603ZM10.9319 3.46073H26.3085V5.79297H10.9319V3.46073ZM33.7218 43.4327C33.7218 44.596 32.7727 45.5393 31.6327 45.5393H5.51515C4.96537 45.5393 4.43295 45.3194 4.03942 44.92C3.64589 44.5265 3.43177 43.9941 3.43177 43.4212L3.47228 8.39141C3.47228 7.22818 4.41559 6.28487 5.55566 6.28487H7.63326V6.51057C7.63326 7.94579 8.79648 9.10902 10.2201 9.10902H27.0203C28.4439 9.10902 29.5956 7.94579 29.5956 6.51057V6.28487H31.6732C32.223 6.28487 32.7554 6.499 33.1489 6.9041C33.5424 7.3092 33.7623 7.83005 33.7623 8.40298L33.7218 43.4327Z" fill="#295DC2" stroke="#295DC2" stroke-width="0.5"/>
<path d="M30.8514 36.6502C30.8514 37.6456 30.0528 38.45 29.0632 38.45H19.0688C18.0791 38.45 17.2805 37.6456 17.2805 36.6502C17.2805 35.6548 18.0791 34.8446 19.0688 34.8446H29.0632C30.0528 34.8446 30.8514 35.6548 30.8514 36.6502Z" fill="#295DC2"/>
<path d="M15.3707 35.7879L11.1519 40.053C10.822 40.3887 10.3706 40.5739 9.87868 40.5739C9.38677 40.5739 8.93537 40.3829 8.61129 40.053L6.86356 38.2822C6.16332 37.5819 6.16332 36.4418 6.86356 35.7358C7.19922 35.3944 7.65062 35.2034 8.13096 35.2034C8.61129 35.2034 9.06269 35.3944 9.39835 35.7358L9.87868 36.2219L12.8359 33.2473C13.1716 32.9059 13.6172 32.7149 14.0917 32.7149C14.5721 32.7149 15.0235 32.9001 15.3649 33.2415C16.0652 33.9534 16.0652 35.0934 15.3649 35.7879H15.3707Z" fill="#295DC2"/>
<path d="M15.3707 26.3722L11.1519 30.6315C10.822 30.973 10.3706 31.1581 9.87868 31.1581C9.38677 31.1581 8.93537 30.9672 8.61129 30.6315L6.86356 28.8606C6.16332 28.1662 6.16332 27.0261 6.86356 26.3143C7.19922 25.9728 7.65062 25.7877 8.13096 25.7877C8.61129 25.7877 9.06269 25.9728 9.39835 26.3143L9.87868 26.8062L12.8359 23.8258C13.1716 23.4901 13.6172 23.2992 14.0917 23.2992C14.5721 23.2992 15.0235 23.4844 15.3649 23.8258C16.0652 24.5318 16.0652 25.6777 15.3649 26.3722H15.3707Z" fill="#295DC2"/>
<path d="M30.8167 27.2344C30.8167 28.224 30.0065 29.0342 29.0169 29.0342H19.0688C18.0791 29.0342 17.2805 28.224 17.2805 27.2344C17.2805 26.2448 18.0791 25.4288 19.0688 25.4288H29.0169C30.0065 25.4288 30.8167 26.239 30.8167 27.2344Z" fill="#295DC2"/>
<path d="M30.8167 17.8187C30.8167 18.8083 30.0065 19.6185 29.0169 19.6185H19.0688C18.0791 19.6185 17.2805 18.8083 17.2805 17.8187C17.2805 16.8291 18.0791 16.0131 19.0688 16.0131H29.0169C30.0065 16.0131 30.8167 16.8233 30.8167 17.8187Z" fill="#295DC2"/>
<path d="M15.3708 16.2388L11.1519 20.4982C10.8163 20.8338 10.3533 21.0248 9.87874 21.0248C9.40419 21.0248 8.947 20.8338 8.61135 20.4982L6.86362 18.7273C6.16916 18.027 6.16916 16.8812 6.86362 16.1809C7.18191 15.8453 7.64489 15.6543 8.12522 15.6543C8.60556 15.6543 9.05696 15.8395 9.3984 16.1809L9.87874 16.6671L12.836 13.6925C13.1716 13.351 13.6173 13.1658 14.0918 13.16C14.5721 13.16 15.0235 13.351 15.365 13.6925C16.0594 14.3927 16.0594 15.5328 15.365 16.2388H15.3708Z" fill="#295DC2"/>
</g>
<defs>
<clipPath id="clip0_2106_96">
<rect width="37.1884" height="49" fill="white"/>
</clipPath>
</defs>
</svg>
