<svg width="57" height="65" viewBox="0 0 57 65" fill="none" xmlns="http://www.w3.org/2000/svg">
<g clip-path="url(#clip0_2105_52)">
<path d="M45.2196 59.984C44.9612 59.984 44.7152 59.8858 44.5307 59.7019C44.3461 59.5179 44.2477 59.2726 44.2477 59.0151V50.0745H35.3162C35.0579 50.0745 34.8118 49.9764 34.6273 49.7924C34.4428 49.6085 34.3444 49.3632 34.3444 49.1057C34.3444 48.8481 34.4428 48.6028 34.6273 48.4189C34.8118 48.2349 35.0579 48.1368 35.3162 48.1368H44.2477V39.1962C44.2477 38.9387 44.3461 38.6811 44.5307 38.4972C44.7152 38.3132 44.9612 38.2151 45.2196 38.2151C45.4779 38.2151 45.724 38.3132 45.9085 38.4972C46.093 38.6811 46.1915 38.9264 46.1915 39.184V48.1245H55.1229C55.3813 48.1245 55.6273 48.2226 55.8118 48.4066C55.9964 48.5906 56.0948 48.8358 56.0948 49.0934C56.0948 49.3509 55.9964 49.5962 55.8118 49.7802C55.6273 49.9641 55.3813 50.0623 55.1229 50.0623H46.1915V59.0028C46.1915 59.2604 46.093 59.5179 45.9085 59.7019C45.724 59.8858 45.4779 59.984 45.2196 59.984Z" fill="#F9FBFF" stroke="#F9FBFF" stroke-miterlimit="10"/>
<path d="M6.70122 64.3868C5.05271 64.3868 3.50262 63.6387 2.45693 62.3142C1.69419 61.333 1.31282 60.0944 1.32512 58.8557C1.36202 52.4906 3.57644 46.4076 7.6977 41.4406C10.9824 37.4915 15.3989 34.634 20.2583 32.9293L22.0545 32.3038L20.246 31.151C18.7205 30.1821 17.2935 29.0293 16.1494 27.6434C11.9912 22.5783 11.2654 15.8576 13.8119 10.2651C15.4481 6.65945 18.3392 3.76511 21.9314 2.10945C24.0966 1.11605 26.3972 0.61322 28.7715 0.61322C30.3339 0.61322 31.8963 0.833975 33.3972 1.27548C37.1986 2.39152 40.471 4.84435 42.5993 8.1802C44.7399 11.5161 45.601 15.5142 45.0351 19.4387C44.4692 23.3632 42.5009 26.9444 39.4991 29.5321C36.522 32.1076 32.7082 33.5302 28.7715 33.5302C21.9191 33.5302 15.5343 36.1915 10.7364 40.9991C5.93847 45.8066 3.28118 52.1962 3.28118 58.9906C3.28118 59.9104 3.63795 60.7689 4.28997 61.4189C4.94199 62.0689 5.80315 62.4245 6.71352 62.4245H28.7223C28.9807 62.4245 29.2267 62.5227 29.4112 62.7066C29.5958 62.8906 29.6942 63.1359 29.6942 63.3934C29.6942 63.651 29.5958 63.9085 29.4112 64.0925C29.2267 64.2764 28.9807 64.3745 28.7223 64.3745H6.70122V64.3868ZM28.71 2.6736C26.8031 2.6736 24.9455 3.04152 23.1863 3.77737C20.5413 4.88114 18.3023 6.72077 16.703 9.10001C15.116 11.4793 14.2671 14.2632 14.2671 17.1208C14.2671 20.984 15.768 24.6019 18.4991 27.3368C21.2302 30.0717 24.8471 31.5679 28.71 31.5802C31.5764 31.5802 34.3568 30.734 36.7311 29.1396C39.1177 27.5453 40.9508 25.301 42.0457 22.6519C43.1406 20.0028 43.4235 17.1208 42.8699 14.3C42.3163 11.4915 40.9508 8.92832 38.9209 6.90473C36.891 4.88115 34.3321 3.50756 31.5272 2.94341C30.6046 2.75945 29.6573 2.66133 28.71 2.66133V2.6736Z" fill="#F9FBFF" stroke="#F9FBFF" stroke-miterlimit="10"/>
</g>
<defs>
<clipPath id="clip0_2105_52">
<rect width="56" height="65" fill="white" transform="translate(0.709961)"/>
</clipPath>
</defs>
</svg>
