<svg width="66" height="65" viewBox="0 0 66 65" fill="none" xmlns="http://www.w3.org/2000/svg">
<g clip-path="url(#clip0_2105_23)">
<path d="M45.1989 46.1372L45.199 46.1375L45.2097 46.1333C45.3645 46.0738 45.5167 45.9868 45.6467 45.8568L47.16 44.3436V59.28C47.16 60.7419 45.9719 61.93 44.51 61.93H6.41996C4.95803 61.93 3.76996 60.7419 3.76996 59.28V5.71C3.76996 4.24807 4.95803 3.06 6.41996 3.06H35.73V13.33C35.73 13.9563 36.2401 14.48 36.88 14.48H47.15V30.3065L38.6232 38.8432C38.6231 38.8433 38.6231 38.8433 38.6231 38.8433C38.5017 38.9648 38.3967 39.1177 38.3419 39.2935L35.6528 47.3709C35.6528 47.371 35.6528 47.371 35.6528 47.371C35.5124 47.7923 35.6274 48.251 35.9332 48.5568C36.1526 48.7762 36.4474 48.89 36.75 48.89C36.8822 48.89 37.0091 48.8638 37.1189 48.8272C37.119 48.8272 37.119 48.8272 37.119 48.8272L45.1989 46.1372ZM47.17 11.43V12.18H38.05V3.82135L38.1192 3.06H39.01C39.3181 3.06 40.2281 3.06166 41.0032 3.83678L46.3932 9.22678C47.1701 10.0037 47.17 10.8815 47.17 11.4189V11.43ZM1.45996 59.29C1.45996 62.0281 3.68189 64.25 6.41996 64.25H44.51C47.248 64.25 49.47 62.0281 49.47 59.29V42.0435L63.4967 28.0068C64.4335 27.07 64.95 25.8264 64.95 24.5C64.95 23.1736 64.4335 21.93 63.4967 20.9932C62.5599 20.0564 61.3164 19.54 59.99 19.54C58.6635 19.54 57.42 20.0564 56.4832 20.9932L49.47 28.0064V11.1C49.47 9.77357 48.9535 8.53002 48.0167 7.59322L42.6267 2.20322C41.6899 1.26643 40.4464 0.75 39.12 0.75H6.41996C3.68189 0.75 1.45996 2.97193 1.45996 5.71V59.29ZM44.215 44.0414L38.5849 45.9151L40.4585 40.285L42.14 38.6036L45.8964 42.36L44.215 44.0414ZM57.7465 30.5001L47.5299 40.7264L43.7734 36.9699L53.99 26.7436L57.7465 30.5001ZM58.1167 22.6168C58.6201 22.1135 59.2766 21.84 59.99 21.84H60C60.7036 21.84 61.3697 22.1136 61.8726 22.6162C62.9062 23.6592 62.9051 25.3414 61.8732 26.3732L59.38 28.8664L55.6235 25.11L58.1167 22.6168Z" fill="#F9FBFF" stroke="#F9FBFF" stroke-width="0.5"/>
<path d="M9.07996 20.95C9.07996 21.5763 9.59008 22.1 10.23 22.1H36.89C37.518 22.1 38.04 21.5781 38.04 20.95C38.04 20.3237 37.5298 19.8 36.89 19.8H10.23C9.60189 19.8 9.07996 20.3219 9.07996 20.95Z" fill="#F9FBFF" stroke="#F9FBFF" stroke-width="0.5"/>
<path d="M9.07996 28.57C9.07996 29.1962 9.59008 29.72 10.23 29.72H29.27C29.898 29.72 30.42 29.1981 30.42 28.57C30.42 27.9437 29.9098 27.42 29.27 27.42H10.23C9.60189 27.42 9.07996 27.9419 9.07996 28.57Z" fill="#F9FBFF" stroke="#F9FBFF" stroke-width="0.5"/>
<path d="M9.07996 36.18C9.07996 36.8063 9.59008 37.33 10.23 37.33H29.27C29.898 37.33 30.42 36.8081 30.42 36.18C30.42 35.5538 29.9098 35.03 29.27 35.03H10.23C9.60189 35.03 9.07996 35.552 9.07996 36.18Z" fill="#F9FBFF" stroke="#F9FBFF" stroke-width="0.5"/>
<path d="M9.07996 43.8C9.07996 44.4263 9.59008 44.95 10.23 44.95H29.27C29.898 44.95 30.42 44.4281 30.42 43.8C30.42 43.1738 29.9098 42.65 29.27 42.65H10.23C9.60189 42.65 9.07996 43.1719 9.07996 43.8Z" fill="#F9FBFF" stroke="#F9FBFF" stroke-width="0.5"/>
<path d="M24.3199 55.48C24.3199 56.1063 24.8301 56.63 25.4699 56.63H36.8999C37.528 56.63 38.0499 56.1081 38.0499 55.48C38.0499 54.8538 37.5398 54.33 36.8999 54.33H25.4699C24.8419 54.33 24.3199 54.8519 24.3199 55.48Z" fill="#F9FBFF" stroke="#F9FBFF" stroke-width="0.5"/>
</g>
<defs>
<clipPath id="clip0_2105_23">
<rect width="65" height="65" fill="white" transform="translate(0.709961)"/>
</clipPath>
</defs>
</svg>
