<svg width="87" height="65" viewBox="0 0 87 65" fill="none" xmlns="http://www.w3.org/2000/svg">
<g clip-path="url(#clip0_2088_2)">
<path d="M73.78 64C71.95 64 70.47 62.51 70.47 60.69V57.86H39V60.69C39 62.52 37.51 64 35.69 64H32.52C30.69 64 29.21 62.51 29.21 60.69V41.57H29.37V40.97L29.4 40.95L32.51 37.95H26.38C24.99 37.95 23.86 36.82 23.86 35.43V34.08C23.86 33.79 23.92 33.49 24.03 33.19L24.52 31.85H16.15V34.69C16.15 36.52 14.66 38 12.84 38H9.67C7.84 38 6.36 36.51 6.36 34.69V15.56H6.52V14.95L9.66 11.93H3.51C2.12 11.93 1 10.8 1 9.42V8.07C1 6.68 2.13 5.55 3.51 5.55H5.47C6.35 5.55 7.15 5.99 7.6 6.72L10.29 11.02L13.47 3.18C14.02 1.86 15.31 1 16.73 1H46.98C48.43 1 49.71 1.86 50.24 3.18L53.49 11.15L56.24 6.71C56.7 5.98 57.49 5.54 58.37 5.54H60.31C61.7 5.54 62.82 6.67 62.82 8.05V9.4C62.82 10.79 61.69 11.92 60.31 11.92H54.04L57.29 15.06C57.29 15.06 57.37 15.14 57.37 15.26V27.01H69.8C71.25 27.01 72.53 27.87 73.06 29.19L76.31 37.15L79.06 32.73C79.52 32 80.32 31.56 81.19 31.56H83.13C84.51 31.56 85.66 32.7 85.71 34.11V35.42C85.71 36.81 84.58 37.94 83.19 37.94H76.92L80.17 41.08C80.17 41.08 80.25 41.16 80.25 41.28V60.68C80.25 62.51 78.76 63.99 76.94 63.99H73.77L73.78 64ZM70.87 60.72C70.87 62.27 72.13 63.54 73.69 63.54H76.86C78.41 63.54 79.69 62.28 79.71 60.72V57.07H78.29L78.09 57.27L78.05 57.3L77.52 57.56V57.6L77.16 57.74H77.05L76.93 57.8L76.68 57.85H76.61C76.61 57.85 76.35 57.88 76.33 57.88C76.31 57.88 70.87 57.88 70.87 57.88V60.72ZM29.61 60.71C29.61 62.26 30.87 63.53 32.43 63.53H35.6C37.15 63.53 38.42 62.27 38.42 60.71V59.71H38.4V57.89H32.98C32.91 57.89 32.86 57.89 32.82 57.88L32.78 57.84H32.51L32.45 57.77H32.15L32 57.7H31.93L31.83 57.65L31.75 57.61L31.62 57.48V57.11L30.6 57.09H29.6V60.7L29.61 60.71ZM47.49 51.67C46.84 51.67 46.22 51.98 45.83 52.5L45.2 53.36C44.95 53.66 44.8 54.13 44.8 54.59V57.37H64.56V54.59C64.56 54.14 64.42 53.72 64.16 53.36L63.53 52.51C63.17 51.99 62.54 51.67 61.86 51.67H47.49ZM29.61 48.21L30.43 55.07C30.46 55.28 30.49 55.43 30.54 55.58C30.79 56.33 31.35 56.92 32.08 57.2C32.36 57.31 32.67 57.37 33.01 57.37H44.29V54.59C44.29 54.05 44.48 53.5 44.8 53.06L45.43 52.21C45.91 51.56 46.69 51.16 47.5 51.16H61.87C62.67 51.16 63.45 51.55 63.95 52.21L64.57 53.05C64.91 53.49 65.09 54.03 65.09 54.59V56.37L66.09 57.35H76.27C77.07 57.35 77.84 56.98 78.33 56.36C78.62 55.98 78.81 55.53 78.86 55.07L79.68 48.21V42.05L74.89 48.68C74.43 49.32 73.7 49.7 72.91 49.7H69.74C68.96 49.7 68.23 49.33 67.78 48.71L65.61 45.75H43.66L41.49 48.7C41.04 49.32 40.3 49.7 39.53 49.7H36.36C35.58 49.7 34.84 49.32 34.39 48.68L29.61 42.03V48.21ZM66.16 45.65L68.19 48.42C68.54 48.91 69.13 49.21 69.76 49.21H72.93C73.54 49.21 74.14 48.9 74.51 48.39L79.32 41.69L66.16 45.65ZM34.79 48.37C35.12 48.87 35.72 49.18 36.36 49.18H39.53C40.16 49.18 40.75 48.88 41.11 48.38L43.13 45.62L32.78 42.51L29.98 41.68L34.79 48.37ZM29.83 41.16L43.57 45.24H65.71L79.46 41.14L76.15 37.96H33.19L29.83 41.16ZM6.81 34.68C6.81 36.23 8.07 37.5 9.63 37.5H12.8C14.35 37.5 15.62 36.24 15.62 34.68V31.86H10.19C10.12 31.86 10.07 31.85 10.02 31.85L9.98 31.81H9.71L9.65 31.74H9.36L9.21 31.67H9.14L9.02 31.62L8.96 31.59L8.83 31.46V31.09L7.81 31.07H6.81V34.68ZM81.19 32.05C80.51 32.05 79.86 32.41 79.48 32.99L76.7 37.44H83.13C84.24 37.44 85.15 36.53 85.15 35.42V34.07C85.15 32.95 84.24 32.05 83.13 32.05H81.19ZM39.55 27.5C38.32 27.5 37.22 28.24 36.75 29.39L33.45 37.45H75.89L72.59 29.39C72.12 28.24 71.02 27.51 69.79 27.51H39.54L39.55 27.5ZM26.34 32.05C25.23 32.05 24.32 32.96 24.32 34.07V35.42C24.32 36.54 25.23 37.44 26.34 37.44H32.77L30 33C29.64 32.41 28.99 32.04 28.29 32.04H26.35L26.34 32.05ZM33.09 37.05L35.2 31.84H29.86L33.09 37.05ZM21.96 28.57V31.37H35.39L36.27 29.2C36.56 28.49 37.08 27.89 37.73 27.51L40.72 25.77C40.86 25.89 40.99 26.03 41.1 26.18L41.71 27H56.26L56.84 22.18V16L52.07 22.64C51.61 23.28 50.88 23.66 50.09 23.66H46.92C46.14 23.66 45.41 23.29 44.96 22.67L42.79 19.71H20.84L18.67 22.66C18.22 23.28 17.48 23.65 16.71 23.65H13.54C12.76 23.65 12.02 23.27 11.57 22.63L6.79 15.98V22.18L7.61 29.04C7.64 29.24 7.67 29.39 7.72 29.55C7.97 30.3 8.53 30.89 9.26 31.17C9.54 31.28 9.86 31.34 10.19 31.34H21.48V28.56C21.48 28.02 21.67 27.47 21.99 27.03L22.62 26.18C23.1 25.53 23.87 25.13 24.67 25.12H39.03C39.59 25.12 40.13 25.31 40.58 25.65H24.68C24.03 25.65 23.41 25.96 23.01 26.48L22.38 27.34C22.32 27.41 22.27 27.49 22.23 27.57H21.98L21.96 28.57ZM43.36 19.62L45.39 22.39C45.74 22.88 46.33 23.18 46.96 23.18H50.13C50.74 23.18 51.34 22.87 51.71 22.37L56.52 15.67L43.36 19.63V19.62ZM11.98 22.35C12.31 22.85 12.91 23.16 13.55 23.16H16.72C17.35 23.16 17.94 22.86 18.3 22.36L20.32 19.6L9.97 16.49L7.17 15.66L11.97 22.34L11.98 22.35ZM7.05 15.14L20.77 19.22H42.9L56.64 15.12L53.34 11.92H10.36L7.04 15.14H7.05ZM58.39 6.03C57.71 6.03 57.06 6.39 56.68 6.97L53.9 11.42H60.33C61.44 11.42 62.35 10.51 62.35 9.4V8.05C62.35 6.94 61.44 6.03 60.33 6.03H58.39ZM16.73 1.48C15.5 1.48 14.4 2.22 13.93 3.37L10.65 11.43H53.05L49.75 3.37C49.28 2.22 48.18 1.48 46.95 1.48H16.72H16.73ZM3.51 6.03C2.4 6.03 1.49 6.94 1.49 8.05V9.4C1.49 10.51 2.4 11.42 3.51 11.42H9.94L7.17 6.98C6.81 6.39 6.16 6.02 5.46 6.02H3.52L3.51 6.03Z" fill="#295DC2" stroke="#295DC2" stroke-width="2" stroke-linejoin="round"/>
</g>
<defs>
<clipPath id="clip0_2088_2">
<rect width="86.71" height="65" fill="white"/>
</clipPath>
</defs>
</svg>
