<svg width="66" height="65" viewBox="0 0 66 65" fill="none" xmlns="http://www.w3.org/2000/svg">
<g clip-path="url(#clip0_2091_13)">
<path d="M1.45996 63.1C1.45996 63.728 1.98189 64.25 2.60996 64.25H63.79C64.4162 64.25 64.94 63.7398 64.94 63.1V39.99C64.94 39.3637 64.4298 38.84 63.79 38.84H40.94C40.3137 38.84 39.79 39.3501 39.79 39.99V46.45H26.74V39.99C26.74 39.3637 26.2298 38.84 25.59 38.84H2.60996C1.9837 38.84 1.45996 39.3501 1.45996 39.99V63.1ZM62.65 41.14V61.94H3.76996V41.14H24.45V47.6C24.45 48.2262 24.9601 48.75 25.6 48.75H40.96C41.5862 48.75 42.11 48.2398 42.11 47.6V41.14H62.65Z" fill="#295DC2" stroke="#295DC2" stroke-width="0.5"/>
<path d="M51.23 39.99C51.23 40.6163 51.7401 41.14 52.38 41.14C53.0063 41.14 53.53 40.6299 53.53 39.99V9.52C53.53 8.89373 53.0199 8.37 52.38 8.37H14.17C13.5438 8.37 13.02 8.88012 13.02 9.52V39.99C13.02 40.6181 13.5419 41.14 14.17 41.14C14.7963 41.14 15.32 40.6299 15.32 39.99V10.68H51.23V39.99Z" fill="#295DC2" stroke="#295DC2" stroke-width="0.5"/>
<path d="M48.57 10.68H48.6735L48.6887 10.6648C49.2657 10.6099 49.73 10.1225 49.73 9.52V1.9C49.73 1.27374 49.2198 0.75 48.58 0.75H17.98C17.3537 0.75 16.83 1.26013 16.83 1.9V9.52C16.83 10.1481 17.3519 10.67 17.98 10.67C18.6062 10.67 19.13 10.1599 19.13 9.52V3.06H47.42V9.53C47.42 10.1563 47.9301 10.68 48.57 10.68Z" fill="#295DC2" stroke="#295DC2" stroke-width="0.5"/>
<path d="M2.61 41.14H2.86V41.0925C3.14529 41.0288 3.39876 40.8576 3.56673 40.6106L3.56674 40.6106L3.56799 40.6087L10.8438 29.7H14.16C14.7881 29.7 15.31 29.1781 15.31 28.55C15.31 27.9238 14.7999 27.4 14.16 27.4H10.22C9.83585 27.4 9.47904 27.5921 9.26327 27.9094L9.26326 27.9094L9.26199 27.9113L1.64199 39.3413L1.64198 39.3413L1.64039 39.3438C1.47596 39.5968 1.41124 39.9037 1.47526 40.211C1.53808 40.5125 1.71465 40.7807 1.97254 40.9488C2.16444 41.0764 2.3825 41.14 2.61 41.14Z" fill="#295DC2" stroke="#295DC2" stroke-width="0.5"/>
<path d="M57.1579 27.9312L57.158 27.9312L57.1567 27.9294C56.941 27.6121 56.5841 27.42 56.2 27.42H52.39C51.7619 27.42 51.24 27.9419 51.24 28.57C51.24 29.1962 51.7501 29.72 52.39 29.72H55.5762L62.8508 40.6269C63.0599 40.9519 63.4311 41.14 63.81 41.14H63.82C64.0478 41.14 64.2661 41.0762 64.4581 40.9484C64.9828 40.6023 65.1351 39.887 64.778 39.3513L64.7779 39.3512L57.1579 27.9312Z" fill="#295DC2" stroke="#295DC2" stroke-width="0.5"/>
<path d="M20.63 17.14C20.63 17.7663 21.1401 18.29 21.78 18.29H44.76C45.3881 18.29 45.91 17.7681 45.91 17.14C45.91 16.5137 45.3999 15.99 44.76 15.99H21.78C21.1519 15.99 20.63 16.5119 20.63 17.14Z" fill="#295DC2" stroke="#295DC2" stroke-width="0.5"/>
<path d="M20.63 24.76C20.63 25.3862 21.1401 25.91 21.78 25.91H44.76C45.3881 25.91 45.91 25.3881 45.91 24.76C45.91 24.1337 45.3999 23.61 44.76 23.61H21.78C21.1519 23.61 20.63 24.1319 20.63 24.76Z" fill="#295DC2" stroke="#295DC2" stroke-width="0.5"/>
<path d="M20.63 32.38C20.63 33.0062 21.1401 33.53 21.78 33.53H37.14C37.7681 33.53 38.29 33.0081 38.29 32.38C38.29 31.7537 37.7799 31.23 37.14 31.23H21.78C21.1519 31.23 20.63 31.7519 20.63 32.38Z" fill="#295DC2" stroke="#295DC2" stroke-width="0.5"/>
</g>
<defs>
<clipPath id="clip0_2091_13">
<rect width="65" height="65" fill="white" transform="translate(0.709961)"/>
</clipPath>
</defs>
</svg>
