<svg width="77" height="65" viewBox="0 0 77 65" fill="none" xmlns="http://www.w3.org/2000/svg">
<g clip-path="url(#clip0_2103_10)">
<mask id="mask0_2103_10" style="mask-type:luminance" maskUnits="userSpaceOnUse" x="0" y="0" width="77" height="65">
<path d="M76.71 0H0.709961V65H76.71V0Z" fill="white"/>
</mask>
<g mask="url(#mask0_2103_10)">
<path fill-rule="evenodd" clip-rule="evenodd" d="M38.4599 63.03C34.6399 63.03 30.9599 62.67 27.8199 61.97C27.7099 61.95 27.6499 61.88 27.6199 61.83C27.5899 61.79 27.5499 61.7 27.5799 61.59C27.6199 61.43 27.7699 61.34 27.8899 61.34C31.0999 62.04 34.7499 62.41 38.5299 62.41C43.1899 62.41 47.6699 61.85 51.1399 60.81C53.3899 60.14 55.1499 59.31 56.3699 58.34C57.6499 57.32 58.2999 56.15 58.2999 54.88C58.2999 44.62 49.4199 36.27 38.4999 36.27C27.5799 36.27 18.6999 44.62 18.6999 54.88C18.6999 56.31 19.4799 57.55 21.0899 58.67C21.1899 58.74 21.2099 58.83 21.2199 58.88C21.2199 58.93 21.2199 59.02 21.1699 59.12C21.0799 59.24 20.9599 59.26 20.9099 59.26C20.8399 59.26 20.7799 59.24 20.7299 59.2C18.9599 57.97 18.0699 56.52 18.0699 54.89C18.0699 52.21 18.6399 49.61 19.7899 47.18L20.5699 45.52L18.7399 45.8C17.2499 46.03 15.5799 46.15 13.9099 46.15C10.3099 46.15 6.96994 45.61 4.77994 44.67C3.62994 44.18 1.68994 43.06 1.68994 41.22C1.68994 36.51 4.81994 32.21 9.47994 30.5L11.0499 29.93L9.78994 28.84C8.41994 27.65 7.62994 25.93 7.62994 24.13C7.62994 20.69 10.4299 17.89 13.8799 17.89C14.7299 17.89 15.5599 18.06 16.3299 18.39L17.0699 18.71L17.5199 18.05C18.9099 16.06 20.9599 14.48 23.3199 13.63L24.8899 13.06L23.6299 11.97C22.2599 10.78 21.4699 9.06002 21.4699 7.26002C21.4699 3.82002 24.2699 1.03002 27.7199 1.03002C31.1699 1.03002 33.9699 3.83002 33.9699 7.26002C33.9699 9.06002 33.1799 10.79 31.8099 11.97L30.5499 13.06L32.1199 13.63C33.3999 14.09 34.5799 14.76 35.6199 15.6L35.9799 15.89L36.4299 15.8C37.0999 15.66 37.7899 15.59 38.4799 15.59C39.1699 15.59 39.8599 15.66 40.5299 15.8L40.9799 15.89L41.3499 15.6C42.3999 14.75 43.5799 14.09 44.8499 13.63L46.4199 13.06L45.1599 11.97C43.7899 10.78 42.9999 9.06002 42.9999 7.25002C42.9999 3.81002 45.7999 1.02002 49.2499 1.02002C52.6999 1.02002 55.4999 3.82002 55.4999 7.25002C55.4999 9.06002 54.7099 10.78 53.3399 11.96L52.0799 13.05L53.6499 13.62C55.9999 14.48 58.0599 16.05 59.4499 18.05L59.8999 18.71L60.6399 18.39C61.4199 18.06 62.2399 17.89 63.0899 17.89C66.5299 17.89 69.3399 20.69 69.3399 24.13C69.3399 25.93 68.5499 27.66 67.1799 28.84L65.9199 29.93L67.4899 30.5C68.3399 30.82 69.1599 31.22 69.9199 31.7C70.0199 31.76 70.0499 31.85 70.0599 31.9C70.0599 31.95 70.0799 32.04 70.0199 32.14C69.9599 32.23 69.8599 32.29 69.7499 32.29C69.6899 32.29 69.6299 32.27 69.5799 32.24C67.6699 31.02 65.4099 30.37 63.0999 30.37C57.4299 30.37 52.5199 34.33 51.6699 39.59L51.5799 40.14L52.0099 40.5C53.3599 41.62 54.5499 42.91 55.5299 44.33L55.7399 44.63L56.0899 44.72C58.0599 45.25 60.5499 45.54 63.0899 45.54C65.6299 45.54 68.0499 45.25 70.0199 44.74C71.4899 44.36 72.6099 43.87 73.4199 43.27C73.7299 43.04 74.6499 42.35 74.6499 41.22C74.6499 38.87 73.8599 36.63 72.3699 34.74C72.2999 34.65 72.2999 34.55 72.2999 34.5C72.2999 34.45 72.3299 34.36 72.4199 34.28C72.4899 34.22 72.5699 34.21 72.6199 34.21C72.6699 34.21 72.7899 34.21 72.8699 34.33C74.4499 36.33 75.2899 38.7 75.2899 41.19C75.2899 43.03 73.3599 44.14 72.1999 44.64C70.0099 45.59 66.6699 46.12 63.0699 46.12C61.3999 46.12 59.7299 46 58.2399 45.77L56.4099 45.49L57.1899 47.15C58.3299 49.59 58.9099 52.18 58.9099 54.86C58.9099 57.54 56.4199 59.28 54.3399 60.26C50.6799 61.97 44.7299 63 38.4299 63L38.4699 63.02L38.4599 63.03ZM13.8899 30.35C7.50994 30.35 2.32994 35.22 2.32994 41.2C2.32994 42.33 3.25994 43.02 3.55994 43.25C4.36994 43.85 5.47994 44.32 6.95994 44.72C8.91994 45.24 11.3899 45.52 13.8899 45.52C16.3899 45.52 18.9099 45.22 20.8899 44.7L21.2399 44.61L21.4499 44.31C22.4499 42.89 23.6299 41.6 24.9699 40.48L25.3999 40.12L25.3099 39.57C24.4599 34.32 19.5599 30.35 13.8799 30.35H13.8899ZM45.8499 33.26C45.3099 33.79 44.7099 34.27 44.0799 34.67L42.2099 35.85L44.3399 36.45C46.2899 37 48.1499 37.82 49.8599 38.89L50.9899 39.6L51.3499 38.32C52.3399 34.75 55.0999 31.83 58.7399 30.5L60.2999 29.93L59.0499 28.84C58.8799 28.69 58.7099 28.53 58.5599 28.37L58.1299 27.9L57.5199 28.11C55.3599 28.85 52.3499 29.27 49.2699 29.27H48.3699L48.1099 29.88C48.1099 29.88 46.8399 32.28 45.8599 33.27L45.8499 33.26ZM18.4699 28.35C18.3099 28.52 18.1499 28.68 17.9799 28.82L16.7299 29.91L18.2899 30.48C21.9299 31.82 24.7099 34.73 25.6799 38.3L26.0399 39.58L27.1699 38.87C28.8799 37.8 30.7299 36.97 32.6899 36.43L34.8199 35.83L32.9499 34.65C32.3099 34.25 31.7199 33.76 31.1699 33.23C30.1899 32.25 29.4299 31.12 28.9199 29.85L28.6599 29.23H27.7399C24.6699 29.23 21.6699 28.82 19.5099 28.08L18.9099 27.87L18.4799 28.33L18.4699 28.35ZM38.5199 16.21C35.9199 16.21 33.4799 17.21 31.6399 19.06C29.7999 20.89 28.7899 23.33 28.7899 25.93C28.7899 28.53 29.7999 30.97 31.6299 32.8C33.4699 34.64 35.9099 35.65 38.5199 35.65C41.1299 35.65 43.5599 34.65 45.3999 32.81C48.2299 29.98 49.0499 25.78 47.4699 22.1C47.4199 21.99 47.4499 21.9 47.4699 21.85C47.4899 21.8 47.5399 21.72 47.6399 21.67C47.6799 21.65 47.7199 21.64 47.7599 21.64C47.8599 21.64 47.9899 21.69 48.0599 21.83C48.8199 23.6 49.0699 25.55 48.7799 27.47L48.5999 28.62L49.7599 28.6C52.3699 28.57 54.7499 28.25 56.6799 27.67L57.7099 27.36L57.3199 26.37C57.0299 25.64 56.8899 24.87 56.8899 24.09C56.8899 22.38 57.5699 20.78 58.8099 19.59L59.4199 19.01L58.9399 18.32C56.7899 15.27 53.1899 13.44 49.2999 13.44C47.1899 13.44 45.1199 13.98 43.3199 15.01L41.7599 15.9L43.3499 16.74C44.2799 17.22 45.1299 17.85 45.8699 18.59C45.9899 18.71 45.9899 18.92 45.8699 19.03C45.7899 19.11 45.6899 19.12 45.6399 19.12C45.5899 19.12 45.4899 19.12 45.4099 19.03C43.5699 17.19 41.1299 16.18 38.5199 16.18V16.21ZM63.1399 18.51C60.0399 18.51 57.5199 21.02 57.5199 24.11C57.5199 27.2 60.0399 29.71 63.1399 29.71C66.2399 29.71 68.7599 27.2 68.7599 24.11C68.7599 21.02 66.2399 18.51 63.1399 18.51ZM13.8899 18.51C10.7899 18.51 8.26994 21.02 8.26994 24.11C8.26994 27.2 10.7899 29.71 13.8899 29.71C16.9899 29.71 19.5099 27.2 19.5099 24.11C19.5099 21.02 16.9899 18.51 13.8899 18.51ZM27.7399 13.46C23.8499 13.46 20.2499 15.28 18.0999 18.34L17.6199 19.03L18.2299 19.61C19.4699 20.8 20.1499 22.4 20.1499 24.11C20.1499 24.9 19.9999 25.67 19.7199 26.39L19.3299 27.39L20.3699 27.7C22.2899 28.27 24.6799 28.59 27.2899 28.63L28.4499 28.65L28.2699 27.5C27.7799 24.25 28.8699 20.92 31.1899 18.61C31.9399 17.87 32.7799 17.25 33.6999 16.77L35.2999 15.93L33.7399 15.03C31.9399 14.01 29.8699 13.46 27.7599 13.46H27.7399ZM49.2799 1.62002C46.1799 1.62002 43.6599 4.13002 43.6599 7.22002C43.6599 10.31 46.1799 12.82 49.2799 12.82C52.3799 12.82 54.8999 10.31 54.8999 7.22002C54.8999 4.13002 52.3799 1.62002 49.2799 1.62002ZM27.7399 1.62002C24.6399 1.62002 22.1199 4.13002 22.1199 7.22002C22.1199 10.31 24.6399 12.82 27.7399 12.82C30.8399 12.82 33.3599 10.31 33.3599 7.22002C33.3599 4.13002 30.8399 1.62002 27.7399 1.62002Z" fill="#295DC2" stroke="#295DC2" stroke-width="2" stroke-miterlimit="10"/>
</g>
<path d="M24.5463 61.4811C25.242 61.4811 25.8064 60.9183 25.8064 60.2235C25.8064 59.5287 25.242 58.9659 24.5463 58.9659C23.8507 58.9659 23.2863 59.5287 23.2863 60.2235C23.2863 60.9183 23.8507 61.4811 24.5463 61.4811Z" fill="#295DC2" stroke="#295DC2" stroke-width="0.25" stroke-linejoin="round"/>
</g>
<defs>
<clipPath id="clip0_2103_10">
<rect width="76" height="65" fill="white" transform="translate(0.709961)"/>
</clipPath>
</defs>
</svg>
