<svg width="66" height="65" viewBox="0 0 66 65" fill="none" xmlns="http://www.w3.org/2000/svg">
<path d="M51.999 62.9687C50.1506 62.9687 48.6373 61.4656 48.6373 59.607V56.9054H17.8029V59.607C17.8029 61.4554 16.2998 62.9687 14.4412 62.9687H11.3232C9.4748 62.9687 7.96152 61.4656 7.96152 59.607V47.3687L7.95137 40.4422V40.3609L7.99199 40.2797L8.09355 40.1578L11.1303 37.2633H5.31074C3.88887 37.2633 2.74121 36.1054 2.74121 34.6937V33.3633C2.74121 31.9414 3.89902 30.7937 5.31074 30.7937H7.23027C8.10371 30.7937 8.93652 31.2609 9.40371 32.0125L11.9529 36.0953L15.0404 28.5289C15.5787 27.1883 16.8787 26.3148 18.3412 26.3148H22.4139L22.7896 24.3648L22.5357 24.0093C20.8295 21.6429 19.9256 18.85 19.9256 15.9148C19.9256 9.55701 24.2217 4.03201 30.3764 2.46794C31.4834 2.18357 32.6311 2.04138 33.7889 2.04138C34.9467 2.04138 36.0943 2.18357 37.2014 2.46794C41.3553 3.52419 44.8389 6.51013 46.535 10.4508C46.6061 10.6234 46.535 10.8164 46.3623 10.8875C46.3217 10.9078 46.2811 10.9179 46.2303 10.9179C46.1287 10.9179 45.9865 10.8672 45.9154 10.7148C44.3006 6.96716 40.9897 4.12341 37.0389 3.11794C35.9826 2.85388 34.8857 2.71169 33.7889 2.71169C32.692 2.71169 31.5951 2.84373 30.5389 3.11794C24.6787 4.60076 20.5959 9.86169 20.5959 15.9148C20.5959 18.9008 21.5709 21.7242 23.4092 24.0601C23.4701 24.1414 23.4904 24.2328 23.4701 24.3343L22.81 28.3968L27.0146 27.3508C27.0146 27.3508 27.0857 27.3508 27.1162 27.3508C27.1975 27.3508 27.2381 27.3609 27.2787 27.3812C27.949 27.7672 28.66 28.0922 29.4014 28.3461L29.6146 28.4172C29.8686 28.4984 30.1428 28.5797 30.417 28.6609C30.549 28.7015 30.874 28.7726 30.874 28.7726C30.9959 28.8031 31.1279 28.8234 31.2498 28.8539C31.7373 28.9453 32.235 29.0164 32.7225 29.057C33.0779 29.0875 33.4334 29.0976 33.7889 29.0976C33.7889 29.0976 34.1951 29.0976 34.2865 29.0976L34.8147 29.0672C34.9467 29.0672 35.0889 29.0469 35.2311 29.0265C39.974 28.5086 44.0771 25.4515 45.9357 21.0437C45.9967 20.8914 46.1389 20.8406 46.2404 20.8406C46.2811 20.8406 46.3318 20.8406 46.3725 20.8711C46.4842 20.9219 46.535 21.0031 46.5553 21.0539C46.5756 21.1047 46.5959 21.1961 46.5553 21.3078C46.0475 22.5265 45.367 23.6539 44.5443 24.6695L43.1936 26.325H48.1701C49.6225 26.325 50.9225 27.1883 51.4709 28.539L54.5889 36.2273L57.199 32.0429C57.6662 31.2914 58.499 30.8242 59.3725 30.8242H61.292C62.7139 30.8242 63.8615 31.982 63.8615 33.3937V34.7242C63.8615 36.1461 62.7037 37.2937 61.292 37.2937H55.3506L58.3365 40.2086L58.4686 40.6554V47.2976L58.4787 59.6476C58.4787 61.4961 56.9756 63.0094 55.117 63.0094H51.999V62.9687ZM49.3178 59.607C49.3178 61.0898 50.5264 62.2984 52.0092 62.2984H55.1272C56.61 62.2984 57.8186 61.0898 57.8186 59.607V55.3922L56.2545 56.4078C55.9092 56.6312 55.5334 56.7836 55.1272 56.8547H55.1068C55.0154 56.875 54.924 56.8851 54.8326 56.8953H54.6904L54.5482 56.9054H49.3178V59.607ZM8.65215 59.607C8.65215 61.0898 9.86074 62.2984 11.3436 62.2984H14.4615C15.9443 62.2984 17.1529 61.0898 17.1529 59.607V56.9054L11.4654 56.875C11.0389 56.814 10.6021 56.6515 10.2264 56.4078L8.6623 55.3922V59.607H8.65215ZM43.0818 52.0101C43.417 52.4672 43.61 53.0258 43.61 53.5742V56.2351H54.66C54.7615 56.2351 54.8732 56.2148 54.985 56.1945C56.0514 55.9914 56.8537 55.1281 56.9959 54.0515L57.8084 47.2875L57.8186 42.1484L53.2787 47.8054C52.8115 48.4554 52.0498 48.8414 51.2475 48.8414H48.1295C47.3373 48.8414 46.5857 48.4554 46.1186 47.8156L44.0061 44.9312H22.4646L20.3521 47.8156C19.885 48.4554 19.1334 48.8414 18.3311 48.8414H15.2131C14.4107 48.8414 13.649 48.4554 13.1818 47.8054L8.83496 43.164L8.64199 47.2773L9.45449 54.0414C9.60684 55.2601 10.592 56.1844 11.8209 56.225H22.942V53.564C22.942 53.0054 23.1248 52.4469 23.46 52L24.0795 51.1672C24.5771 50.4867 25.3693 50.0906 26.192 50.0906H40.3701C41.2029 50.0906 41.9951 50.4867 42.4826 51.1672L42.5436 51.2484L43.0818 52V52.0101ZM26.192 50.7812C25.5725 50.7812 24.9834 51.0758 24.6178 51.5734L23.9881 52.4164C23.7342 52.7515 23.6021 53.1578 23.6021 53.5742V56.225H42.9295V53.5742C42.9295 53.1578 42.7873 52.7414 42.5436 52.4062L41.9443 51.5734C41.5787 51.0758 40.9896 50.7711 40.3701 50.7711H26.192V50.7812ZM44.717 44.789L46.6467 47.4297C46.9818 47.8969 47.5404 48.1812 48.1193 48.1812H51.2373C51.8264 48.1812 52.385 47.8969 52.7201 47.4195L56.5693 41.6406L44.7068 44.789H44.717ZM13.7201 47.4195C14.0654 47.8969 14.6037 48.1812 15.2029 48.1812H18.3209C18.8998 48.1812 19.4584 47.8969 19.7936 47.4297L21.7232 44.789L9.85059 41.4883L13.71 47.4195H13.7201ZM9.85059 40.625L22.3225 44.2812H44.1076L57.199 40.2797L54.3857 37.2734H12.1053L9.85059 40.625ZM59.3725 31.464C58.7225 31.464 58.1131 31.8094 57.7678 32.3679L55.1272 36.5929H61.292C62.3381 36.5929 63.1912 35.7398 63.1912 34.6937V33.3633C63.1912 32.3172 62.3381 31.464 61.292 31.464H59.3725ZM18.3412 26.975C17.1732 26.975 16.0967 27.6961 15.6701 28.7726L12.4811 36.5929H54.0303L50.8514 28.7625C50.4045 27.6758 49.3584 26.9648 48.1803 26.9648H42.1576L41.8936 27.1578C41.3451 27.5539 40.7662 27.8992 40.1772 28.214C39.9842 28.3156 39.7811 28.407 39.5779 28.4984C38.7959 28.864 37.9834 29.1484 37.1404 29.3515L36.6732 29.4633L36.3178 29.5343L35.6271 29.6461L35.0279 29.7172L35.1396 29.6968C35.1396 29.6968 34.7232 29.7273 34.5912 29.7375L34.0834 29.7578H33.8295C33.4842 29.7578 33.1389 29.7578 32.7936 29.7172C32.5803 29.6968 32.3771 29.6765 32.1639 29.6562L31.7779 29.6054C31.4631 29.5547 31.1482 29.5039 30.8334 29.4328L30.3561 29.3211C29.3506 29.057 28.3756 28.6914 27.4717 28.2242L27.1061 28.0312L22.3428 29.4531C22.3428 29.4531 22.2717 29.4531 22.2514 29.4531C22.16 29.4531 22.1193 29.4328 22.0787 29.4125C21.9365 29.2804 21.9061 29.1687 21.9264 29.057L22.3225 26.975H18.3818H18.3412ZM5.31074 31.464C4.26465 31.464 3.41152 32.3172 3.41152 33.3633V34.6937C3.41152 35.7398 4.26465 36.5929 5.31074 36.5929H11.4756L8.83496 32.3679C8.48965 31.8094 7.87012 31.4742 7.23027 31.4742H5.31074V31.464Z" fill="#295DC2" stroke="#295DC2" stroke-width="2"/>
<path fill-rule="evenodd" clip-rule="evenodd" d="M34.0529 22.3133C33.9513 22.3133 33.6771 22.1 33.6771 21.6227V16.6766H28.7412C28.3654 16.6766 28.0505 16.4735 28.0505 16.3008C28.0505 16.1992 28.2638 15.925 28.7412 15.925H33.6771V10.9891C33.6771 10.6133 33.8802 10.2985 34.0529 10.2985C34.1544 10.2985 34.4287 10.5117 34.4287 10.9891V15.925H39.3646C39.7404 15.925 40.0552 16.1586 40.0552 16.3008C40.0552 16.4024 39.8419 16.6766 39.3646 16.6766H34.4287V21.6125C34.4287 21.9883 34.2154 22.3133 34.0529 22.3133Z" fill="#295DC2" stroke="#295DC2" stroke-width="2"/>
<path d="M47.0732 17.1875C47.7873 17.1875 48.3662 16.6086 48.3662 15.8945C48.3662 15.1804 47.7873 14.6016 47.0732 14.6016C46.3592 14.6016 45.7803 15.1804 45.7803 15.8945C45.7803 16.6086 46.3592 17.1875 47.0732 17.1875Z" fill="#295DC2" stroke="#295DC2" stroke-width="0.25" stroke-linejoin="round"/>
</svg>
