<?xml version="1.0" encoding="UTF-8"?>
<svg id="accounts_icon" data-name="accounts icon" xmlns="http://www.w3.org/2000/svg" xmlns:xlink="http://www.w3.org/1999/xlink" viewBox="0 0 96 89.03">
  <defs>
    <style>
      .cls-1 {
        fill: #f9fbff;
      }

      .cls-2 {
        clip-path: url(#clippath);
      }

      .cls-3 {
        fill: none;
      }
    </style>
    <clipPath id="clippath">
      <rect class="cls-3" width="96" height="89.03"/>
    </clipPath>
  </defs>
  <g id="accounts_icon-2" data-name="accounts icon-2">
    <g class="cls-2">
      <path class="cls-1" d="m77.5,42.41c3.92-3.01,6.5-7.41,7.21-12.22.71-4.81-.5-9.76-3.45-13.71-2.9-3.95-7.29-6.69-12.19-7.6s-9.98.03-14.21,2.71c-1.77-2.74-4.12-5.09-6.89-6.82-2.79-1.77-5.95-2.9-9.24-3.32s-6.61-.16-9.79.83c-3.18.97-6.08,2.63-8.49,4.81s-4.34,4.89-5.61,7.91c-1.25,3.01-1.8,6.22-1.6,9.48.19,3.26,1.1,6.39,2.66,9.24,1.57,2.85,3.76,5.33,6.47,7.24-6.34,2.54-11.75,6.86-15.54,12.41-3.79,5.56-5.83,12.11-5.8,18.77,0,2.66,1.13,6.58,6.5,9.84,6.47,3.92,17.31,5.87,28.2,5.87s20.84-1.8,27.37-5.45h1.99c9.43,0,21.15-1.77,26.68-6.94.97-.83,1.8-1.88,2.35-3.01.55-1.17.86-2.43.91-3.68,0-5.56-1.65-11-4.78-15.7-3.1-4.67-7.52-8.38-12.72-10.65h-.03Zm-12.22-27.98c2.32,0,4.59.58,6.61,1.69,2.04,1.1,3.73,2.71,4.94,4.62,1.22,1.91,1.91,4.12,2.04,6.39s-.39,4.51-1.41,6.55c-1.02,2.04-2.58,3.76-4.51,5.01-1.91,1.3-4.12,2.04-6.42,2.27-2.32.19-4.62-.16-6.74-1.1-2.11-.91-3.95-2.35-5.36-4.15,1.88-2.71,3.13-5.8,3.65-9.04.5-3.26.28-6.55-.71-9.71,2.32-1.65,5.09-2.51,7.91-2.51,0,0,0-.02,0-.02Zm-12.66,28.2c-1.13-.63-2.32-1.18-3.48-1.69.44-.31.91-.63,1.3-1.02.78.91,1.69,1.72,2.63,2.46l-.44.19v.05h-.01ZM19.02,23.21c0-3.21.97-6.39,2.82-9.04,1.85-2.66,4.46-4.78,7.52-6,3.05-1.25,6.42-1.57,9.68-.94s6.22,2.19,8.57,4.46,3.92,5.17,4.59,8.35c.63,3.18.31,6.42-.94,9.43s-3.4,5.53-6.14,7.33-6,2.74-9.29,2.74c-4.42,0-8.7-1.72-11.83-4.78-3.13-3.05-4.98-7.24-4.98-11.56h0v.02h0Zm-8.35,53.84c-2.46-1.49-3.79-3.18-3.79-4.98,0-6.55,2.32-12.85,6.55-17.89,4.26-5.06,10.18-8.49,16.76-9.71,3.65.94,7.49.94,11.12,0,6.58,1.25,12.5,4.7,16.73,9.71,4.23,5.06,6.55,11.36,6.55,17.89,0,1.77-1.25,3.4-3.73,4.94h0c-11.04,6.74-39.17,6.77-50.18.03h-.01Zm77.11-5.65c-2.93,2.85-10.15,4.7-18.44,5.17.75-1.38,1.13-2.9,1.13-4.46,0-4.86-1.05-9.68-3.13-14.07-2.07-4.42-5.09-8.35-8.9-11.52.71-.19,1.49-.39,2.12-.5,1.57.39,3.13.58,4.73.58s3.18-.19,4.7-.58c5.4,1.05,10.26,3.87,13.74,8.02,3.48,4.15,5.4,9.37,5.4,14.73,0,.5-.16,1.02-.39,1.44-.23.47-.58.86-.97,1.17h0v.02s.01,0,.01,0Z"/>
    </g>
  </g>
</svg>