<?xml version="1.0" encoding="UTF-8"?>
<svg id="contacts_icon" data-name="contacts icon" xmlns="http://www.w3.org/2000/svg" viewBox="0 0 96 96">
  <defs>
    <style>
      .cls-1 {
        fill: #295dc2;
      }
    </style>
  </defs>
  <path class="cls-1" d="m11.19,62.63c-.86,0-1.65.31-2.29.96-.6.58-.94,1.44-.94,2.33s.34,1.7.94,2.33c.6.6,1.44.97,2.3.97h1.39l.03,13.74c0,2.38.73,4.72,2.04,6.73,1.31,1.99,3.18,3.52,5.35,4.41.46.16.9.3,1.31.42,1.02.31,2.09.47,3.14.47h51.7c1.26-.08,1.94-.18,3.14-.47.55-.16.71-.18,1.31-.42,2.17-.89,4.04-2.41,5.35-4.41,1.33-2.01,2.01-4.29,2.04-6.73V13.03c0-3.19-1.23-6.24-3.48-8.49-2.2-2.25-5.22-3.53-8.36-3.53H24.45c-3.14,0-6.16,1.28-8.38,3.53-2.2,2.25-3.48,5.3-3.48,8.49v13.63h-1.39c-.84,0-1.65.34-2.3.97-.58.6-.92,1.46-.92,2.35s.34,1.69.92,2.33c.6.58,1.46.97,2.3.97h1.39v5.48h-1.39c-.84,0-1.65.34-2.3.97-.58.6-.92,1.46-.92,2.35s.34,1.69.92,2.33c.6.58,1.46.97,2.3.97h1.39v5.48h-1.39c-.84,0-1.65.34-2.3.97-.58.6-.92,1.44-.92,2.35s.34,1.69.92,2.33c.6.58,1.46.97,2.3.97h1.39v5.14m63.26,25.74H24.79v-.68c0-6.87,2.67-13.45,7.47-18.35,4.8-4.88,11.25-7.6,18.05-7.6s13.26,2.72,18.05,7.6c4.8,4.89,7.47,11.47,7.47,18.35v.68h.02Zm-36.32-37.71c-2.84-2.88-4.46-6.84-4.46-10.96,0-3.06.89-6.08,2.54-8.62s4.04-4.55,6.84-5.69c2.8-1.2,5.87-1.49,8.8-.89,2.97.58,5.69,2.07,7.81,4.25,2.12,2.16,3.57,4.93,4.17,7.94.58,3.01.29,6.11-.86,8.96-1.13,2.84-3.1,5.27-5.61,6.97-2.5,1.69-5.43,2.58-8.44,2.58-4.04,0-7.91-1.65-10.79-4.54Zm-20.47,18.57h1.44c.84,0,1.65-.31,2.29-.94.6-.6.94-1.44.94-2.33s-.34-1.7-.94-2.35c-.58-.58-1.44-.97-2.29-.97h-1.41l-.03-5.14h1.41c.84,0,1.65-.34,2.29-.97.6-.6.94-1.44.94-2.33s-.34-1.7-.94-2.35c-.58-.58-1.44-.97-2.29-.97h-1.41v-5.48h1.41c.84,0,1.65-.34,2.29-.97.6-.6.94-1.44.94-2.33s-.34-1.7-.94-2.35c-.58-.58-1.44-.97-2.29-.97h-1.41v-5.49h1.41c.84,0,1.65-.34,2.29-.97.6-.6.94-1.44.94-2.33s-.34-1.7-.94-2.33c-.58-.6-1.44-.99-2.29-.99h-1.41l.03-13.95c0-1.44.57-2.85,1.57-3.87,1.02-1,2.38-1.6,3.79-1.6h51.68c1.44,0,2.8.6,3.79,1.6,1,1.02,1.57,2.43,1.57,3.87v67.74c-1.12-5.09-3.4-9.81-6.68-13.84s-7.44-7.18-12.16-9.17c3.79-2.67,6.63-6.55,8.12-10.96,1.49-4.47,1.52-9.27.18-13.73-1.41-4.46-4.13-8.36-7.86-11.17-3.74-2.77-8.2-4.29-12.84-4.29s-9.12,1.49-12.82,4.29c-3.74,2.76-6.47,6.66-7.86,11.17-1.41,4.46-1.31,9.3.16,13.73,1.49,4.46,4.34,8.28,8.12,10.96-4.72,2.04-8.88,5.17-12.16,9.17-3.26,3.99-5.56,8.75-6.66,13.84"/>
</svg>