<?xml version="1.0" encoding="UTF-8"?>
<svg id="deals_icon" data-name="deals icon" xmlns="http://www.w3.org/2000/svg" viewBox="0 0 96 96">
  <defs>
    <style>
      .cls-1 {
        fill: #295dc2;
      }
    </style>
  </defs>
  <path class="cls-1" d="m31.21,33.58c1.65-.63,2.46-2.54,1.83-4.2-.68-1.73-1.02-3.65-1.02-5.65,0-8.91,7.23-16.19,16.06-16.19s16.06,7.26,16.06,16.19c0,1.99-.34,3.95-1.07,5.77-.63,1.65.16,3.53,1.83,4.2.39.16.76.21,1.15.21,1.28,0,2.51-.76,2.96-2.07,1.02-2.59,1.49-5.31,1.49-8.15,0-12.49-10.11-22.68-22.46-22.68s-22.46,10.14-22.46,22.68c0,2.8.5,5.52,1.49,8.02.63,1.65,2.51,2.51,4.16,1.86"/>
  <path class="cls-1" d="m52.22,17.78l-6.29,6.33-1.99-2.04c-1.28-1.28-3.27-1.28-4.54,0s-1.28,3.31,0,4.58l4.29,4.33c.63.63,1.44.94,2.25.94s1.65-.29,2.25-.94l8.57-8.62c1.28-1.28,1.28-3.31,0-4.58s-3.27-1.28-4.54,0h-.02.02Z"/>
  <path class="cls-1" d="m89.79,39.92c-1.78,0-3.22,1.44-3.22,3.22v2.67h-3.95c-1.23,0-2.41-.21-3.56-.68l-9.04-3.65c-3.77-1.52-7.99-1.57-11.81-.05l-8.7,3.43-12.15-3.9c-3.56-1.15-7.44-1.02-10.87.39l-9.46,3.82c-1.15.47-2.33.68-3.56.68h-3.95v-2.67c0-1.78-1.44-3.22-3.22-3.22s-3.22,1.44-3.22,3.22v35.63c0,1.78,1.44,3.22,3.22,3.22s3.22-1.44,3.22-3.22v-.6h2.12c2.07,0,4.12.68,5.77,1.96l11.89,9.01c5.05,3.82,11.16,5.82,17.37,5.82,2.75,0,5.56-.39,8.28-1.23l11.08-3.35c2.54-.76,4.58-2.59,5.77-4.97l6.84-5.22c1.65-1.28,3.74-1.99,5.82-1.99h2.07v.6c0,1.78,1.44,3.22,3.22,3.22s3.22-1.44,3.22-3.22v-35.63c0-1.78-1.44-3.22-3.22-3.22l.05-.05.02-.02s-.03,0-.03,0Zm-23.39,42.25c-.34,1.02-1.18,1.7-2.2,1.99l-11.08,3.35c-6.79,2.07-14.27.73-19.96-3.56l-11.89-9.01c-2.75-2.07-6.21-3.22-9.64-3.22h-2.12v-19.44h3.95c2.04,0,4.08-.39,5.99-1.15l9.46-3.82c2.07-.84,4.37-.94,6.55-.21l4.58,1.49-3.19,1.23c-2.41,1.1-4.24,3.06-5.14,5.61-.89,2.51-.73,5.22.47,7.65,2.67,5.35,8.91,7.99,14.56,6.08l9.77-3.27,9.46,13.38c.6.84.76,1.91.42,2.93h0v-.02h0Zm18.05-10.55h0c-3.48,0-6.89,1.28-9.69,3.4l-2.72,2.07c-.26-.6-.55-1.15-.94-1.7l-10.82-15.29c-.81-1.15-2.3-1.65-3.61-1.18l-12.02,4.03c-2.62.89-5.52-.34-6.79-2.85-.39-.81-.47-1.7-.16-2.54.29-.84.89-1.49,1.57-1.83l21.22-8.36c2.3-.89,4.8-.89,7.1,0l9.04,3.65c1.91.76,3.9,1.15,5.95,1.15h3.95v19.44"/>
</svg>