<?xml version="1.0" encoding="UTF-8"?>
<svg id="home_icon" data-name="home icon" xmlns="http://www.w3.org/2000/svg" viewBox="0 0 96 96">
  <defs>
    <style>
      .cls-1 {
        fill: #295dc2;
      }
    </style>
  </defs>
  <path class="cls-1" d="m93.92,44.43L55.7,5.96s-.08-.08-.16-.16c-4.16-3.74-10.46-3.74-14.65,0-.05.05-.12.08-.16.16L2.21,44.4c-1.43,1.43-1.43,3.74,0,5.17,1.43,1.43,3.74,1.43,5.17,0l2.89-2.89v31.67c0,8.1,6.6,14.65,14.65,14.65h13.19c2.03,0,3.66-1.63,3.66-3.66v-29.87h12.82v29.87c0,2.03,1.63,3.66,3.66,3.66h12.82c8.1,0,14.65-6.6,14.65-14.65,0-2.03-1.63-3.66-3.66-3.66s-3.66,1.63-3.66,3.66c0,4.03-3.29,7.32-7.32,7.32h-9.16v-29.87c0-2.03-1.63-3.66-3.66-3.66h-20.16c-2.03,0-3.66,1.63-3.66,3.66v29.87h-9.53c-4.03,0-7.32-3.29-7.32-7.32v-39l28.23-28.18c1.38-1.18,3.38-1.18,4.76,0l27.89,28.09v20.72c0,2.03,1.63,3.66,3.66,3.66s3.66-1.63,3.66-3.66v-13.35l2.89,2.93c.73.73,1.68,1.1,2.61,1.1s1.88-.37,2.56-1.06c1.43-1.43,1.43-3.74,0-5.17h.08l.02-.02s-.03.02-.03.02Z"/>
</svg>