<?xml version="1.0" encoding="UTF-8"?>
<svg id="inventory_icon" data-name="inventory icon" xmlns="http://www.w3.org/2000/svg" viewBox="0 0 96 96">
  <defs>
    <style>
      .cls-1 {
        fill: #f9fbff;
      }
    </style>
  </defs>
  <path class="cls-1" d="m69.37,29.33h0c-.47,0-.94,0-1.4.04-1.71-3.32-4.88-9.48-4.88-9.48-2.08-4.02-5.94-6.39-10.33-6.39h-30.11c-4.39,0-8.24,2.37-10.32,6.39-1.22,2.33-7.99,15.17-8.68,16.46-1.99,2.15-3.11,5.03-3.14,8.23v19.76c0,3.95,3.17,7.17,7.06,7.17h8.55c3.89,0,7.06-3.22,7.06-7.17v-4.43h20.29c1.9,12.78,12.78,22.58,25.87,22.58,14.43,0,26.17-11.93,26.17-26.56s-11.7-26.6-26.13-26.6h-.01Zm-52.11-6.77v-.02c1.12-2.15,3.09-3.35,5.38-3.35h30.11c2.34,0,4.29,1.24,5.42,3.38,0,0,2.64,5.13,4.04,7.82-.83.25-1.67.54-2.46.86-9.1-1.77-19.72-2.21-21.99-2.21-9.55,0-18.63,1.11-25.42,3,.47-.88,3.71-7.11,4.91-9.46v-.02h0Zm.38,41.78c0,.82-.68,1.51-1.49,1.51H7.59c-.81,0-1.5-.69-1.5-1.51v-6.08c1.74,1.08,3.73,1.65,5.79,1.65h5.75v4.43h.01Zm8.5-16.06h18.16c-.56,1.89-.9,3.88-1.02,5.94l-31.39.04h0c-1.5,0-2.9-.61-3.99-1.71-1.15-1.17-1.8-2.78-1.8-4.49v-3.51c0-2.65,1.37-4.81,3.67-5.76,6.21-2.63,16.68-4.18,27.96-4.18,2.46,0,8.44.32,14.63,1.11-2.25,1.96-4.17,4.31-5.66,6.92h-20.56c-1.52,0-2.77,1.27-2.77,2.82s1.25,2.82,2.77,2.82Zm43.24,28.55c-11.35,0-20.6-9.4-20.6-20.94s9.24-20.94,20.6-20.94,20.58,9.4,20.58,20.94-9.23,20.94-20.58,20.94Z"/>
  <path class="cls-1" d="m16.89,45.54c0,1.61-1.29,2.9-2.9,2.9s-2.89-1.29-2.89-2.9,1.29-2.89,2.89-2.89,2.9,1.29,2.9,2.89Z"/>
  <path class="cls-1" d="m72.15,47.2c0,1.54-1.25,2.8-2.77,2.8s-2.76-1.27-2.76-2.8,1.24-2.8,2.76-2.8,2.77,1.27,2.77,2.8Z"/>
  <path class="cls-1" d="m75.1,64.61c0,1.54-1.24,2.79-2.76,2.79h-5.94c-1.52,0-2.77-1.25-2.77-2.79s1.25-2.8,2.77-2.8h.19v-4.35c-1.39-.14-2.49-1.34-2.49-2.78,0-1.55,1.25-2.8,2.77-2.8h2.49c1.24,0,2.31.84,2.63,2,.04.08.06.18.07.27.05.18.06.35.06.53v7.13h.22c1.52,0,2.76,1.25,2.76,2.8Z"/>
</svg>