<?xml version="1.0" encoding="UTF-8"?>
<svg id="reports_icon" data-name="reports icon" xmlns="http://www.w3.org/2000/svg" viewBox="0 0 96 96">
  <defs>
    <style>
      .cls-1 {
        fill: #f9fbff;
      }
    </style>
  </defs>
  <path class="cls-1" d="m74.92,13.04h-3.57v-3.7c0-4.85-3.82-8.85-8.45-8.85H21.17c-4.68,0-8.5,3.97-8.5,8.85v64.78c0,4.85,3.82,8.85,8.45,8.85h3.57v3.7c0,4.85,3.82,8.83,8.45,8.83h41.72c4.68,0,8.47-3.95,8.47-8.83V21.84c0-4.85-3.78-8.8-8.42-8.8h0ZM21.17,77.77c-1.93,0-3.49-1.64-3.49-3.65h-.03V9.34c0-2.02,1.54-3.63,3.47-3.63h41.73c1.92,0,3.47,1.62,3.47,3.63v64.78c0,2.02-1.55,3.65-3.47,3.65H21.17Zm57.22,8.9c0,2.02-1.54,3.63-3.47,3.63h-41.72c-1.93,0-3.49-1.62-3.49-3.63v-3.7h33.18c4.68,0,8.45-3.95,8.45-8.85V18.23h3.57c1.93,0,3.47,1.64,3.47,3.65v64.78h.01Z"/>
  <path class="cls-1" d="m50.1,65.92c0,1.41-1.12,2.57-2.49,2.57h-19.23c-1.38,0-2.49-1.17-2.49-2.57s1.12-2.59,2.49-2.59h19.23c1.38,0,2.49,1.17,2.49,2.59Z"/>
  <path class="cls-1" d="m58.17,55.52c0,1.42-1.12,2.59-2.49,2.59h-27.3c-1.38,0-2.49-1.17-2.49-2.59s1.12-2.57,2.49-2.57h27.3c1.38,0,2.49,1.17,2.49,2.57Z"/>
  <path class="cls-1" d="m58.17,45.15c0,1.42-1.12,2.57-2.49,2.57h-27.3c-1.38,0-2.49-1.15-2.49-2.57s1.12-2.57,2.49-2.57h27.3c1.38,0,2.49,1.17,2.49,2.57Z"/>
  <path class="cls-1" d="m58.17,17.19v6.7c0,1.41-1.12,2.57-2.49,2.57s-2.49-1.17-2.49-2.57v-.43l-7.1,7.37c-.98,1.03-2.52,1.03-3.52,0l-5.23-5.44-7.22,7.5c-.46.52-1.12.77-1.75.77s-1.3-.25-1.75-.77c-1-1.03-1-2.65,0-3.68l8.96-9.35c1-1.03,2.54-1.03,3.52,0l5.24,5.44,5.32-5.53h-.43c-1.38,0-2.49-1.15-2.49-2.57s1.12-2.57,2.49-2.57h6.43c1.38,0,2.49,1.17,2.49,2.57h.02,0Z"/>
</svg>