<?xml version="1.0" encoding="UTF-8"?>
<svg id="Layer_1" data-name="Layer 1" xmlns="http://www.w3.org/2000/svg" viewBox="0 0 71.48 94.66">
  <defs>
    <style>
      .cls-1 {
        fill: #f9fbff;
      }
    </style>
  </defs>
  <path class="cls-1" d="m68.54,8.54c-1.91-1.93-4.44-2.99-7.13-2.99h-4.56v-.93c0-2.55-2.05-4.62-4.58-4.62H19.3c-2.53,0-4.6,2.07-4.6,4.62v.93h-4.56C4.6,5.54.08,10.1.08,15.71l-.08,68.77c0,2.72,1.04,5.27,2.94,7.21,1.91,1.91,4.44,2.97,7.13,2.97h51.27c5.54,0,10.06-4.56,10.06-10.16l.08-68.77c0-2.72-1.04-5.27-2.94-7.19Zm-48.33-2.99h31.16v5.54h-31.16v-5.54Zm45.71,78.95c0,2.55-2.07,4.62-4.58,4.62H10.06c-1.22,0-2.38-.48-3.23-1.35-.87-.89-1.35-2.05-1.35-3.28l.08-68.77c0-2.55,2.07-4.62,4.58-4.62h4.56v.93c0,2.55,2.07,4.62,4.6,4.62h32.98c2.53,0,4.58-2.07,4.58-4.62v-.93h4.56c1.22,0,2.38.48,3.23,1.35.87.89,1.35,2.05,1.35,3.28l-.08,68.77Z"/>
  <path class="cls-1" d="m58.96,34.21c0,1.53-1.24,2.76-2.76,2.76h-19.53c-1.51,0-2.74-1.24-2.74-2.76s1.24-2.78,2.74-2.78h19.53c1.53,0,2.76,1.24,2.76,2.78Z"/>
  <path class="cls-1" d="m58.96,52.7c0,1.53-1.24,2.76-2.76,2.76h-19.53c-1.51,0-2.74-1.24-2.74-2.76s1.24-2.78,2.74-2.78h19.53c1.53,0,2.76,1.24,2.76,2.78Z"/>
  <path class="cls-1" d="m59.04,71.19c0,1.53-1.24,2.76-2.74,2.76h-19.63c-1.51,0-2.74-1.24-2.74-2.76s1.24-2.78,2.74-2.78h19.63c1.51,0,2.74,1.24,2.74,2.78Z"/>
  <path class="cls-1" d="m28.86,30.58l-8.29,8.35c-.52.52-1.22.81-1.93.81s-1.43-.29-1.95-.81l-3.44-3.46c-1.08-1.08-1.08-2.84,0-3.92,1.06-1.08,2.82-1.08,3.88,0l1.49,1.51,6.36-6.39c1.06-1.08,2.8-1.08,3.88,0s1.08,2.84,0,3.92Z"/>
  <path class="cls-1" d="m28.86,50.48l-8.29,8.35c-.52.52-1.22.81-1.93.81s-1.43-.29-1.95-.81l-3.44-3.46c-1.08-1.08-1.08-2.84,0-3.92,1.06-1.08,2.82-1.08,3.88,0l1.49,1.51,6.36-6.39c1.06-1.08,2.8-1.08,3.88,0s1.08,2.84,0,3.92Z"/>
  <path class="cls-1" d="m28.86,68.96l-8.29,8.35c-.52.52-1.22.81-1.93.81s-1.43-.29-1.95-.81l-3.44-3.46c-1.08-1.08-1.08-2.84,0-3.92,1.06-1.08,2.82-1.08,3.88,0l1.49,1.51,6.36-6.39c1.06-1.08,2.8-1.08,3.88,0,1.08,1.08,1.08,2.84,0,3.92Z"/>
</svg>