<?xml version="1.0" encoding="UTF-8"?>
<svg id="Layer_1" data-name="Layer 1" xmlns="http://www.w3.org/2000/svg" viewBox="0 0 71.74 95">
  <defs>
    <style>
      .cls-1 {
        fill: #295dc2;
      }
    </style>
  </defs>
  <path class="cls-1" d="m68.78,8.56c-1.91-1.93-4.45-2.99-7.15-2.99h-4.56v-.93c0-2.56-2.06-4.64-4.6-4.64H19.36c-2.53,0-4.6,2.08-4.6,4.64v.93h-4.58C4.62,5.57.08,10.14.08,15.76l-.08,69.02c0,2.73,1.05,5.3,2.96,7.23,1.91,1.93,4.45,2.99,7.15,2.99h51.45c5.56,0,10.1-4.57,10.1-10.19l.08-69.03c0-2.73-1.05-5.29-2.96-7.22Zm-48.5-2.99h31.27v5.56h-31.27v-5.56Zm45.87,79.23c0,2.56-2.06,4.63-4.59,4.63H10.11c-1.23,0-2.38-.48-3.25-1.36-.87-.87-1.35-2.04-1.35-3.28l.08-69.02c0-2.56,2.06-4.64,4.59-4.64h4.58v.93c0,2.56,2.07,4.64,4.6,4.64h33.11c2.54,0,4.6-2.08,4.6-4.64v-.93h4.56c1.23,0,2.38.49,3.25,1.36.87.88,1.35,2.05,1.35,3.29l-.08,69.02Z"/>
  <path class="cls-1" d="m59.17,34.33c0,1.53-1.24,2.78-2.76,2.78h-19.6c-1.53,0-2.76-1.25-2.76-2.78s1.23-2.79,2.76-2.79h19.6c1.52,0,2.76,1.25,2.76,2.79Z"/>
  <path class="cls-1" d="m59.17,52.88c0,1.54-1.24,2.78-2.76,2.78h-19.6c-1.53,0-2.76-1.24-2.76-2.78s1.23-2.78,2.76-2.78h19.6c1.52,0,2.76,1.24,2.76,2.78Z"/>
  <path class="cls-1" d="m59.25,71.44c0,1.53-1.24,2.78-2.76,2.78h-19.68c-1.53,0-2.76-1.25-2.76-2.78s1.23-2.79,2.76-2.79h19.68c1.52,0,2.76,1.25,2.76,2.79Z"/>
  <path class="cls-1" d="m28.97,30.68l-8.32,8.39c-.51.52-1.22.82-1.95.82s-1.43-.3-1.95-.82l-3.45-3.48c-1.08-1.09-1.08-2.85,0-3.94,1.08-1.08,2.82-1.08,3.9,0l1.5,1.52,6.36-6.42c1.08-1.09,2.83-1.09,3.91,0,1.07,1.08,1.07,2.85,0,3.93Z"/>
  <path class="cls-1" d="m28.97,50.66l-8.32,8.38c-.51.52-1.22.82-1.95.82s-1.43-.3-1.95-.82l-3.45-3.48c-1.08-1.09-1.08-2.85,0-3.94,1.08-1.08,2.82-1.08,3.9,0l1.5,1.52,6.36-6.42c1.08-1.09,2.83-1.09,3.91,0,1.07,1.09,1.07,2.85,0,3.94Z"/>
  <path class="cls-1" d="m28.97,69.21l-8.32,8.39c-.51.52-1.22.81-1.95.81s-1.43-.29-1.95-.81l-3.45-3.48c-1.08-1.09-1.08-2.85,0-3.94,1.08-1.09,2.82-1.09,3.9,0l1.5,1.51,6.36-6.42c1.08-1.08,2.83-1.08,3.91,0,1.07,1.09,1.07,2.85,0,3.94Z"/>
</svg>