<?xml version="1.0" encoding="UTF-8"?>
<svg id="browse_all_deals_icon" data-name="browse all deals icon" xmlns="http://www.w3.org/2000/svg" xmlns:xlink="http://www.w3.org/1999/xlink" viewBox="0 0 96 96">
  <defs>
    <style>
      .cls-1 {
        clip-path: url(#clippath);
      }

      .cls-2 {
        fill: none;
      }

      .cls-3 {
        fill-rule: evenodd;
      }
    </style>
    <clipPath id="clippath">
      <rect class="cls-2" x="1" y="1" width="94" height="94"/>
    </clipPath>
  </defs>
  <g class="cls-1">
    <g>
      <path class="cls-3" d="m94.56,57.29l-11-16.53c-.5-.78-1.36-1.22-2.3-1.22h-2.82V14.79c0-1.52-1.22-2.74-2.76-2.74h-2.74V3.74c.05-1.52-1.22-2.74-2.74-2.74H25.99c-1.54,0-2.79,1.22-2.79,2.74v8.31h-2.74c-1.52,0-2.74,1.22-2.74,2.74v24.8h-2.93c-.94,0-1.77.47-2.32,1.22L1.5,57.27l-.03.05c-.13.18-.23.37-.29.57-.05.1-.06.19-.08.29-.03.08-.05.16-.06.24-.03.15-.03.29-.03.44v33.4c0,1.52,1.22,2.74,2.74,2.74h88.47c1.54,0,2.74-1.22,2.74-2.74v-32.87c.15-.7.03-1.46-.39-2.11Zm-16.13-12.25h1.33l7.37,11.09h-8.7v-11.09ZM28.73,6.53h38.73v5.53H28.73s0-5.53,0-5.53Zm-5.53,11h49.74v38.59h-13.78c-1.54,0-2.76,1.2-2.76,2.74v8.27h-16.71v-8.27c0-1.54-1.22-2.74-2.76-2.74h-13.74s0-38.59,0-38.59Zm-6.97,27.54h1.49v11.05h-8.83s7.34-11.05,7.34-11.05Zm73.24,44.46H6.53v-27.92h27.73v8.27c0,1.52,1.22,2.74,2.74,2.74h22.2c1.52,0,2.74-1.22,2.74-2.74v-8.27h27.54s0,27.92,0,27.92Z"/>
      <path class="cls-3" d="m67.43,25.8c0,1.52-1.22,2.74-2.76,2.74H31.47c-1.52,0-2.74-1.22-2.74-2.74s1.22-2.74,2.74-2.74h33.21c1.54,0,2.76,1.22,2.76,2.74Z"/>
      <path class="cls-3" d="m67.43,36.8c0,1.52-1.22,2.74-2.76,2.74H31.47c-1.52,0-2.74-1.22-2.74-2.74s1.22-2.74,2.74-2.74h33.21c1.54,0,2.76,1.22,2.76,2.74Z"/>
      <path class="cls-3" d="m56.41,47.81c0,1.52-1.2,2.74-2.74,2.74h-22.2c-1.52,0-2.74-1.22-2.74-2.74s1.22-2.74,2.74-2.74h22.2c1.54,0,2.74,1.22,2.74,2.74Z"/>
    </g>
  </g>
</svg>