<?xml version="1.0" encoding="UTF-8"?>
<svg id="user_cabinet_icon" data-name="user cabinet icon" xmlns="http://www.w3.org/2000/svg" viewBox="0 0 96 96">
  <path d="m81.26,14.74C72.36,5.86,60.58,1,48,1S23.64,5.86,14.79,14.74C5.89,23.64,1,35.42,1,48s4.89,24.36,13.79,33.21c8.85,8.9,20.68,13.79,33.21,13.79s24.36-4.89,33.26-13.79,13.74-20.68,13.74-33.21-4.89-24.36-13.74-33.26Zm-33.26,74.73c-12.25,0-23.31-5.36-30.91-13.86,4.7-12.5,16.77-21.39,30.91-21.39-9.12,0-16.53-7.41-16.53-16.53s7.41-16.51,16.53-16.51,16.53,7.39,16.53,16.51-7.41,16.53-16.53,16.53c14.13,0,26.21,8.9,30.94,21.39-7.6,8.49-18.64,13.86-30.94,13.86Z"/>
</svg>