<?xml version="1.0" encoding="UTF-8"?>
<svg id="browse_all_inventory_icon" data-name="browse all inventory icon" xmlns="http://www.w3.org/2000/svg" viewBox="0 0 96 96">
  <defs>
    <style>
      .cls-1 {
        fill: #f9fbff;
      }
    </style>
  </defs>
  <path class="cls-1" d="m90.7,45.43c-4.37-.36-5.09.85-7.16,4.37-1.58-3.28-2.55-9.46-7.28-9.1h-11.77v-11.04c.12-.97-.73-1.58-1.33-2.18,3.28.24,7.04,0,7.28-4.12.36-2.79-1.09-5.58-4.12-5.58-4.25-.24-5.1.73-7.04,4.25-1.46-3.15-2.55-9.46-7.28-9.1H19.49c-4.61-.24-5.7,5.82-7.16,8.98-2.18-3.52-3.03-4.49-7.16-4.12-3.03,0-4.49,2.79-4.12,5.58.24,4.12,3.76,4.37,7.04,4.12-.12,0-.97.85-.97.97h0s0,.12-.12.12c0,0,0,.12-.12.24v.24c-.24.49,0,20.99-.12,21.47,0,2.79,2.3,4.97,4.97,4.97,5.1.36,8.73-.61,8.49-6.55h5.46c-.85,5.58,1.94,6.91,7.04,6.55l-.97.97h0c-.12.12-.24.24-.24.49-.24.49,0,20.99-.12,21.35,0,2.79,2.3,4.97,4.97,4.97,4.97.36,8.73-.49,8.49-6.43h30.81c-.36,5.94,3.4,6.79,8.37,6.43,2.79,0,4.97-2.3,4.97-4.97v-20.87c.12-.97-.85-1.58-1.33-2.18,3.28.24,7.04,0,7.28-4.12.36-2.79-1.21-5.7-4.25-5.7h0ZM5.18,23.95c-.97.12-.61-1.46-.61-2.06,0-.36.36-.73.73-.73h2.06c.61-.12,1.7,2.55,2.06,2.79h-4.25,0Zm77.27,31.54h0l1.33,1.21-12.13,3.64h-23.29l-12.13-3.64,1.33-1.21h44.89Zm.24,5.1h0Zm0,.12c-.24.24-1.7,3.88-3.03,3.88-.36,0-4,.12-4-.24l-.97-1.33,8.01-2.3h-.01Zm-37.36,2.16h0c-.36.36-.85,1.58-1.46,1.58h-3.4c-.97,0-2.79-3.76-3.15-3.88l8.01,2.3Zm-9.22-13.95h.85l-.36.85s-.49-.85-.49-.85Zm27.29-27.42c.49-.49,2.18-.36,2.67-.36,1.09,0,.73,1.58.61,2.18,0,.36-.36.73-.73.73h-4.25s1.7-2.55,1.7-2.55Zm12.86,22.68c.73,0,1.33.49,1.58,1.09l2.67,6.67h-41l2.67-6.67c.24-.73.97-1.09,1.58-1.09h32.51,0ZM17.79,17.4c.24-.61.97-1.09,1.58-1.09h32.39c.73,0,1.33.49,1.58,1.09l2.67,6.55H15s2.79-6.55,2.79-6.55Zm-4.61,10.07h44.88l1.33,1.21-12.13,3.64h-23.29l-12.13-3.52,1.33-1.33h0Zm45.13,5.22c-.24.24-2.18,3.88-3.03,3.88h-3.76c-.08,0-.16-.04-.24-.12-.24-.36-.85-1.33-.85-1.33l7.89-2.43h-.01Zm-37.48,2.3h0c-.24.36-.85,1.58-1.33,1.58h-3.4c-.49.24-2.91-3.64-3.15-3.88l7.89,2.3h-.01Zm-4.12,15.41c0,2.14-4.8,1.58-4.97,1.58-1.73-.17-1.58-2.43-1.58-3.64l1.46.49h5.1v1.58h-.01Zm7.76-10.09l-.61.97c-.85,1.09-.85,2.67-.85,4h-10.68c-.61,0-1.21-.49-1.33-1.21-.12-1.46-1.09-7.89-.85-9.22,1.46,1.7,3.03,5.34,5.7,5.09,5.22.12,5.58.12,8.61-4.25h22.08c3.03,4.37,3.28,4.37,8.49,4.25,2.67.24,4.37-3.4,5.7-5.1.12,1.21-.24,4.49-.49,5.7h-13.47c-.85-1.21-2.18-2.06-3.64-1.94h-15.41c-1.21,0-2.55.61-3.28,1.7h.03Zm1.94,4.99c0-.36-.12-1.7.12-1.94.36-.36.73-1.33,1.33-1.21h12.25c-.85.73-1.33,2.18-1.82,3.15h-11.89,0Zm3.28,6.55c-.97,0-.73-1.58-.73-2.06,0-1.09,2.79-.73,2.79-.73.61-.12,1.82,2.43,2.18,2.79h-4.25.01Zm11.4,26.32c0,2.18-3.52,1.7-4.85,1.7-1.94,0-1.58-2.43-1.58-3.64l.85.24c.49.12.97.24,1.46.24h4.12s0,1.46,0,1.46Zm28.02-4.97h-18.2c0-.36,0-1.7.12-1.94,0,0,.85-1.21,1.33-1.21h15.41c.61,0,1.21,1.21,1.21,1.21.24.24.12,1.7.12,1.94h0Zm3.52,0c0-1.33.12-2.91-.85-4-.85-1.46-2.3-2.67-4.12-2.67h-15.41c-1.82,0-3.15,1.21-4.12,2.67-.85,1.09-.85,2.67-.85,4h-10.68c-.61,0-1.09-.36-1.21-.97-.24-1.7-1.09-7.89-.97-9.46,1.46,1.82,3.03,5.1,5.82,5.1,5.34,0,5.58.12,8.61-4.25h21.96c3.03,4.37,3.4,4.25,8.61,4.25,2.79,0,4.37-3.4,5.82-5.1v1.94c-.12.36-.73,8.01-1.09,8.01-.24.36-.61.49-1.09.49h-10.43Zm12.74,5.2c0,1.94-3.64,1.58-4.97,1.58-1.7,0-1.58-1.94-1.58-3.28h4.25c.49,0,.85-.12,1.33-.24l.97-.24s0,2.18,0,2.18Zm5.82-27.17c0,.36-.36.73-.73.73h-4.25c.36-.36,1.46-2.79,2.18-2.79,2.3-.12,2.79-.49,2.79,2.06h.01Z"/>
</svg>