<?xml version="1.0" encoding="UTF-8"?>
<svg id="new_deal_icon" data-name="new deal icon" xmlns="http://www.w3.org/2000/svg" viewBox="0 0 96 96">
  <defs>
    <style>
      .cls-1 {
        fill: #f9fbff;
      }
    </style>
  </defs>
  <path class="cls-1" d="m92.62,30.58h-.05c-3.21-3.21-8.46-3.21-11.67,0-.99.97-7.32,7.32-8.31,8.29v-21.82c0-2.23-.86-4.28-2.43-5.84l-7.79-7.81c-1.58-1.55-3.65-2.41-5.84-2.41H9.23C4.68.95.97,4.68.97,9.22v77.5c0,4.55,3.71,8.28,8.26,8.28h55.14c4.53,0,8.26-3.73,8.26-8.28v-24.49l19.98-19.98c3.21-3.21,3.21-8.46,0-11.67,0,0,.01,0,.01,0ZM56.14,6.47c.52,0,1.51-.07,2.38.82l7.79,7.79c.87.86.82,1.85.82,2.43h-11.01V6.47h.02Zm8.23,83.02H9.23c-1.53,0-2.74-1.21-2.74-2.74V9.22c0-1.53,1.21-2.74,2.74-2.74h41.33v13.8c0,1.53,1.21,2.74,2.75,2.74h13.8v21.37l-12.02,12.02c-.32.3-.55.67-.69,1.06l-3.88,11.68c-.3.97-.08,2.08.67,2.82.74.74,1.85.97,2.82.67l11.68-3.88c.39-.13.77-.35,1.06-.67l.3-.32v19.02h.05c0,1.53-1.21,2.74-2.74,2.74v-.04h0Zm.44-27.23l-1.49,1.49-5.84,1.96,1.96-5.86,1.49-1.49,3.88,3.89h0Zm3.93-3.86l-3.88-3.88c2.08-2.08,11.28-11.28,13.24-13.24l3.88,3.88-13.24,13.24Zm19.98-20.01v.03l-2.82,2.82-3.89-3.88,2.84-2.85c1.06-1.07,2.82-1.07,3.88,0,1.06,1.06,1.11,2.82,0,3.88h0Z"/>
  <path class="cls-1" d="m56.09,31.25c0,1.53-1.21,2.74-2.74,2.74H14.77c-1.54,0-2.74-1.21-2.74-2.74s1.19-2.74,2.74-2.74h38.59c1.53,0,2.74,1.21,2.74,2.74h-.01Z"/>
  <path class="cls-1" d="m45.06,42.29c0,1.53-1.21,2.74-2.75,2.74H14.77c-1.54,0-2.74-1.21-2.74-2.74s1.19-2.74,2.74-2.74h27.53c1.54,0,2.75,1.19,2.75,2.74Z"/>
  <path class="cls-1" d="m45.06,53.31c0,1.53-1.21,2.74-2.75,2.74H14.77c-1.54,0-2.74-1.21-2.74-2.74s1.19-2.74,2.74-2.74h27.53c1.54,0,2.75,1.21,2.75,2.74Z"/>
  <path class="cls-1" d="m45.06,64.31c0,1.54-1.21,2.75-2.75,2.75H14.77c-1.54,0-2.74-1.21-2.74-2.75s1.19-2.74,2.74-2.74h27.53c1.54,0,2.75,1.21,2.75,2.74Z"/>
  <path class="cls-1" d="m56.06,81.2c0,1.53-1.21,2.74-2.74,2.74h-16.55c-1.53,0-2.74-1.21-2.74-2.74s1.21-2.75,2.74-2.75h16.55c1.53,0,2.74,1.21,2.74,2.75Z"/>
</svg>