<?xml version="1.0" encoding="UTF-8"?>
<svg id="new_inventory_icon" data-name="new inventory icon" xmlns="http://www.w3.org/2000/svg" viewBox="0 0 96 96">
  <defs>
    <style>
      .cls-1 {
        fill: #f9fbff;
      }
    </style>
  </defs>
  <g id="new_inventory_icon-2" data-name="new inventory icon-2">
    <path class="cls-1" d="m90.1,43.6c-5.75-.49-7.07.98-9.69,5.75l-3.29-8.05c-1.15-2.63-3.78-4.44-6.73-4.44h-3.45c1.15-1.97,3.45-4.27,2.79-6.73-.82-1.97-3.61-1.97-4.43,0-3.45,8.54-13.8,12.98-22.51,10.02-1.64-.33-2.95-1.97-4.76-1.48l-3.61,1.15c.16-1.31,1.31-4.11.16-5.42-15.6-21.52,19.05-42.05,30.55-18.07,1.15,2.96,5.75.99,4.44-1.97-14.46-30.05-57.16-5.91-39.26,22.01l-.16.66c-11.66-.82-10.51,3.45-14.46,12.32-2.62-4.44-4.1-6.08-9.69-5.75-7.88,0-7.88,13.47,0,13.47h3.94c-.32.32-1.31,1.15-1.47,1.47l-.17.17c-.16.16-.16.49-.16.49-.17,6.9,0,22.34,0,29.4,0,3.78,3.12,6.9,6.9,6.9h4.6c5.09-.16,6.89-4.27,6.89-9.03h42.38c0,4.6,1.97,9.03,6.9,9.03h4.76c3.78,0,6.9-3.28,6.9-7.06v-28.75c0-1.15-1.15-1.97-1.97-2.62h4.27c8.05,0,8.21-13.64.33-13.47h0Zm-66.52-.49c.65-2.14,4.1-1.32,5.91-1.48-.33,1.15-.33,2.3.66,3.12,1.31,1.64,5.91-.82,8.7-1.32,7.23,3.78,16.76,3.12,23.33-1.64h8.37c.99,0,1.97.66,2.3,1.48l3.61,9.03H19.8s3.78-9.19,3.78-9.19Zm-6.57,14.12h61.92l1.8,1.81-16.75,4.92H31.95l-16.59-4.92s1.65-1.81,1.65-1.81Zm62.25,7.06l-3.62,5.09c-.65.66-4.76.5-5.42.33-.65-.16-1.64-1.8-1.97-2.13,0,0,11.01-3.29,11.01-3.29Zm-51.58,3.29l-1.31,1.8c-.49.83-5.42.33-5.42.33-.82,0-3.94-5.09-4.27-5.42,0,0,11,3.29,11,3.29Zm-21.51-15.28c-1.15,0-.99-2.13-.99-2.95,0-.5.49-.99.99-.99,0,0,3.45-.33,3.61.49l2.14,3.45h-5.75Zm15.76,36.47c-.16,3.12-6.89,2.13-6.89,2.13-2.63,0-2.14-3.28-2.14-4.93.33.17.91.33,1.42.45.51.13.96.21,1.04.21h6.57v2.14Zm13.47-6.9c0-.33,0-2.47.17-2.63.33-.66.82-1.64,1.8-1.64h21.19c.82,0,1.48,1.31,1.81,1.64s.33,2.13.33,2.63h-25.3Zm47.47,6.9c-.16,3.12-6.73,2.13-6.73,2.13-2.47,0-2.14-2.46-2.14-4.27.34-.03.76-.04,1.25-.04,2.36,0,6.12.2,7.62-.62v2.8Zm-.99-8.38c0,.82-.65,1.48-1.47,1.64h-14.95v-.16c.49-4.11-2.3-9.2-6.9-9.2h-21.19c-2.46,0-4.43,1.64-5.58,3.61-1.31,1.48-1.15,3.78-1.15,5.59h-14.78c-.82,0-1.65-.66-1.65-1.64-.16-1.98-1.47-10.85-1.14-12.65,1.97,2.46,4.27,7.23,8.04,7.06,7.23.17,7.72.33,11.83-5.75h30.38c4.11,6.08,4.77,5.92,11.83,5.75,3.78.17,6.08-4.6,7.88-6.9.33,1.64-.98,10.84-1.15,12.65Zm9.2-28.91c0,.49-.49.99-.98.99h-5.75l2.13-3.45c.33-.82,3.62-.49,3.62-.49,1.31,0,.98,2.13.98,2.95Z"/>
    <path class="cls-1" d="m71.54,23.23c0,3.45-5.26,3.45-5.26,0s5.26-3.45,5.26,0Z"/>
    <path class="cls-1" d="m60.2,23.89c0,1.31-1.15,2.46-2.46,2.46h-6.24v6.24c0,1.32-1.15,2.47-2.46,2.47s-2.47-1.15-2.47-2.47v-6.24h-6.24c-1.31,0-2.46-1.15-2.46-2.46s1.15-2.47,2.46-2.47h6.24v-6.07c0-1.32,1.15-2.47,2.47-2.47s2.46,1.15,2.46,2.47v6.24h6.24c1.31-.17,2.46.98,2.46,2.3Z"/>
  </g>
</svg>