<?xml version="1.0" encoding="UTF-8"?>
<svg id="new_contact_icon" data-name="new contact icon" xmlns="http://www.w3.org/2000/svg" viewBox="0 0 96 96">
  <defs>
    <style>
      .cls-1 {
        fill: #f9fbff;
      }
    </style>
  </defs>
  <path class="cls-1" d="m88.5,71.53c0,.82-.3,1.63-.91,2.2-.59.59-1.36.89-2.18.89h-10.89v10.98c0,.82-.32,1.63-.91,2.2s-1.36.89-2.18.89-1.61-.3-2.2-.89-.89-1.38-.89-2.2v-10.98h-10.89c-.82,0-1.63-.3-2.2-.89s-.89-1.38-.89-2.2.3-1.61.89-2.18c.59-.59,1.38-.91,2.2-.91h10.89v-10.98c0-.81.3-1.61.89-2.18.6-.59,1.38-.91,2.2-.91s1.61.32,2.18.91c.59.59.91,1.38.91,2.18v10.98h10.89c.82,0,1.61.32,2.18.91.6.59.91,1.38.91,2.18Z"/>
  <path class="cls-1" d="m69.22,12.54c-3.24-5.09-8.22-8.81-13.98-10.54-5.76-1.68-12-1.24-17.44,1.24-5.47,2.52-9.87,6.93-12.34,12.47-2.52,5.52-2.95,11.72-1.21,17.52,1.71,5.81,5.44,10.78,10.54,14.03-7.91,2.77-14.78,7.96-19.63,14.85-5.02,6.9-7.65,15.09-7.65,23.52,0,2.52.99,4.87,2.74,6.61,1.75,1.75,4.11,2.75,6.63,2.75h31.15c.82,0,1.61-.32,2.2-.91.59-.59.89-1.38.89-2.18s-.3-1.61-.89-2.2c-.6-.59-1.38-.89-2.2-.89v-.05h-31.16c-.82,0-1.61-.3-2.18-.89s-.91-1.38-.91-2.2c0-9.13,3.64-17.86,10.07-24.33,6.43-6.46,15.14-10.08,24.23-10.12,6.03,0,11.83-2.15,16.42-6.11,4.53-3.98,7.55-9.42,8.43-15.41.86-5.99-.44-12.06-3.69-17.17h-.02Zm-3.91,20.89c-1.41,3.44-3.81,6.34-6.9,8.43-3.07,2.08-6.7,3.16-10.39,3.16-4.97,0-9.7-2-13.21-5.47-3.49-3.54-5.47-8.31-5.47-13.29v-.03c0-3.73,1.11-7.33,3.12-10.42,2.05-3.09,4.97-5.49,8.39-6.9,3.41-1.41,7.17-1.8,10.81-1.06,3.64.7,6.98,2.52,9.57,5.14,2.62,2.62,4.4,5.94,5.14,9.6.7,3.64.35,7.4-1.06,10.86,0,0,0-.02,0-.02Z"/>
</svg>