<svg width="40" height="47" viewBox="0 0 40 47" fill="none" xmlns="http://www.w3.org/2000/svg">
<g clip-path="url(#clip0_2106_115)">
<path d="M38.2661 1.76215C37.1559 0.636135 35.6529 0.00176215 34.0846 0H8.22555C6.65727 0.00176215 5.15418 0.636135 4.04581 1.76215C2.93744 2.88992 2.31366 4.4177 2.31189 6.01245V12.8425H1.61233C1.1859 12.8425 0.77533 13.0152 0.472247 13.3236C0.169163 13.6302 0 14.0478 0 14.4831C0 14.9183 0.169163 15.3342 0.472247 15.6426C0.77533 15.9492 1.1859 16.1219 1.61233 16.1219H2.31189V18.855H1.61233C1.1859 18.855 0.77533 19.0277 0.472247 19.3343C0.169163 19.6427 0 20.0603 0 20.4938C0 20.9273 0.169163 21.3467 0.472247 21.6533C0.77533 21.9616 1.1859 22.1343 1.61233 22.1343H2.31189V24.8657H1.61233C1.1859 24.8657 0.77533 25.0384 0.472247 25.3467C0.169163 25.6533 0 26.071 0 26.5062C0 26.9415 0.169163 27.3573 0.472247 27.6657C0.77533 27.9723 1.1859 28.145 1.61233 28.145H2.31189V30.8781H1.61233C1.1859 30.8781 0.77533 31.0508 0.472247 31.3592C0.169163 31.6658 0 32.0834 0 32.5169C0 32.9504 0.169163 33.3698 0.472247 33.6764C0.77533 33.9848 1.1859 34.1575 1.61233 34.1575H2.31189V40.9893C2.31366 42.1823 2.66608 43.3488 3.32159 44.3392C3.97709 45.3295 4.90925 46.0995 5.99648 46.5507C6.19912 46.667 6.42467 46.7374 6.65551 46.7586C7.16652 46.9101 7.69515 46.993 8.22555 47H34.0846C34.6167 46.993 35.1454 46.9101 35.6546 46.7586C35.8872 46.7374 36.1128 46.667 36.3154 46.5507C37.4026 46.0995 38.3348 45.3295 38.9903 44.3392C39.6458 43.3488 39.9982 42.1823 40 40.9893V6.01245C39.9982 4.4177 39.3744 2.88992 38.2661 1.76215ZM33.9225 43.7206H8.38943V43.3717C8.38943 39.9303 9.73392 36.6298 12.1286 34.1962C14.5233 31.7627 17.7692 30.3953 21.1559 30.3953C24.5427 30.3953 27.7885 31.7627 30.1833 34.1962C32.5762 36.6298 33.9225 39.9303 33.9225 43.3717V43.7206ZM15.7674 24.841C14.3383 23.389 13.5348 21.4189 13.5313 19.3642C13.5313 17.8312 13.9789 16.3333 14.8159 15.0593C15.6546 13.7835 16.8458 12.7914 18.2379 12.2046C19.6317 11.6178 21.1648 11.4645 22.6432 11.7641C24.1216 12.0619 25.4802 12.8002 26.5463 13.884C27.6123 14.9677 28.3383 16.3492 28.6326 17.8523C28.9269 19.3554 28.7771 20.9132 28.1991 22.3299C27.6229 23.7467 26.6449 24.9555 25.3921 25.8084C24.1374 26.6595 22.6643 27.1142 21.1559 27.1142C19.1348 27.1106 17.1965 26.2948 15.7674 24.841ZM36.7736 39.9091C36.2238 37.3646 35.0819 34.991 33.4432 32.9856C31.8062 30.9821 29.7198 29.405 27.3604 28.3882C29.2546 27.0454 30.6784 25.1247 31.4238 22.9026C32.1709 20.6806 32.1991 18.2752 31.5066 16.0355C30.8141 13.7959 29.4379 11.8399 27.5753 10.4495C25.7145 9.06096 23.4643 8.31205 21.1559 8.31205C18.8476 8.31205 16.5974 9.06096 14.7348 10.4495C12.874 11.8399 11.496 13.7959 10.8053 16.0355C10.1128 18.2752 10.141 20.6806 10.8863 22.9026C11.6335 25.1247 13.0573 27.0454 14.9515 28.3882C12.5903 29.405 10.5057 30.9821 8.86696 32.9856C7.22996 34.991 6.08811 37.3646 5.53833 39.9091V34.1575H6.23612C6.66432 34.1575 7.07489 33.9848 7.37797 33.6764C7.67929 33.3698 7.85022 32.9522 7.85022 32.5169C7.85022 32.0817 7.67929 31.6658 7.37797 31.3592C7.07489 31.0508 6.66432 30.8781 6.23612 30.8781H5.53833V28.145H6.23612C6.66432 28.145 7.07489 27.9723 7.37797 27.6657C7.67929 27.3573 7.85022 26.9415 7.85022 26.5062C7.85022 26.071 7.67929 25.6533 7.37797 25.3467C7.07489 25.0384 6.66432 24.8657 6.23612 24.8657H5.53833V22.1343H6.23612C6.66432 22.1343 7.07489 21.9616 7.37797 21.6533C7.67929 21.3467 7.85022 20.929 7.85022 20.4938C7.85022 20.0585 7.67929 19.6427 7.37797 19.3343C7.07489 19.0277 6.66432 18.855 6.23612 18.855H5.53833V16.1219H6.23612C6.66432 16.1219 7.07489 15.9492 7.37797 15.6426C7.67929 15.3342 7.85022 14.9183 7.85022 14.4831C7.85022 14.0478 7.67929 13.6302 7.37797 13.3236C7.07489 13.0152 6.66432 12.8425 6.23612 12.8425H5.53833V6.01245C5.53833 5.28644 5.82203 4.59216 6.32599 4.08113C6.82996 3.56835 7.51366 3.28112 8.22555 3.27936H34.0846C34.7982 3.28112 35.4819 3.56835 35.9841 4.08113C36.4881 4.59216 36.7718 5.28644 36.7736 6.01245V39.9091Z" fill="#F9FBFF"/>
</g>
<defs>
<clipPath id="clip0_2106_115">
<rect width="40" height="47" fill="white"/>
</clipPath>
</defs>
</svg>
