<svg width="49" height="47" viewBox="0 0 49 47" fill="none" xmlns="http://www.w3.org/2000/svg">
<g clip-path="url(#clip0_2106_123)">
<path d="M48.4434 21.6255L28.5007 1.54719C28.475 1.52146 28.4481 1.49573 28.4212 1.47234C26.2437 -0.48298 22.9529 -0.489997 20.7672 1.45597C20.7403 1.48053 20.7134 1.50509 20.6876 1.53081L0.562556 21.6196C-0.185892 22.3669 -0.187062 23.5785 0.560218 24.3269C1.3075 25.0754 2.51905 25.0765 3.2675 24.3293L4.78661 22.8125V39.3415C4.78661 43.5644 8.22129 46.9991 12.443 46.9991H19.3334C20.3906 46.9991 21.2478 46.1419 21.2478 45.0847V29.4819H27.9464V45.0847C27.9464 46.1419 28.8036 46.9991 29.8608 46.9991H36.5594C40.7811 46.9991 44.2158 43.5644 44.2158 39.3415C44.2158 38.2843 43.3586 37.4271 42.3014 37.4271C41.2442 37.4271 40.387 38.2843 40.387 39.3415C40.387 41.4524 38.6703 43.1703 36.5594 43.1703H31.774V27.5675C31.774 26.5103 30.9168 25.6531 29.8596 25.6531H19.3322C18.2751 25.6531 17.4179 26.5103 17.4179 27.5675V43.1703H12.4418C10.331 43.1703 8.61423 41.4524 8.61423 39.3415V19.0492C8.61423 19.0305 8.61423 19.0106 8.61423 18.9919L23.3481 4.28487C24.065 3.67559 25.1175 3.67793 25.8309 4.28955L40.3882 18.9451V29.7695C40.3882 30.8267 41.2454 31.6839 42.3026 31.6839C43.3598 31.6839 44.217 30.8267 44.217 29.7695V22.7996L45.7303 24.3234C46.1045 24.7 46.5957 24.8883 47.088 24.8883C47.5803 24.8883 48.0633 24.7023 48.4375 24.3316C49.1872 23.5867 49.1918 22.3739 48.4469 21.6243L48.4434 21.6255Z" fill="#F9FBFF"/>
</g>
<defs>
<clipPath id="clip0_2106_123">
<rect width="49" height="47.0002" fill="white"/>
</clipPath>
</defs>
</svg>
