<svg width="29" height="25" viewBox="0 0 29 25" fill="none" xmlns="http://www.w3.org/2000/svg">
<path d="M25.624 0C27.1026 0.000267012 28.3018 1.21332 28.3018 2.7002V22.3008C28.3018 23.7877 27.1026 25.0007 25.624 25.001H2.67773C1.19908 25.0008 0 23.7877 0 22.3008V2.7002C7.68272e-06 1.21324 1.19908 0.000137677 2.67773 0H25.624ZM1.8252 22.3008C1.8252 22.7791 2.20967 23.1649 2.67773 23.165H25.624C26.092 23.1648 26.4775 22.779 26.4775 22.3008V7.18164H1.8252V22.3008ZM8.85547 11.582C9.36097 11.5823 9.76757 11.9964 9.76758 12.501C9.76735 13.0054 9.36083 13.4187 8.85547 13.4189H7.09082C6.62272 13.4189 6.23743 13.8039 6.2373 14.2822V16.0645C6.23737 16.5428 6.62268 16.9277 7.09082 16.9277H8.85547C9.36097 16.928 9.76757 17.3421 9.76758 17.8467C9.76734 18.3511 9.36082 18.7644 8.85547 18.7646H7.09082C5.61208 18.7646 4.41412 17.5514 4.41406 16.0645V14.2822C4.41418 12.7953 5.61212 11.582 7.09082 11.582H8.85547ZM13.71 11.582C14.9445 11.5824 15.9453 12.5963 15.9453 13.8369C15.9453 14.6067 15.5476 15.2611 14.9707 15.6621L15.8496 17.4365C16.0739 17.8884 15.8926 18.4392 15.4424 18.667C15.312 18.7328 15.1714 18.7646 15.0342 18.7646C14.6993 18.7645 14.3776 18.5781 14.2178 18.2559L13.1465 16.0918H12.415V17.8467C12.4148 18.3509 12.0091 18.7641 11.5039 18.7646C10.9983 18.7646 10.592 18.3512 10.5918 17.8467V12.501C10.5918 11.9962 10.9982 11.582 11.5039 11.582H13.71ZM22.4346 11.7627C22.6896 11.5729 23.0286 11.5299 23.3252 11.6523H23.3262C23.6673 11.7953 23.8887 12.1309 23.8887 12.501V17.8467C23.8886 18.3512 23.482 18.7644 22.9766 18.7646C22.4709 18.7646 22.0646 18.3513 22.0645 17.8467V14.7217L20.9746 15.8223C20.6184 16.1818 20.04 16.1815 19.6836 15.8223L18.5928 14.7207V17.8467C18.5927 18.3511 18.1869 18.7642 17.6816 18.7646C17.176 18.7646 16.7696 18.3513 16.7695 17.8467V12.501C16.7695 12.1309 16.9898 11.7953 17.3311 11.6523L17.333 11.6514C17.6736 11.5119 18.0656 11.5885 18.3271 11.8525L20.3291 13.873L22.3311 11.8525L22.4346 11.7627ZM12.415 14.2549H13.71C13.934 14.2546 14.1221 14.0689 14.1221 13.8369C14.122 13.6049 13.9339 13.4193 13.71 13.4189H12.415V14.2549ZM2.67773 1.83594C2.20968 1.83608 1.8252 2.22185 1.8252 2.7002V5.3457H26.4775V2.7002C26.4775 2.22193 26.092 1.83621 25.624 1.83594H2.67773ZM18.5723 2.67285C19.0777 2.67312 19.4842 3.08635 19.4844 3.59082C19.4844 4.0954 19.0778 4.50852 18.5723 4.50879C18.0708 4.50867 17.6523 4.09969 17.6523 3.59082C17.6525 3.09051 18.0458 2.67285 18.5557 2.67285H18.5723ZM21.2197 2.67285C21.7251 2.67312 22.1317 3.08636 22.1318 3.59082C22.1318 4.0954 21.7252 4.50852 21.2197 4.50879C20.7184 4.50857 20.2998 4.09963 20.2998 3.59082C20.2999 3.09051 20.6932 2.67285 21.2031 2.67285H21.2197ZM23.8682 2.67285C24.3734 2.67333 24.7792 3.08648 24.7793 3.59082C24.7793 4.09527 24.3735 4.50831 23.8682 4.50879C23.3666 4.50879 22.9473 4.09976 22.9473 3.59082C22.9474 3.09051 23.3407 2.67285 23.8506 2.67285H23.8682Z" fill="#FFFFFF"/>
</svg>
