<svg width="35" height="47" viewBox="0 0 35 47" fill="none" xmlns="http://www.w3.org/2000/svg">
<g clip-path="url(#clip0_2106_131)">
<path d="M30.4311 6.06954H29.2153V4.76871C29.2153 2.14357 27.1626 0 24.6464 0H4.56889C2.05265 0 0 2.14357 0 4.76871V36.1618C0 38.7957 2.05265 40.9305 4.56889 40.9305H5.78474V42.2313C5.78474 44.8564 7.83739 47 10.3536 47H30.4311C32.9503 47 35 44.8564 35 42.2313V10.8382C35 8.2043 32.9474 6.06954 30.4311 6.06954ZM4.56889 37.4332C3.90703 37.4332 3.37346 36.8665 3.37346 36.1618V4.76871C3.37346 4.06398 3.90703 3.49725 4.56889 3.49725H24.6464C25.3082 3.49725 25.8418 4.06398 25.8418 4.76871V36.1618C25.8418 36.8665 25.3082 37.4332 24.6464 37.4332H4.56889ZM31.6265 42.2313C31.6265 42.936 31.093 43.5027 30.4311 43.5027H10.3536C9.69177 43.5027 9.1582 42.936 9.1582 42.2313V40.9305H24.6464C27.1655 40.9305 29.2153 38.7957 29.2153 36.1618V9.56679H30.4311C31.093 9.56679 31.6265 10.1335 31.6265 10.8382V42.2313Z" fill="#F9FBFF"/>
<path d="M22.8678 8.58603H22.859V11.8366C22.859 12.7968 22.1097 13.5808 21.1767 13.5808C20.5265 13.5808 19.9608 13.1991 19.678 12.6412L16.9256 15.5306C16.2841 16.206 15.1645 16.206 14.5231 15.5306L12.3538 13.2578L9.23399 16.529C8.92201 16.8608 8.49632 17.0487 8.03855 17.0487C7.58079 17.0487 7.16385 16.8637 6.84312 16.529C6.19292 15.8536 6.19292 14.7466 6.84312 14.0712L11.1613 9.54623C11.794 8.87086 12.9223 8.87086 13.5521 9.54623L15.7214 11.819L17.3163 10.1453C16.7711 9.86043 16.392 9.26434 16.392 8.58897C16.392 7.61996 17.1501 6.83594 18.0831 6.83594H21.1738C22.1068 6.83594 22.8649 7.61996 22.8649 8.58897L22.8678 8.58603Z" fill="#F9FBFF"/>
<path d="M22.8561 22.1375C22.8561 23.0977 22.1068 23.8817 21.1738 23.8817H8.04149C7.10846 23.8817 6.35913 23.0977 6.35913 22.1375C6.35913 21.1773 7.10846 20.3845 8.04149 20.3845H21.1767C22.1097 20.3845 22.859 21.1685 22.859 22.1375H22.8561Z" fill="#F9FBFF"/>
<path d="M22.8561 27.1705C22.8561 28.1395 22.1068 28.9235 21.1738 28.9235H8.04149C7.10846 28.9235 6.35913 28.1395 6.35913 27.1705C6.35913 26.2015 7.10846 25.4263 8.04149 25.4263H21.1767C22.1097 25.4263 22.859 26.2103 22.859 27.1705H22.8561Z" fill="#F9FBFF"/>
<path d="M18.9783 32.2035C18.9783 33.1725 18.2202 33.9565 17.2959 33.9565H8.04149C7.10846 33.9565 6.35913 33.1725 6.35913 32.2035C6.35913 31.2345 7.10846 30.4593 8.04149 30.4593H17.2959C18.2202 30.4593 18.9783 31.2433 18.9783 32.2035Z" fill="#F9FBFF"/>
</g>
<defs>
<clipPath id="clip0_2106_131">
<rect width="35" height="47" fill="white"/>
</clipPath>
</defs>
</svg>
