<svg width="20" height="20" viewBox="0 0 20 20" fill="none" xmlns="http://www.w3.org/2000/svg">
<g clip-path="url(#clip0_1548_3765)">
<path fill-rule="evenodd" clip-rule="evenodd" d="M2.14286 1.42857C1.95342 1.42857 1.77174 1.50383 1.63778 1.63778C1.50383 1.77174 1.42857 1.95342 1.42857 2.14286V16.4286C1.42857 16.618 1.50383 16.7997 1.63778 16.9336C1.77174 17.0676 1.95342 17.1429 2.14286 17.1429H7.85714C8.25163 17.1429 8.57143 17.4627 8.57143 17.8571C8.57143 18.2516 8.25163 18.5714 7.85714 18.5714H2.14286C1.57454 18.5714 1.02949 18.3457 0.627628 17.9438C0.225765 17.5419 0 16.9969 0 16.4286V2.14286C0 1.57454 0.225765 1.02949 0.627628 0.627628C1.02949 0.225765 1.57454 0 2.14286 0H17.8571C18.4255 0 18.9705 0.225765 19.3724 0.627628C19.7742 1.02949 20 1.57454 20 2.14286V9.28571C20 9.6802 19.6802 10 19.2857 10C18.8912 10 18.5714 9.6802 18.5714 9.28571V2.14286C18.5714 1.95342 18.4962 1.77174 18.3622 1.63778C18.2283 1.50383 18.0466 1.42857 17.8571 1.42857H2.14286Z" fill="#5F5F5F"/>
<path fill-rule="evenodd" clip-rule="evenodd" d="M0 4.99999C0 4.6055 0.319797 4.28571 0.714286 4.28571H19.2857C19.6802 4.28571 20 4.6055 20 4.99999C20 5.39448 19.6802 5.71428 19.2857 5.71428H0.714286C0.319797 5.71428 0 5.39448 0 4.99999Z" fill="#5F5F5F"/>
<path fill-rule="evenodd" clip-rule="evenodd" d="M13.5748 10.7143C11.9968 10.7143 10.7176 11.9935 10.7176 13.5714C10.7176 15.1494 11.9968 16.4286 13.5748 16.4286C15.1527 16.4286 16.4319 15.1494 16.4319 13.5714C16.4319 11.9935 15.1527 10.7143 13.5748 10.7143ZM9.28906 13.5714C9.28906 11.2045 11.2078 9.28571 13.5748 9.28571C15.9417 9.28571 17.8605 11.2045 17.8605 13.5714C17.8605 15.9384 15.9417 17.8571 13.5748 17.8571C11.2078 17.8571 9.28906 15.9384 9.28906 13.5714Z" fill="#5F5F5F"/>
<path fill-rule="evenodd" clip-rule="evenodd" d="M15.592 15.595C15.871 15.316 16.3232 15.316 16.6022 15.595L19.7879 18.7807C20.0668 19.0596 20.0668 19.5119 19.7879 19.7908C19.5089 20.0698 19.0567 20.0698 18.7777 19.7908L15.592 16.6051C15.3131 16.3262 15.3131 15.8739 15.592 15.595Z" fill="#5F5F5F"/>
</g>
<defs>
<clipPath id="clip0_1548_3765">
<rect width="20" height="20" fill="white"/>
</clipPath>
</defs>
</svg>
