<?xml version="1.0" encoding="UTF-8"?>
<svg id="browse_all_contacts_icon" data-name="browse all contacts icon" xmlns="http://www.w3.org/2000/svg" viewBox="0 0 96 96">
  <defs>
    <style>
      .cls-1 {
        fill: #295dc2;
      }
    </style>
  </defs>
  <path class="cls-1" d="m91.58,49.8h0c-1.65-2.34-5.23.41-3.44,2.62,1.51,2.06,2.34,4.4,2.34,6.88-2.89,4.4-15.42,3.85-20.23,2.62-1.24-1.65-2.62-3.3-4.27-4.68,1.38-8.12,12.25-12.11,19.13-7.43,1.65,1.1,3.85-.41,3.3-2.34-.41-1.51-2.2-2.06-3.44-2.62,6.74-7.02-.96-18.86-10.19-15.42-1.79-2.34-4.13-4.13-6.88-5.37,5.64-5.64,1.24-16.24-6.88-15.98-8.12-.28-12.53,10.19-6.88,15.97-1.38.55-2.62,1.38-3.72,2.2-1.79-.28-3.44-.28-5.23,0-1.1-.96-2.34-1.65-3.72-2.2,5.64-5.63,1.24-16.23-6.88-15.97-8.12-.28-12.53,10.19-6.88,15.97-2.75,1.24-5.09,3.03-6.74,5.37-9.22-3.44-16.93,8.26-10.19,15.42-5.78,2.49-9.77,8.27-9.77,14.46.96,8.12,14.18,8.26,21.89,7.57-2.2,5.23-3.72,14.73,3.85,16.38,1.93-.28,2.48-2.89.96-3.99-1.51-.96-2.2-2.06-2.2-3.17.96-27.8,44.05-27.8,44.87,0-2.48,8.81-26.98,8.12-34.96,6.19-1.24-.28-2.34.55-2.62,1.65s.55,2.34,1.65,2.62c4.13.96,8.81,1.38,13.49,1.38,15.14-.28,32.9-3.3,25.05-21.06,13.49,1.51,29.04-2.06,18.58-17.07,0,0,.01,0,.01,0Zm-13.35-16.52c6.61.14,6.61,10.05,0,10.19-6.74-.14-6.74-10.05,0-10.19Zm-16.93-20.78c6.61.14,6.61,10.05,0,10.19-6.74-.14-6.74-10.05,0-10.19Zm-26.43,0c6.74.14,6.74,10.05,0,10.19-6.74-.14-6.74-10.05,0-10.19Zm0,14.59c1.93,0,3.72.41,5.51,1.24-4.68,2.89-7.3,8.4-6.74,13.76-2.48-.14-4.82-.41-6.74-.83.96-3.17.28-6.88-2.06-9.22,2.2-3.17,6.06-4.96,10.05-4.96h-.02Zm-17.07,6.21c6.61.14,6.61,10.05,0,10.19-6.61-.14-6.61-10.05,0-10.19Zm7.98,28.63c-4.96,1.1-17.21,1.93-20.23-2.62.14-14.04,21.61-15.55,24.36-2.06-1.65,1.38-3.03,2.89-4.13,4.68Zm7.98-7.43h0c-1.24-3.85-3.99-7.02-7.71-9.08,2.48.55,5.51.96,8.53.96.96,2.2,2.48,4.13,4.4,5.64-1.65.69-3.58,1.51-5.23,2.48h0Zm18.17-4.68c-15.28,5.37-20.1-18.31-3.99-19.41,2.75,0,5.23,1.1,7.16,3.03.83.83,2.2.83,3.03,0,1.93-2.06-.83-4.13-2.48-5.09,5.23-2.48,12.11-.96,15.55,3.58-2.34,2.48-3.17,6.06-2.06,9.22-1.93.55-4.27.83-6.74.83.14-2.62.14-9.5-3.99-8.4-.55.28-.96.69-1.1,1.24-.28.55-.28,1.1,0,1.65,2.2,5.09-.41,11.42-5.37,13.35,0,0,0,0-.01,0Zm10.32,4.68h0c-1.79-1.1-3.58-1.93-5.37-2.48,1.93-1.51,3.44-3.44,4.4-5.64,3.03,0,6.06-.41,8.53-.96-3.58,2.06-6.33,5.37-7.57,9.08h0Z"/>
  <path class="cls-1" d="m30.6,81.31c2.48,0,2.48,3.85,0,3.85-2.48-.14-2.48-3.85,0-3.85Z"/>
</svg>