<svg width="20" height="20" viewBox="0 0 20 20" fill="none" xmlns="http://www.w3.org/2000/svg">
<g clip-path="url(#clip0_1548_3799)">
<path fill-rule="evenodd" clip-rule="evenodd" d="M0.627628 3.48474C1.02949 3.08288 1.57454 2.85712 2.14286 2.85712C2.53735 2.85712 2.85714 3.17691 2.85714 3.5714C2.85714 3.96589 2.53735 4.28569 2.14286 4.28569C1.95342 4.28569 1.77174 4.36094 1.63778 4.4949C1.50383 4.62885 1.42857 4.81053 1.42857 4.99997V17.8571C1.42857 18.0466 1.50383 18.2282 1.63778 18.3622C1.77174 18.4961 1.95342 18.5714 2.14286 18.5714H17.8571C18.0466 18.5714 18.2283 18.4961 18.3622 18.3622C18.4962 18.2282 18.5714 18.0466 18.5714 17.8571V4.99997C18.5714 4.81053 18.4962 4.62885 18.3622 4.4949C18.2283 4.36094 18.0466 4.28569 17.8571 4.28569H15C14.6055 4.28569 14.2857 3.96589 14.2857 3.5714C14.2857 3.17691 14.6055 2.85712 15 2.85712H17.8571C18.4255 2.85712 18.9705 3.08288 19.3724 3.48474C19.7742 3.88661 20 4.43165 20 4.99997V17.8571C20 18.4254 19.7742 18.9705 19.3724 19.3723C18.9705 19.7742 18.4255 20 17.8571 20H2.14286C1.57454 20 1.02949 19.7742 0.627628 19.3723C0.225765 18.9705 0 18.4254 0 17.8571V4.99997C0 4.43165 0.225765 3.88661 0.627628 3.48474Z" fill="#5F5F5F"/>
<path fill-rule="evenodd" clip-rule="evenodd" d="M0 9.2857C0 8.89121 0.319797 8.57141 0.714286 8.57141H19.2857C19.6802 8.57141 20 8.89121 20 9.2857C20 9.68019 19.6802 9.99998 19.2857 9.99998H0.714286C0.319797 9.99998 0 9.68019 0 9.2857Z" fill="#5F5F5F"/>
<path fill-rule="evenodd" clip-rule="evenodd" d="M5.00335 0C5.39784 0 5.71763 0.319797 5.71763 0.714286V6.42857C5.71763 6.82306 5.39784 7.14286 5.00335 7.14286C4.60886 7.14286 4.28906 6.82306 4.28906 6.42857V0.714286C4.28906 0.319797 4.60886 0 5.00335 0Z" fill="#5F5F5F"/>
<path fill-rule="evenodd" clip-rule="evenodd" d="M15.0033 0C15.3978 0 15.7176 0.319797 15.7176 0.714286V6.42857C15.7176 6.82306 15.3978 7.14286 15.0033 7.14286C14.6089 7.14286 14.2891 6.82306 14.2891 6.42857V0.714286C14.2891 0.319797 14.6089 0 15.0033 0Z" fill="#5F5F5F"/>
<path fill-rule="evenodd" clip-rule="evenodd" d="M4.28906 3.5714C4.28906 3.17691 4.60886 2.85712 5.00335 2.85712H12.1462C12.5407 2.85712 12.8605 3.17691 12.8605 3.5714C12.8605 3.96589 12.5407 4.28569 12.1462 4.28569H5.00335C4.60886 4.28569 4.28906 3.96589 4.28906 3.5714Z" fill="#5F5F5F"/>
</g>
<defs>
<clipPath id="clip0_1548_3799">
<rect width="20" height="20" fill="white"/>
</clipPath>
</defs>
</svg>
